<svg width="24" height="24" viewBox="0 0 24 24" fill="none" xmlns="http://www.w3.org/2000/svg">
<g clip-path="url(#clip0_1867_57362)">
<path d="M6.78285 22.8093C8.36047 23.5721 10.1303 24 12.0002 24C13.8701 24 15.64 23.5721 17.2176 22.8093L18.2611 12L17.2176 1.19072C15.64 0.427875 13.8701 0 12.0002 0C10.1303 0 8.36047 0.427875 6.78285 1.19072L5.73936 12L6.78285 22.8093Z" fill="#FFDA44"/>
<path d="M17.2169 22.809C21.2309 20.8681 23.9995 16.7577 23.9995 12.0002C23.9995 7.24269 21.2309 3.13222 17.2169 1.19131V22.809Z" fill="#D80027"/>
<path d="M6.78233 22.809V1.19131C2.76838 3.13222 -0.000289917 7.24264 -0.000289917 12.0002C-0.000289917 16.7577 2.76838 20.8681 6.78233 22.809Z" fill="#0052B4"/>
<path d="M12 16.1734C12 14.2585 12 11.9995 12 11.9995H15.1304V13.5647C15.1304 13.8366 14.6087 14.833 13.3209 15.6517C12.8332 15.9618 12.3283 16.0615 12 16.1734Z" fill="#D80027"/>
<path d="M11.9998 8.86884H8.86931V11.9993H11.9998V8.86884Z" fill="#D80027"/>
<path d="M13.5653 7.8262C13.5653 7.24987 13.0981 6.78271 12.5219 6.78271C12.3315 6.78271 12.1537 6.83446 12.0001 6.92343C11.8465 6.83446 11.6687 6.78271 11.4784 6.78271C10.9021 6.78271 10.4349 7.24987 10.4349 7.8262H7.82625V13.0435C7.82625 14.9858 9.36872 16.1091 10.5783 16.6914C10.4878 16.846 10.4349 17.0254 10.4349 17.2175C10.4349 17.7938 10.9021 18.261 11.4784 18.261C11.6687 18.261 11.8466 18.2093 12.0001 18.1203C12.1537 18.2093 12.3315 18.261 12.5219 18.261C13.0981 18.261 13.5653 17.7938 13.5653 17.2175C13.5653 17.0254 13.5125 16.846 13.4219 16.6914C14.6315 16.1091 16.174 14.9859 16.174 13.0435V7.8262H13.5653ZM14.6088 13.0435C14.6088 13.3155 14.6088 14.1428 13.3211 14.9616C12.8333 15.2717 12.3285 15.4728 12.0001 15.5846C11.6718 15.4728 11.167 15.2717 10.6792 14.9616C9.39145 14.1428 9.39145 13.3155 9.39145 13.0435V9.3914H14.6088V13.0435Z" fill="#FF9811"/>
</g>
<defs>
<clipPath id="clip0_1867_57362">
<rect width="24" height="24" fill="white"/>
</clipPath>
</defs>
</svg>
