<svg width="24" height="24" viewBox="0 0 24 24" fill="none" xmlns="http://www.w3.org/2000/svg">
<g clip-path="url(#clip0_1867_59290)">
<path d="M12 24C18.6274 24 24 18.6274 24 12C24 5.37258 18.6274 0 12 0C5.37258 0 0 5.37258 0 12C0 18.6274 5.37258 24 12 24Z" fill="#F0F0F0"/>
<path d="M6.78262 16.1729L7.82611 23.2527C9.12604 23.7351 10.5322 23.999 12 23.999C17.1595 23.999 21.5581 20.7425 23.2536 16.1729H6.78262Z" fill="black"/>
<path d="M6.78262 7.82663L7.82611 0.746816C9.12604 0.264425 10.5322 0.000518799 12 0.000518799C17.1595 0.000518799 21.5581 3.25702 23.2536 7.82663H6.78262Z" fill="#6DA544"/>
<path d="M0.000411987 12C0.000411987 17.1596 3.25696 21.5581 7.82652 23.2536V0.746399C3.25696 2.44191 0.000411987 6.84043 0.000411987 12Z" fill="#A2001D"/>
</g>
<defs>
<clipPath id="clip0_1867_59290">
<rect width="24" height="24" fill="white"/>
</clipPath>
</defs>
</svg>
