<svg width="24" height="24" viewBox="0 0 24 24" fill="none" xmlns="http://www.w3.org/2000/svg">
<g clip-path="url(#clip0_1867_57325)">
<path d="M17.2172 1.19072C15.6396 0.427875 13.8697 0 11.9998 0C10.13 0 8.36009 0.427875 6.78247 1.19072L5.73898 12L6.78247 22.8093C8.36009 23.5721 10.13 24 11.9998 24C13.8697 24 15.6396 23.5721 17.2172 22.8093L18.2607 12L17.2172 1.19072Z" fill="#D80027"/>
<path d="M6.78273 1.19135C2.76883 3.1323 0.000106812 7.24272 0.000106812 12.0002C0.000106812 16.7577 2.76883 20.8681 6.78273 22.8091V1.19135Z" fill="black"/>
<path d="M17.2175 1.19135V22.8091C21.2314 20.8681 24.0001 16.7577 24.0001 12.0002C24.0001 7.24272 21.2314 3.1323 17.2175 1.19135Z" fill="#496E2D"/>
<path d="M11.9997 7.82672C9.69446 7.82672 7.82579 9.69544 7.82579 12.0006C7.82579 14.3058 9.69451 16.1745 11.9997 16.1745C14.3049 16.1745 16.1736 14.3058 16.1736 12.0006C16.1736 9.69544 14.3049 7.82672 11.9997 7.82672ZM11.9997 14.6093C10.5589 14.6093 9.39099 13.4413 9.39099 12.0006C9.39099 10.5599 10.559 9.39192 11.9997 9.39192C13.4404 9.39192 14.6084 10.5599 14.6084 12.0006C14.6084 13.4413 13.4404 14.6093 11.9997 14.6093Z" fill="#FFDA44"/>
<path d="M12.0001 10.4362C11.4237 10.4362 10.9566 10.9034 10.9566 11.4797V13.0449H13.0435V11.4797C13.0435 10.9034 12.5764 10.4362 12.0001 10.4362Z" fill="#FFDA44"/>
</g>
<defs>
<clipPath id="clip0_1867_57325">
<rect width="24" height="24" fill="white"/>
</clipPath>
</defs>
</svg>
