<svg width="24" height="24" viewBox="0 0 24 24" fill="none" xmlns="http://www.w3.org/2000/svg">
<g clip-path="url(#clip0_1867_57395)">
<path d="M4.57764e-05 11.9993C4.57764e-05 12.8212 0.0829208 13.6238 0.240374 14.3993L12 15.1297L23.7598 14.3993C23.9173 13.6238 24 12.8212 24 11.9993C24 11.1773 23.9172 10.3747 23.7598 9.59929L12 8.86884L0.240374 9.59929C0.0829208 10.3747 4.57764e-05 11.1773 4.57764e-05 11.9993Z" fill="#0052B4"/>
<path d="M23.7595 14.3992H0.240082C1.35191 19.8765 6.19433 23.9992 11.9998 23.9992C17.8052 23.9992 22.6476 19.8765 23.7595 14.3992Z" fill="#F0F0F0"/>
<path d="M0.240097 9.6H23.7595C22.6476 4.12266 17.8053 0 11.9998 0C6.19425 0 1.35193 4.12266 0.240097 9.6Z" fill="black"/>
<path d="M17.2176 9.59937H6.78285L8.91473 8.59653L7.77946 6.53192L10.0944 6.97466L10.3878 4.63611L12.0002 6.35614L13.6127 4.63611L13.906 6.97466L16.221 6.53192L15.0858 8.59662L17.2176 9.59937Z" fill="#FFDA44"/>
<path d="M4.57764e-05 12.0008C4.57764e-05 18.6282 5.37267 24.0008 12 24.0008L2.39986 4.80035C0.893108 6.80609 4.57764e-05 9.29904 4.57764e-05 12.0008Z" fill="#A2001D"/>
<path d="M11.9996 23.9998C18.627 23.9998 23.9997 18.6272 23.9997 11.9998C23.9997 9.2981 23.1066 6.80514 21.5998 4.79941L11.9996 23.9998Z" fill="#A2001D"/>
</g>
<defs>
<clipPath id="clip0_1867_57395">
<rect width="24" height="24" fill="white"/>
</clipPath>
</defs>
</svg>
