<svg width="24" height="24" viewBox="0 0 24 24" fill="none" xmlns="http://www.w3.org/2000/svg">
<g clip-path="url(#clip0_1867_57379)">
<path d="M24 12C24 18.6274 18.6274 24 12 24C5.37262 24 0 18.6274 0 12C0 12.0029 12 0.0013125 12 0C18.6274 0 24 5.37262 24 12Z" fill="#0052B4"/>
<path d="M11.9674 12.0005H11.9996C11.9996 11.9897 11.9996 11.9792 11.9996 11.9684C11.9889 11.9791 11.9782 11.9898 11.9674 12.0005Z" fill="#F0F0F0"/>
<path d="M12 6.26086C12 4.14937 12 2.76586 12 0H11.998C5.37145 0.001125 0 5.37323 0 12H6.26086V8.47448L9.78637 12H11.9679C11.9786 11.9893 11.9893 11.9786 12 11.9679C12 11.1594 12 10.4381 12 9.78647L8.47443 6.26086H12Z" fill="#F0F0F0"/>
<path d="M6.07072 1.56506C4.1939 2.63377 2.63357 4.19405 1.56491 6.07088V11.9999H4.69536V4.69561V4.69552H11.9997C11.9997 3.70819 11.9997 2.7676 11.9997 1.56506H6.07072Z" fill="#D80027"/>
<path d="M11.9995 10.5248L7.73602 6.26138H6.26039V6.26148L11.9994 12.0005H11.9995C11.9995 12.0005 11.9995 10.983 11.9995 10.5248Z" fill="#D80027"/>
<path d="M20.2942 13.7573C20.6392 13.2826 20.8697 12.7028 20.8697 12.0007V6.78333C20.4337 7.11089 19.8918 7.30505 19.3045 7.30505C18.4511 7.30505 17.6935 6.89522 17.2175 6.26166C16.7416 6.89522 15.9839 7.30505 15.1306 7.30505C14.5432 7.30505 14.0014 7.11085 13.5654 6.78342V12.0007C13.5654 12.7028 13.7959 13.2826 14.1409 13.7573H20.2942Z" fill="#F3F3F3"/>
<path d="M19.2084 11.0321C19.3745 10.6269 19.5037 10.0345 19.5037 9.7397C19.5037 9.26603 18.8862 8.88208 18.8862 8.88208C18.8862 8.88208 18.2686 9.26603 18.2686 9.7397C18.2686 10.0345 18.3979 10.6269 18.5639 11.0321L18.2074 11.837C18.417 11.9222 18.646 11.9696 18.8862 11.9696C19.1265 11.9696 19.3554 11.9222 19.565 11.837L19.2084 11.0321Z" fill="#FF9811"/>
<path d="M16.7952 8.42669C16.3614 8.48547 15.7837 8.66992 15.5284 8.8173C15.1182 9.05416 15.0944 9.78086 15.0944 9.78086C15.0944 9.78086 15.7358 10.1237 16.1459 9.88684C16.4013 9.73942 16.8496 9.33142 17.1174 8.98492L17.9928 8.89117C17.9619 8.6672 17.8882 8.44516 17.7682 8.23717C17.648 8.02919 17.4926 7.85444 17.314 7.71555L16.7952 8.42669Z" fill="#FF9811"/>
<path d="M15.7446 11.8205C16.0124 12.1669 16.4609 12.5748 16.7162 12.7223C17.1265 12.9591 17.7678 12.6164 17.7678 12.6164C17.7678 12.6164 17.7438 11.8896 17.3337 11.6527C17.0783 11.5053 16.5008 11.321 16.0668 11.2624L15.548 10.5511C15.3695 10.69 15.214 10.8648 15.0939 11.0726C14.9739 11.2807 14.9004 11.5026 14.8692 11.7267L15.7446 11.8205Z" fill="#FF9811"/>
<path d="M14.0114 13.5656C14.9858 15.1291 17.2171 15.6525 17.2171 15.6525C17.2171 15.6525 19.4484 15.1291 20.4229 13.5656H14.0114Z" fill="#338AF3"/>
</g>
<defs>
<clipPath id="clip0_1867_57379">
<rect width="24" height="24" fill="white"/>
</clipPath>
</defs>
</svg>
