<svg width="24" height="24" viewBox="0 0 24 24" fill="none" xmlns="http://www.w3.org/2000/svg">
<g clip-path="url(#clip0_1867_57371)">
<path d="M0 12C0 5.37262 5.37262 0 12 0C18.6274 0 24 5.37262 24 12C23.4783 12 12 13.5652 12 13.5652L0 12Z" fill="#D80027"/>
<path d="M23.9998 12.0003C23.9998 18.6277 18.6272 24.0003 11.9998 24.0003C5.37244 24.0003 -0.000183105 18.6277 -0.000183105 12.0003" fill="black"/>
<path d="M10.354 9.54356L11.3713 10.2818L10.9836 11.4775L12.0001 10.738L13.0175 11.4763L12.6284 10.281L13.6448 9.54159L12.3878 9.54234L11.9986 8.34708L11.6109 9.54276L10.354 9.54356Z" fill="#FFDA44"/>
<path d="M14.9998 6.80329C14.0541 6.25733 13.0202 5.99966 11.9998 6.00144V7.56632C12.754 7.56496 13.5182 7.75527 14.2171 8.15886C16.3348 9.38155 17.063 12.0992 15.8403 14.2169C14.6177 16.3346 11.9001 17.0628 9.78233 15.8401C9.16536 15.4839 8.66731 15.0003 8.30019 14.4421L6.9935 15.3048C7.49023 16.0599 8.16505 16.7137 8.99975 17.1956C11.8649 18.8498 15.5417 17.8646 17.1958 14.9994C18.8501 12.1342 17.8649 8.45751 14.9998 6.80329Z" fill="#FFDA44"/>
<path d="M8.53956 10.956C8.12472 11.7144 8.40325 12.6655 9.16159 13.0804L14.2451 15.8582C13.8994 16.4901 14.083 17.2593 14.715 17.605L16.0882 18.3561C16.7201 18.7019 17.5128 18.4698 17.8585 17.8378L18.6097 16.4646L8.53956 10.956Z" fill="#FFDA44"/>
</g>
<defs>
<clipPath id="clip0_1867_57371">
<rect width="24" height="24" fill="white"/>
</clipPath>
</defs>
</svg>
