<svg width="24" height="24" viewBox="0 0 24 24" fill="none" xmlns="http://www.w3.org/2000/svg">
<g clip-path="url(#clip0_1867_57404)">
<path d="M12 24C18.6274 24 24 18.6274 24 12C24 5.37258 18.6274 0 12 0C5.37258 0 0 5.37258 0 12C0 18.6274 5.37258 24 12 24Z" fill="#F0F0F0"/>
<path d="M12.0002 -0.000930786C7.24267 -0.000930786 3.13192 2.76774 1.19092 6.78169H22.8094C20.8685 2.76774 16.7577 -0.000930786 12.0002 -0.000930786Z" fill="#338AF3"/>
<path d="M12.0005 23.9988C16.7579 23.9988 20.8687 21.2301 22.8097 17.2161H1.19118C3.13218 21.2301 7.24293 23.9988 12.0005 23.9988Z" fill="#338AF3"/>
<path d="M15.5865 12.0001L14.121 12.6894L14.9014 14.1088L13.31 13.8043L13.1083 15.4119L11.9999 14.2296L10.8914 15.4119L10.6898 13.8043L9.09836 14.1087L9.87874 12.6894L8.41324 12.0001L9.87879 11.3107L9.09836 9.89138L10.6897 10.1958L10.8914 8.58817L11.9999 9.77054L13.1084 8.58817L13.31 10.1958L14.9014 9.89138L14.121 11.3107L15.5865 12.0001Z" fill="#FFDA44"/>
</g>
<defs>
<clipPath id="clip0_1867_57404">
<rect width="24" height="24" fill="white"/>
</clipPath>
</defs>
</svg>
