<svg width="24" height="24" viewBox="0 0 24 24" fill="none" xmlns="http://www.w3.org/2000/svg">
<g clip-path="url(#clip0_1867_57416)">
<path d="M12 24C18.6274 24 24 18.6274 24 12C24 5.37258 18.6274 0 12 0C5.37258 0 0 5.37258 0 12C0 18.6274 5.37258 24 12 24Z" fill="#FFDA44"/>
<path d="M12 24.0002C15.6371 24.0002 18.896 22.3819 21.0966 19.8264H2.90341C5.10405 22.3819 8.36294 24.0002 12 24.0002Z" fill="#338AF3"/>
<path d="M24 12C24 5.37263 18.6274 0 12 0C5.37262 0 0 5.37263 0 12C0 13.0831 0.144375 14.1323 0.413391 15.1305H23.5867C23.8556 14.1323 24 13.0831 24 12Z" fill="#338AF3"/>
<path d="M0.953644 16.6962C1.18497 17.2398 1.45539 17.7625 1.76107 18.2614H22.2385C22.5442 17.7625 22.8146 17.2397 23.046 16.6962H0.953644Z" fill="#338AF3"/>
<path d="M5.49897 7.56906L3.15446 6.53434L5.49897 5.49962L6.53364 3.15517L7.56831 5.49962L9.91276 6.53434L7.56831 7.56906L6.53364 9.91351L5.49897 7.56906Z" fill="#F0F0F0"/>
<path d="M6.5337 4.44734L7.17265 5.89527L8.62062 6.53431L7.17265 7.17331L6.5337 8.62124L5.89465 7.17331L4.44673 6.53431L5.89465 5.89527L6.5337 4.44734Z" fill="#D80027"/>
</g>
<defs>
<clipPath id="clip0_1867_57416">
<rect width="24" height="24" fill="white"/>
</clipPath>
</defs>
</svg>
