<svg width="24" height="24" viewBox="0 0 24 24" fill="none" xmlns="http://www.w3.org/2000/svg">
<g clip-path="url(#clip0_1867_57333)">
<path d="M23.5864 15.1299C23.8554 14.1317 23.9998 13.0826 23.9998 11.9994C23.9998 10.9163 23.8554 9.86715 23.5864 8.869L10.9563 0.045105C8.61155 0.247136 6.45985 1.12323 4.69543 2.4789L0.413162 8.869C0.144146 9.86715 -0.000228882 10.9163 -0.000228882 11.9994C-0.000228882 13.0763 0.142412 14.1197 0.408427 15.1126L4.69538 21.52C6.4598 22.8757 8.61151 23.7518 10.9562 23.9538L23.5864 15.1299Z" fill="#FFDA44"/>
<path d="M0.412949 15.1305C1.10726 17.7067 2.6375 19.9395 4.69521 21.5206V15.1305H0.412949Z" fill="#0052B4"/>
<path d="M10.9559 23.9544C11.2999 23.984 11.6477 24.0001 11.9994 24.0001C17.5437 24.0001 22.209 20.2397 23.586 15.1305H10.9559V23.9544Z" fill="#0052B4"/>
<path d="M23.586 8.86955C22.209 3.76036 17.5437 0 11.9994 0C11.6477 0 11.2999 0.0160312 10.9559 0.0456562V8.86955H23.586Z" fill="#0052B4"/>
<path d="M4.69521 2.4798C2.6375 4.06089 1.10726 6.29369 0.412949 8.86989H4.69521V2.4798Z" fill="#0052B4"/>
<path d="M23.8987 10.4343H9.39165H9.3916V0.284729C8.28263 0.530635 7.23127 0.929213 6.26115 1.45857V10.4342H0.101868C0.0350712 10.9466 0.000289917 11.469 0.000289917 11.9995C0.000289917 12.53 0.0350712 13.0524 0.101868 13.5647H6.2611H6.26115V22.5404C7.23127 23.0697 8.28263 23.4684 9.3916 23.7142V13.5648V13.5647H23.8987C23.9654 13.0524 24.0003 12.53 24.0003 11.9995C24.0003 11.469 23.9654 10.9466 23.8987 10.4343Z" fill="#D80027"/>
</g>
<defs>
<clipPath id="clip0_1867_57333">
<rect width="24" height="24" fill="white"/>
</clipPath>
</defs>
</svg>
