<svg width="24" height="24" viewBox="0 0 24 24" fill="none" xmlns="http://www.w3.org/2000/svg">
<g clip-path="url(#clip0_1867_57432)">
<path d="M23.9996 12C23.9996 10.5322 23.7356 9.12608 23.2532 7.82615L11.9996 7.30438L0.745979 7.8261C0.263635 9.12608 -0.000411987 10.5322 -0.000411987 12C-0.000411987 13.4679 0.263635 14.874 0.745979 16.1739L11.9996 16.6957L23.2532 16.174C23.7356 14.874 23.9996 13.4679 23.9996 12Z" fill="#D80027"/>
<path d="M12.0003 23.9995C17.1599 23.9995 21.5584 20.743 23.2539 16.1734H0.746719C2.44224 20.743 6.84075 23.9995 12.0003 23.9995Z" fill="#6DA544"/>
<path d="M0.746719 7.82518H23.254C21.5584 3.25557 17.1599 -0.000930786 12.0003 -0.000930786C6.84075 -0.000930786 2.44224 3.25557 0.746719 7.82518Z" fill="#338AF3"/>
<path d="M12.2605 15.3911C10.3876 15.3911 8.86922 13.8727 8.86922 11.9998C8.86922 10.1268 10.3876 8.60845 12.2605 8.60845C12.8445 8.60845 13.394 8.7561 13.8737 9.01607C13.1211 8.28009 12.0919 7.82582 10.9562 7.82582C8.65097 7.82582 6.7823 9.69454 6.7823 11.9997C6.7823 14.3049 8.65102 16.1736 10.9562 16.1736C12.092 16.1736 13.1212 15.7193 13.8737 14.9834C13.394 15.2434 12.8445 15.3911 12.2605 15.3911Z" fill="#F0F0F0"/>
<path d="M14.8695 9.6508L15.3187 10.9141L16.5297 10.3384L15.954 11.5494L17.2173 11.9986L15.954 12.4479L16.5297 13.6588L15.3187 13.0831L14.8695 14.3465L14.4204 13.0831L13.2093 13.6588L13.7851 12.4479L12.5217 11.9986L13.7851 11.5494L13.2093 10.3384L14.4204 10.9141L14.8695 9.6508Z" fill="#F0F0F0"/>
</g>
<defs>
<clipPath id="clip0_1867_57432">
<rect width="24" height="24" fill="white"/>
</clipPath>
</defs>
</svg>
