<svg width="24" height="24" viewBox="0 0 24 24" fill="none" xmlns="http://www.w3.org/2000/svg">
<g clip-path="url(#clip0_1867_57452)">
<path d="M17.2172 1.19087C15.6396 0.428028 13.8697 0.000152588 11.9998 0.000152588C10.13 0.000152588 8.36009 0.428028 6.78247 1.19087L5.73898 12.0002L6.78247 22.8094C8.36009 23.5723 10.13 24.0002 11.9998 24.0002C13.8697 24.0002 15.6396 23.5723 17.2172 22.8094L18.2607 12.0002L17.2172 1.19087Z" fill="#FFDA44"/>
<path d="M6.78273 1.19128C2.76883 3.13219 0.000106812 7.24261 0.000106812 12.0001C0.000106812 16.7577 2.76883 20.8681 6.78273 22.809V1.19128Z" fill="#0052B4"/>
<path d="M17.2176 1.19171V22.8094C21.2315 20.8685 24.0002 16.7581 24.0002 12.0006C24.0002 7.24309 21.2315 3.13262 17.2176 1.19171Z" fill="#0052B4"/>
<path d="M15.6522 7.30337L16.3522 7.65334L15.6522 7.30337L14.9522 6.9534C14.91 7.03783 13.996 8.8975 13.8467 11.7382H12.7827V7.30337L12 6.25989L11.2174 7.30337V11.7382H10.1534C10.004 8.8975 9.09008 7.03783 9.04784 6.9534L7.64787 7.65339C7.65753 7.67261 8.60876 9.60878 8.60876 12.5208V13.3034H11.2175V17.7382H12.7827V13.3034H15.3913V12.5207C15.3913 11.0152 15.6518 9.77378 15.8704 8.99744C16.1087 8.15087 16.3507 7.65648 16.3531 7.65156L15.6522 7.30337Z" fill="black"/>
</g>
<defs>
<clipPath id="clip0_1867_57452">
<rect width="24" height="24" fill="white"/>
</clipPath>
</defs>
</svg>
