<svg width="24" height="24" viewBox="0 0 24 24" fill="none" xmlns="http://www.w3.org/2000/svg">
<g clip-path="url(#clip0_1867_57471)">
<path d="M16.1736 0.746543C14.8736 0.264199 13.4675 0.000152588 11.9997 0.000152588C10.5318 0.000152588 9.12576 0.264199 7.82577 0.746543L6.78229 12.0002L7.82577 23.2538C9.12576 23.7362 10.5318 24.0002 11.9997 24.0002C13.4675 24.0002 14.8736 23.7362 16.1736 23.2538L17.217 12.0002L16.1736 0.746543Z" fill="#FFDA44"/>
<path d="M23.9999 11.9993C23.9999 6.83976 20.7434 2.4412 16.1738 0.745728V23.253C20.7434 21.5574 23.9999 17.1589 23.9999 11.9993Z" fill="#D80027"/>
<path d="M-0.000396729 12C-0.000396729 17.1596 3.2561 21.5581 7.82571 23.2536V0.746429C3.2561 2.4419 -0.000396729 6.84046 -0.000396729 12Z" fill="black"/>
</g>
<defs>
<clipPath id="clip0_1867_57471">
<rect width="24" height="24" fill="white"/>
</clipPath>
</defs>
</svg>
