<svg width="24" height="24" viewBox="0 0 24 24" fill="none" xmlns="http://www.w3.org/2000/svg">
<g clip-path="url(#clip0_1867_57715)">
<path d="M24 12.0006C24 10.5328 23.736 9.12669 23.2537 7.82676L12 7.30499L0.746436 7.82671C0.264093 9.12669 4.57764e-05 10.5328 4.57764e-05 12.0006C4.57764e-05 13.4685 0.264093 14.8746 0.746436 16.1745L12 16.6963L23.2537 16.1746C23.736 14.8746 24 13.4685 24 12.0006Z" fill="#496E2D"/>
<path d="M11.9999 23.9999C17.1595 23.9999 21.558 20.7434 23.2535 16.1738H0.746292C2.44181 20.7434 6.84032 23.9999 11.9999 23.9999Z" fill="#D80027"/>
<path d="M0.746292 7.82541H23.2536C21.558 3.2558 17.1595 -0.000701904 11.9999 -0.000701904C6.84032 -0.000701904 2.44181 3.2558 0.746292 7.82541Z" fill="#F0F0F0"/>
</g>
<defs>
<clipPath id="clip0_1867_57715">
<rect width="24" height="24" fill="white"/>
</clipPath>
</defs>
</svg>
