<svg width="24" height="24" viewBox="0 0 24 24" fill="none" xmlns="http://www.w3.org/2000/svg">
<g clip-path="url(#clip0_1867_57725)">
<path d="M12 24C18.6274 24 24 18.6274 24 12C24 5.37258 18.6274 0 12 0C5.37258 0 0 5.37258 0 12C0 18.6274 5.37258 24 12 24Z" fill="#F0F0F0"/>
<path d="M19.307 2.48002C15.0108 -0.825891 8.98982 -0.825891 4.69363 2.47997L12.0003 9.78666L19.307 2.48002Z" fill="#D80027"/>
<path d="M12.0005 14.2139L4.69388 21.5205C8.99007 24.8264 15.0111 24.8264 19.3073 21.5205L12.0006 14.2138L12.0005 14.2139Z" fill="#D80027"/>
<path d="M9.7868 12.0003L2.48016 4.69359C-0.825744 8.98978 -0.825744 15.0108 2.48016 19.307L9.7868 12.0003Z" fill="#6DA544"/>
<path d="M14.2143 12.0003L21.5209 19.307C24.8268 15.0108 24.8268 8.98978 21.5209 4.69359L14.2143 12.0003Z" fill="#6DA544"/>
<path d="M12.0003 17.2178C14.8818 17.2178 17.2177 14.8819 17.2177 12.0005C17.2177 9.11899 14.8818 6.7831 12.0003 6.7831C9.11883 6.7831 6.78293 9.11899 6.78293 12.0005C6.78293 14.8819 9.11883 17.2178 12.0003 17.2178Z" fill="#F0F0F0"/>
<path d="M11.9999 8.34824L12.4517 9.13086H13.3554L12.9035 9.91344L13.3554 10.6961H12.4517L11.9999 11.4787L11.548 10.6961H10.6444L11.0962 9.91344L10.6444 9.13086H11.548L11.9999 8.34824Z" fill="#D80027"/>
<path d="M9.70352 12.001L10.1554 12.7836H11.059L10.6072 13.5662L11.059 14.3488H10.1554L9.70352 15.1314L9.25165 14.3488H8.34799L8.79982 13.5662L8.34799 12.7836H9.25165L9.70352 12.001Z" fill="#D80027"/>
<path d="M14.297 12.001L14.7489 12.7836H15.6525L15.2007 13.5662L15.6525 14.3488H14.7489L14.297 15.1314L13.8452 14.3488H12.9415L13.3933 13.5662L12.9415 12.7836H13.8452L14.297 12.001Z" fill="#D80027"/>
</g>
<defs>
<clipPath id="clip0_1867_57725">
<rect width="24" height="24" fill="white"/>
</clipPath>
</defs>
</svg>
