<svg width="24" height="24" viewBox="0 0 24 24" fill="none" xmlns="http://www.w3.org/2000/svg">
<g clip-path="url(#clip0_1867_59063)">
<path d="M12 24C18.6274 24 24 18.6274 24 12C24 5.37258 18.6274 0 12 0C5.37258 0 0 5.37258 0 12C0 18.6274 5.37258 24 12 24Z" fill="#F0F0F0"/>
<path d="M21.4265 9.65239H17.4786C17.4786 8.93203 16.8947 8.34805 16.1743 8.34805L15.1308 10.435C15.1308 10.435 16.2439 13.5654 16.2091 13.5654H17.5134C18.2338 13.5654 18.8177 12.9815 18.8177 12.2611C19.5381 12.2611 20.1221 11.6772 20.1221 10.9568H20.0786C20.799 10.9567 21.4265 10.3728 21.4265 9.65239Z" fill="#ACABB1"/>
<path d="M2.57417 9.65224H6.52199C6.52199 8.93188 7.10597 8.3479 7.82632 8.3479L8.86982 10.4348C8.86982 10.4348 7.75675 13.5653 7.79156 13.5653H6.48723C5.76682 13.5653 5.18289 12.9814 5.18289 12.261C4.46249 12.261 3.87856 11.677 3.87856 10.9566H3.922C3.20159 10.9566 2.57417 10.3726 2.57417 9.65224Z" fill="#ACABB1"/>
<path d="M16.1737 16.6957V17.2174H7.82587V16.6957H5.73892V18.7826H7.82587V19.3043H16.1737V18.7826H18.2607V16.6957H16.1737Z" fill="#FFDA44"/>
<path d="M7.82587 8.34854V13.5659C7.82587 16.7608 11.9998 17.7398 11.9998 17.7398C11.9998 17.7398 16.1736 16.7608 16.1736 13.5659V8.34854L11.9998 7.82681L7.82587 8.34854Z" fill="#0052B4"/>
<path d="M16.1736 10.4342H7.82587V13.5646H16.1736V10.4342Z" fill="#D80027"/>
<path d="M14.0867 5.73875V6.52136L13.565 6.78225L13.0433 6.26047V4.69525H10.9563V6.26047L10.4346 6.78225L9.91281 6.52136V5.73875H7.82587V8.34742H16.1737V5.73875H14.0867Z" fill="#FFDA44"/>
</g>
<defs>
<clipPath id="clip0_1867_59063">
<rect width="24" height="24" fill="white"/>
</clipPath>
</defs>
</svg>
