<svg width="24" height="24" viewBox="0 0 24 24" fill="none" xmlns="http://www.w3.org/2000/svg">
<g clip-path="url(#clip0_1867_57492)">
<path d="M24 12C24 18.6274 18.6274 24 12 24C5.37262 24 0 18.6274 0 12C0 12.0029 12 0.0013125 12 0C18.6274 0 24 5.37262 24 12Z" fill="#D80027"/>
<path d="M11.9998 5.73889V9.78622L7.82596 5.73889H11.9998Z" fill="#0052B4"/>
<path d="M6.26078 11.9996H9.78629L6.26078 7.30396L5.73906 10.9561L6.26078 11.9996Z" fill="#0052B4"/>
<path d="M11.9683 12.0012H12.0005C12.0005 11.9904 12.0005 11.9798 12.0005 11.969C11.9898 11.9797 11.9791 11.9905 11.9683 12.0012Z" fill="#F0F0F0"/>
<path d="M11.9991 6.26141C11.9991 4.14992 11.9991 2.76641 11.9991 0.000549316H11.9971C5.37052 0.00167432 -0.000930786 5.37378 -0.000930786 12.0005H6.25993V8.47503L9.78544 12.0005H11.967C11.9777 11.9899 11.9884 11.9792 11.9991 11.9684C11.9991 11.16 11.9991 10.4386 11.9991 9.78702L8.47351 6.26141H11.9991Z" fill="#F0F0F0"/>
<path d="M6.0706 1.56525C4.19377 2.63395 2.63345 4.19423 1.56479 6.07106V12.5218H4.69524V4.6958V4.6957H12.5213C12.5213 3.70837 12.5213 2.76778 12.5213 1.56525H6.0706Z" fill="#D80027"/>
<path d="M12.4763 11.0002L7.73577 6.25977H6.26015V6.25986L12.4762 12.4759H12.4763C12.4763 12.476 12.4763 11.4584 12.4763 11.0002Z" fill="#D80027"/>
<path d="M13.5652 6.25989V11.999C13.5652 14.7946 20.8696 14.7946 20.8696 11.999V6.25989H13.5652Z" fill="#F3F3F3"/>
<path d="M13.5652 12.0005V12.0005C13.5652 14.7961 17.2174 15.6527 17.2174 15.6527C17.2174 15.6527 20.8696 14.7961 20.8696 12.0005V12.0005H13.5652Z" fill="#6DA544"/>
<path d="M17.2175 9.70447L15.5218 10.4349V12.0001L17.2175 13.0436L18.9132 12.0001V10.4349L17.2175 9.70447Z" fill="#A2001D"/>
<path d="M18.9132 8.86859H15.5218V10.4338H18.9132V8.86859Z" fill="#338AF3"/>
</g>
<defs>
<clipPath id="clip0_1867_57492">
<rect width="24" height="24" fill="white"/>
</clipPath>
</defs>
</svg>
