<svg width="24" height="24" viewBox="0 0 24 24" fill="none" xmlns="http://www.w3.org/2000/svg">
<g clip-path="url(#clip0_1867_57701)">
<path d="M12.0004 23.9977C18.6269 23.9977 23.9987 18.6259 23.9987 11.9994C23.9987 5.37299 18.6269 0.00119019 12.0004 0.00119019C5.37399 0.00119019 0.00219727 5.37299 0.00219727 11.9994C0.00219727 18.6259 5.37399 23.9977 12.0004 23.9977Z" fill="#F0F0F0"/>
<path d="M1.60954 6.00125C1.06798 6.93915 0.668502 7.9197 0.402481 8.91849L20.4681 20.5035C21.2001 19.7737 21.8496 18.9373 22.391 17.9995L1.60954 6.00125Z" fill="black"/>
<path d="M17.9988 1.60923C13.1979 -1.1625 7.27844 -0.238711 3.53178 3.49693L23.5974 15.0818C24.9593 9.96943 22.7996 4.38101 17.9988 1.60923Z" fill="#FFDA44"/>
<path d="M6.00068 22.3899C10.8014 25.1617 16.7211 24.2379 20.4677 20.5023L0.401955 8.91724C-0.95984 14.0298 1.19983 19.6182 6.00068 22.3899Z" fill="#FFDA44"/>
<path d="M15.3909 10.6963C15.3909 12.569 13.8728 14.0872 12.0001 14.0872C10.1274 14.0872 8.60927 12.569 8.60927 10.6963C8.60927 10.1125 8.75688 9.56303 9.01686 9.08334C8.28104 9.83584 7.82677 10.8649 7.82677 12.0005C7.82677 14.3053 9.6952 16.1738 12.0001 16.1738C14.305 16.1738 16.1734 14.3054 16.1734 12.0005C16.1734 10.8649 15.7192 9.83584 14.9833 9.08334C15.2433 9.56312 15.3909 10.1125 15.3909 10.6963Z" fill="#D80027"/>
<path d="M12.7828 6.78357H11.2178V14.6085H12.7828V6.78357Z" fill="#D80027"/>
<path d="M14.6081 8.3483H9.39149C9.39149 8.70845 9.70524 9.00039 10.0653 9.00039H10.0436C10.0436 9.36054 10.3356 9.65248 10.6957 9.65248C10.6957 10.0126 10.9877 10.3046 11.3478 10.3046H12.6519C13.0121 10.3046 13.304 10.0126 13.304 9.65248C13.6642 9.65248 13.9561 9.36054 13.9561 9.00039H13.9344C14.2944 9.00034 14.6081 8.70849 14.6081 8.3483Z" fill="#D80027"/>
<path d="M15.6521 15.13H8.3488V16.695H15.6521V15.13Z" fill="#D80027"/>
<path d="M16.6947 15.651H13.5648V17.216H16.6947V15.651Z" fill="#D80027"/>
<path d="M10.435 15.651H7.30504V17.216H10.435V15.651Z" fill="#D80027"/>
</g>
<defs>
<clipPath id="clip0_1867_57701">
<rect width="24" height="24" fill="white"/>
</clipPath>
</defs>
</svg>
