<svg width="24" height="24" viewBox="0 0 24 24" fill="none" xmlns="http://www.w3.org/2000/svg">
<g clip-path="url(#clip0_1867_57614)">
<path d="M24 12.0006C24 10.5328 23.736 9.12669 23.2536 7.82676L12 7.30499L0.746391 7.82671C0.264 9.12669 0 10.5328 0 12.0006C0 13.4685 0.264 14.8746 0.746391 16.1745L12 16.6963L23.2536 16.1746C23.736 14.8746 24 13.4685 24 12.0006Z" fill="#FFDA44"/>
<path d="M12 23.9999C17.1595 23.9999 21.5581 20.7434 23.2536 16.1738H0.746353C2.44187 20.7434 6.84038 23.9999 12 23.9999Z" fill="#6DA544"/>
<path d="M0.746185 7.82641H23.2534C21.5579 3.25681 17.1594 0.000305176 11.9998 0.000305176C6.84022 0.000305176 2.4417 3.25681 0.746185 7.82641Z" fill="#D80027"/>
</g>
<defs>
<clipPath id="clip0_1867_57614">
<rect width="24" height="24" fill="white"/>
</clipPath>
</defs>
</svg>
