<svg width="24" height="24" viewBox="0 0 24 24" fill="none" xmlns="http://www.w3.org/2000/svg">
<g clip-path="url(#clip0_1867_57619)">
<path d="M12 24C18.6274 24 24 18.6274 24 12C24 5.37258 18.6274 0 12 0C5.37258 0 0 5.37258 0 12C0 18.6274 5.37258 24 12 24Z" fill="#F0F0F0"/>
<path d="M3.51494 3.51432C0.943141 6.08612 -0.216875 9.5349 0.0340473 12.898L12.8986 0.0334789C9.53547 -0.21749 6.08674 0.942526 3.51494 3.51432Z" fill="#FFDA44"/>
<path d="M4.28491 21.1899C8.99965 25.1565 16.0477 24.9219 20.4854 20.4843C24.923 16.0467 25.1576 8.99856 21.1909 4.28387L4.28491 21.1899Z" fill="#0052B4"/>
<path d="M11.9569 11.5167L12.991 10.9566L11.9569 10.3964C11.7155 8.82794 10.4762 7.58861 8.90771 7.34721L8.34751 6.31305L7.78735 7.34716C6.21892 7.58857 4.97963 8.82789 4.73813 10.3964L3.70398 10.9566L4.73809 11.5167C4.97954 13.0852 6.21882 14.3246 7.7873 14.566L8.34751 15.6001L8.90766 14.566C10.4762 14.3246 11.7155 13.0852 11.9569 11.5167ZM8.34755 13.0436C7.19495 13.0436 6.26059 12.1092 6.26059 10.9566C6.26059 9.80393 7.1949 8.86961 8.34755 8.86961C9.50021 8.86961 10.4345 9.80393 10.4345 10.9566C10.4345 12.1092 9.50016 13.0436 8.34755 13.0436Z" fill="black"/>
<path d="M8.34772 9.39093L8.79955 10.1735H9.70325L9.25137 10.9561L9.70325 11.7388H8.79955L8.34772 12.5213L7.89589 11.7388H6.99223L7.44406 10.9561L6.99223 10.1735H7.89589L8.34772 9.39093Z" fill="#D80027"/>
</g>
<defs>
<clipPath id="clip0_1867_57619">
<rect width="24" height="24" fill="white"/>
</clipPath>
</defs>
</svg>
