<svg width="24" height="24" viewBox="0 0 24 24" fill="none" xmlns="http://www.w3.org/2000/svg">
<g clip-path="url(#clip0_1867_58953)">
<path d="M5.23689 21.9128C7.1628 23.2293 9.49141 23.9997 12.0003 23.9997C14.5093 23.9997 16.8379 23.2293 18.7638 21.9128L12.0003 20.8693L5.23689 21.9128Z" fill="#D80027"/>
<path d="M18.7638 2.08709C16.8379 0.770606 14.5093 0.00012207 12.0003 0.00012207C9.49141 0.00012207 7.16271 0.770606 5.23689 2.08709L12.0003 3.13057L18.7638 2.08709Z" fill="#D80027"/>
<path d="M5.23689 21.9128C7.1628 23.2293 9.49141 23.9997 12.0003 23.9997C14.5093 23.9997 16.8379 23.2293 18.7638 21.9128L12.0003 20.8693L5.23689 21.9128Z" fill="#D80027"/>
<path d="M18.7638 2.08709C16.8379 0.770606 14.5093 0.00012207 12.0003 0.00012207C9.49141 0.00012207 7.16271 0.770606 5.23689 2.08709L12.0003 3.13057L18.7638 2.08709Z" fill="#D80027"/>
<path d="M23.9703 11.2165C23.686 7.51291 21.4357 3.91216 18.7643 2.08604H5.23744C2.27794 4.10922 0.27042 7.42272 0.0261078 11.2165L12.0009 11.9991L23.9703 11.2165Z" fill="#0052B4"/>
<path d="M0.0251312 12.7822C0.269444 16.576 2.27691 19.8895 5.23641 21.9126H18.7633C21.723 19.8895 23.7303 16.576 23.9746 12.7822L11.9999 11.9996L0.0251312 12.7822Z" fill="#0052B4"/>
<path d="M23.9695 11.2173H12.7827V1.56519H11.2175V11.2173H0.0253114C0.00867078 11.4761 4.57764e-05 11.737 4.57764e-05 12C4.57764e-05 12.2629 0.0086239 12.5238 0.0252645 12.7826H11.2175V22.4348H12.7827V12.7826H23.9749C23.9915 12.5238 24 12.2629 24 12C24 11.7389 23.9895 11.4779 23.9695 11.2173Z" fill="#D80027"/>
<path d="M4.69586 11.9993L12.0002 7.40823L19.3045 11.9993L12.0002 16.5903L4.69586 11.9993Z" fill="#F0F0F0"/>
<path d="M7.82591 14.0873H17.2172L15.1303 10.9568L14.0868 12.0003L13.0433 11.4786L11.9998 13.0438H9.91283L8.86935 12.0003L7.82591 14.0873Z" fill="#6DA544"/>
<path d="M12.0003 8.86894L12.2593 9.66605H13.0974L12.4194 10.1588L12.6784 10.9559L12.0003 10.4633L11.3222 10.9559L11.5812 10.1588L10.9032 9.66605H11.7413L12.0003 8.86894Z" fill="#FFDA44"/>
<path d="M12.0002 6.09656L2.60896 11.9993L12.0002 17.9021L21.3916 11.9993L12.0002 6.09656ZM5.55028 11.9993L12.0002 7.94526L18.4503 11.9993L12.0002 16.0534L5.55028 11.9993Z" fill="#D80027"/>
</g>
<defs>
<clipPath id="clip0_1867_58953">
<rect width="24" height="24" fill="white"/>
</clipPath>
</defs>
</svg>
