<svg width="24" height="24" viewBox="0 0 24 24" fill="none" xmlns="http://www.w3.org/2000/svg">
<g clip-path="url(#clip0_1867_57440)">
<path d="M12 24C18.6274 24 24 18.6274 24 12C24 5.37258 18.6274 0 12 0C5.37258 0 0 5.37258 0 12C0 18.6274 5.37258 24 12 24Z" fill="#FFDA44"/>
<path d="M7.30568 7.82518H23.2549C21.5594 3.25557 17.1609 -0.000930786 12.0013 -0.000930786C8.68756 -0.000930786 5.68789 1.34246 3.51645 3.51418L7.30568 7.82518Z" fill="#338AF3"/>
<path d="M7.30468 16.1725H23.2539C21.5584 20.7421 17.1599 23.9986 12.0003 23.9986C8.68655 23.9986 5.68688 22.6552 3.51544 20.4835L7.30468 16.1725Z" fill="#338AF3"/>
<path d="M3.51444 3.5143C-1.17184 8.20058 -1.17184 15.7986 3.51444 20.4849C5.45098 18.5484 7.31347 16.6859 11.9997 11.9996L3.51444 3.5143Z" fill="black"/>
</g>
<defs>
<clipPath id="clip0_1867_57440">
<rect width="24" height="24" fill="white"/>
</clipPath>
</defs>
</svg>
