<svg width="24" height="24" viewBox="0 0 24 24" fill="none" xmlns="http://www.w3.org/2000/svg">
<g clip-path="url(#clip0_1867_57509)">
<path d="M3.51422 20.4854C-1.17206 15.7991 -1.17206 8.20118 3.51422 3.51485C8.2005 -1.17148 15.7985 -1.17143 20.4848 3.51485C20.4848 3.51649 23.6708 14.2988 18.9845 18.9851C14.2983 23.6715 3.5175 20.4887 3.51422 20.4854Z" fill="#FFDA44"/>
<path d="M3.51466 20.4846C8.20094 25.1709 15.799 25.1709 20.4853 20.4846C25.1716 15.7983 25.1716 8.20036 20.4853 3.51404L3.51466 20.4846Z" fill="#FF9811"/>
<path d="M18.7885 6.78198V4.69501H14.7884L14.4828 5.00059C13.3958 6.08757 13.5787 7.35563 13.7122 8.28151C13.836 9.1404 13.8508 9.46941 13.5314 9.78887C13.212 10.1082 12.8829 10.0934 12.0241 9.96952C11.0982 9.83607 9.83021 9.65321 8.74323 10.7401C7.65629 11.8271 7.83924 13.0951 7.97284 14.0209C8.09673 14.8797 8.11164 15.2087 7.79232 15.528C7.47296 15.8472 7.14385 15.8324 6.28524 15.7085C5.95046 15.6601 5.60429 15.6103 5.23473 15.6061L5.21181 17.693C5.44309 17.6956 5.70742 17.7337 5.98726 17.7741C6.31857 17.8219 6.69357 17.876 7.08854 17.876C7.49785 17.876 7.92845 17.8177 8.3537 17.6341V19.3038H11.4842V17.7386H9.91895V16.6951H10.9624V15.1299H10.1284C10.168 14.6236 10.0984 14.1387 10.0384 13.723C9.91454 12.8642 9.89964 12.5352 10.2189 12.216C10.5384 11.8966 10.8673 11.9114 11.7263 12.0352C12.4009 12.1325 13.2572 12.2554 14.0929 11.8946V13.5646H17.2233V11.9994H15.6581V10.956H16.7016V9.39076H15.8677C15.9073 8.88437 15.8378 8.39954 15.7778 7.98371C15.6913 7.38366 15.6579 7.04223 15.7547 6.78202H18.7885V6.78198Z" fill="#F0F0F0"/>
</g>
<defs>
<clipPath id="clip0_1867_57509">
<rect width="24" height="24" fill="white"/>
</clipPath>
</defs>
</svg>
