<svg width="24" height="24" viewBox="0 0 24 24" fill="none" xmlns="http://www.w3.org/2000/svg">
<g clip-path="url(#clip0_1867_57633)">
<path d="M0.567067 8.34777C0.199474 9.49944 0.000395638 10.7263 0.000442513 11.9999C0.000395638 13.2735 0.199474 14.5004 0.567114 15.6521L12.0004 16.1739L23.4337 15.6521C23.8013 14.5004 24.0004 13.2734 24.0004 12C24.0004 10.7264 23.8013 9.49944 23.4337 8.34777L12.0004 7.82605L0.567067 8.34777Z" fill="#F0F0F0"/>
<path d="M24.0003 12.0005C24.0003 11.2886 23.938 10.5913 23.8191 9.91351H0.181648C0.0626794 10.5913 0.000335693 11.2885 0.000335693 12.0005C0.000335693 12.7124 0.0627263 13.4096 0.181648 14.0874H23.8191C23.9379 13.4096 24.0003 12.7124 24.0003 12.0005Z" fill="black"/>
<path d="M11.9998 23.9997C17.3537 23.9997 21.8879 20.4933 23.4331 15.6518H0.566513C2.11175 20.4932 6.64601 23.9996 11.9998 23.9997Z" fill="#338AF3"/>
<path d="M12.0003 -0.00061035C6.64652 -0.00061035 2.1123 3.50578 0.566971 8.34712L23.4335 8.34717C21.8884 3.50578 17.3541 -0.0007041 12.0003 -0.00061035Z" fill="#338AF3"/>
</g>
<defs>
<clipPath id="clip0_1867_57633">
<rect width="24" height="24" fill="white"/>
</clipPath>
</defs>
</svg>
