<svg width="24" height="24" viewBox="0 0 24 24" fill="none" xmlns="http://www.w3.org/2000/svg">
<g clip-path="url(#clip0_1867_57459)">
<path d="M12 24C18.6274 24 24 18.6274 24 12C24 5.37258 18.6274 0 12 0C5.37258 0 0 5.37258 0 12C0 18.6274 5.37258 24 12 24Z" fill="#FCFCFC"/>
<path d="M4.95669 11.1289L3.65234 8.76249L4.95669 6.43323L6.26103 8.76249L4.95669 11.1289Z" fill="#A2001D"/>
<path d="M2.34777 11.1289L1.04343 8.76249L2.34777 6.43323L3.65211 8.76249L2.34777 11.1289Z" fill="#A2001D"/>
<path d="M4.95669 17.5644L3.65234 15.198L4.95669 12.8687L6.26103 15.198L4.95669 17.5644Z" fill="#A2001D"/>
<path d="M2.34777 17.5644L1.04343 15.198L2.34777 12.8687L3.65211 15.198L2.34777 17.5644Z" fill="#A2001D"/>
<path d="M6.26053 2.32878L5.89125 1.66934C5.2289 2.06178 4.60767 2.51614 4.03528 3.02445L4.95619 4.69513L6.26053 2.32878Z" fill="#A2001D"/>
<path d="M4.95617 19.3042L4.02551 20.9662C4.59739 21.4752 5.2182 21.9302 5.88026 22.3235L6.26056 21.6335L4.95617 19.3042Z" fill="#A2001D"/>
<path d="M7.3042 15.1307V23.0461C8.7465 23.6601 10.3334 24.0002 11.9999 24.0002C17.1594 24.0002 21.5579 20.7437 23.2535 16.1741L7.3042 15.1307Z" fill="#6DA544"/>
<path d="M23.2535 16.174C23.7359 14.8741 23.9999 13.468 23.9999 12.0002C23.9999 5.37278 18.6272 0.000152588 11.9999 0.000152588C10.3335 0.000152588 8.7465 0.340137 7.3042 0.953965V16.1741H23.2535V16.174Z" fill="#A2001D"/>
</g>
<defs>
<clipPath id="clip0_1867_57459">
<rect width="24" height="24" fill="white"/>
</clipPath>
</defs>
</svg>
