<svg width="24" height="24" viewBox="0 0 24 24" fill="none" xmlns="http://www.w3.org/2000/svg">
<g clip-path="url(#clip0_1867_57476)">
<path d="M23.9996 12C23.9996 7.88156 21.9245 4.24814 18.763 2.08701L11.9996 1.56525L5.23613 2.08697C2.07474 4.24814 -0.000411987 7.88161 -0.000411987 12C-0.000411987 16.1186 2.07474 19.752 5.23613 21.9131L11.9996 22.4348L18.763 21.9131C21.9245 19.752 23.9996 16.1186 23.9996 12Z" fill="#0052B4"/>
<path d="M18.764 2.08712C16.8381 0.77059 14.5094 0.000152588 12.0005 0.000152588C9.49161 0.000152588 7.1629 0.77059 5.23705 2.08712H18.764Z" fill="#A2001D"/>
<path d="M5.23631 21.9133C7.16213 23.2299 9.49088 24.0003 11.9998 24.0003C14.5087 24.0003 16.8374 23.2299 18.7632 21.9133H5.23631Z" fill="#A2001D"/>
<path d="M12.0004 17.7382C15.17 17.7382 17.7396 15.1687 17.7396 11.999C17.7396 8.82939 15.17 6.25989 12.0004 6.25989C8.83076 6.25989 6.26126 8.82939 6.26126 11.999C6.26126 15.1687 8.83076 17.7382 12.0004 17.7382Z" fill="#F0F0F0"/>
<path d="M11.9999 16.6954C14.5932 16.6954 16.6955 14.5931 16.6955 11.9998C16.6955 9.40643 14.5932 7.30411 11.9999 7.30411C9.40653 7.30411 7.30421 9.40643 7.30421 11.9998C7.30421 14.5931 9.40653 16.6954 11.9999 16.6954Z" fill="#6DA544"/>
<path d="M11.9997 15.1295C13.7286 15.1295 15.1301 13.7279 15.1301 11.999C15.1301 10.2701 13.7286 8.86859 11.9997 8.86859C10.2708 8.86859 8.8692 10.2701 8.8692 11.999C8.8692 13.7279 10.2708 15.1295 11.9997 15.1295Z" fill="#F0F0F0"/>
<path d="M11.9995 11.2171L10.3039 11.9997V13.3041L11.9995 14.3476L13.6952 13.3041V11.9997L11.9995 11.2171Z" fill="#0052B4"/>
<path d="M13.6952 10.4358H10.3039V12.001H13.6952V10.4358Z" fill="#FFDA44"/>
</g>
<defs>
<clipPath id="clip0_1867_57476">
<rect width="24" height="24" fill="white"/>
</clipPath>
</defs>
</svg>
