<svg width="24" height="24" viewBox="0 0 24 24" fill="none" xmlns="http://www.w3.org/2000/svg">
<g clip-path="url(#clip0_1867_57828)">
<path d="M12 24C18.6274 24 24 18.6274 24 12C24 5.37258 18.6274 0 12 0C5.37258 0 0 5.37258 0 12C0 18.6274 5.37258 24 12 24Z" fill="#6DA544"/>
<path d="M18.4212 17.2178L18.7505 17.9063L19.4942 17.7345L19.1612 18.4212L19.7591 18.8954L19.0146 19.0632L19.0167 19.8265L18.4212 19.349L17.8258 19.8265L17.8279 19.0632L17.0834 18.8954L17.6814 18.4212L17.3484 17.7345L18.092 17.9063L18.4212 17.2178Z" fill="#FFDA44"/>
<path d="M15.3579 9.91226L15.6872 10.6008L16.4308 10.4289L16.0978 11.1157L16.6958 11.5899L15.9513 11.7577L15.9533 12.5209L15.3579 12.0435L14.7625 12.5209L14.7645 11.7577L14.02 11.5899L14.618 11.1157L14.285 10.4289L15.0286 10.6008L15.3579 9.91226Z" fill="#FFDA44"/>
<path d="M18.4213 5.73825L18.7506 6.4268L19.4942 6.25486L19.1613 6.94167L19.7592 7.41591L19.0146 7.58367L19.0167 8.34694L18.4213 7.86942L17.8259 8.34694L17.828 7.58367L17.0835 7.41591L17.6814 6.94167L17.3484 6.25486L18.092 6.4268L18.4213 5.73825Z" fill="#FFDA44"/>
<path d="M21.0972 8.87018L21.4265 9.55872L22.1701 9.38683L21.8371 10.0736L22.4351 10.5478L21.6906 10.7156L21.6926 11.4789L21.0972 11.0014L20.5018 11.4789L20.5038 10.7156L19.7593 10.5478L20.3573 10.0736L20.0242 9.38683L20.7679 9.55872L21.0972 8.87018Z" fill="#FFDA44"/>
<path d="M19.1841 12.5211L19.4432 13.3184H20.2814L19.6032 13.811L19.8623 14.6081L19.1841 14.1155L18.5061 14.6081L18.765 13.811L18.0869 13.3184H18.9251L19.1841 12.5211Z" fill="#FFDA44"/>
<path d="M13.3045 15.3914C11.4315 15.3914 9.91317 13.873 9.91317 12.0001C9.91317 10.1271 11.4315 8.60877 13.3045 8.60877C13.8885 8.60877 14.438 8.75647 14.9177 9.01639C14.1652 8.28036 13.136 7.82614 12.0001 7.82614C9.69497 7.82614 7.82625 9.69486 7.82625 12C7.82625 14.3052 9.69497 16.1739 12.0001 16.1739C13.136 16.1739 14.1652 15.7197 14.9177 14.9837C14.438 15.2437 13.8885 15.3914 13.3045 15.3914Z" fill="#FFDA44"/>
<path d="M7.54688 4.69549C7.18595 4.07187 6.51212 3.65201 5.7398 3.65201C4.96749 3.65201 4.29366 4.07187 3.93272 4.69549H7.54688Z" fill="#FFDA44"/>
<path d="M7.55319 4.70746L5.73917 6.52147L3.92516 4.70746C3.75177 5.01172 3.65225 5.36361 3.65225 5.73889C3.65225 6.8915 4.58661 7.82586 5.73922 7.82586C6.89183 7.82586 7.82619 6.89155 7.82619 5.73889C7.82614 5.36361 7.72658 5.01172 7.55319 4.70746Z" fill="#FFDA44"/>
<path d="M5.21735 6.00052V7.76086C5.38408 7.80375 5.55893 7.82658 5.73907 7.82658C5.91921 7.82658 6.09405 7.8037 6.26079 7.76086V6.00052H5.21735Z" fill="#A2001D"/>
</g>
<defs>
<clipPath id="clip0_1867_57828">
<rect width="24" height="24" fill="white"/>
</clipPath>
</defs>
</svg>
