<svg width="24" height="24" viewBox="0 0 24 24" fill="none" xmlns="http://www.w3.org/2000/svg">
<g clip-path="url(#clip0_1867_57940)">
<path d="M22.6672 6.49839C22.1127 5.42406 21.3859 4.41569 20.4854 3.51513C19.5848 2.61452 18.5763 1.88772 17.502 1.33328L9.04819 9.04919L1.33224 17.503C1.88672 18.5774 2.61352 19.5858 3.51408 20.4864C4.41464 21.3869 5.42306 22.1137 6.49735 22.6682L14.9512 14.9523L22.6672 6.49839Z" fill="#FFDA44"/>
<path d="M3.51462 20.4855C4.01801 20.9888 4.55515 21.4378 5.11854 21.8331L21.8334 5.11814C21.4382 4.55475 20.9892 4.01761 20.4858 3.51422C19.9824 3.01083 19.4453 2.56191 18.8819 2.16666L2.16705 18.8815C2.56226 19.4448 3.01118 19.9821 3.51462 20.4855Z" fill="#D80027"/>
<path d="M3.5143 3.5144C-0.271656 7.30035 -0.998453 12.9862 1.33245 17.5024L17.5023 1.3326C12.986 -0.998256 7.3002 -0.271365 3.5143 3.5144Z" fill="#338AF3"/>
<path d="M20.4855 20.4851C24.2714 16.6992 24.9982 11.0134 22.6674 6.49719L6.49757 22.667C11.0137 24.9978 16.6996 24.2711 20.4855 20.4851Z" fill="#338AF3"/>
<path d="M6.39518 3.65115L7.04271 5.64414H9.13821L7.44293 6.87583L8.09046 8.86876L6.39518 7.63703L4.6998 8.86876L5.34743 6.87583L3.65205 5.64414H5.74755L6.39518 3.65115Z" fill="#FFDA44"/>
</g>
<defs>
<clipPath id="clip0_1867_57940">
<rect width="24" height="24" fill="white"/>
</clipPath>
</defs>
</svg>
