<svg width="24" height="24" viewBox="0 0 24 24" fill="none" xmlns="http://www.w3.org/2000/svg">
<g clip-path="url(#clip0_1867_57779)">
<path d="M12 24C18.6274 24 24 18.6274 24 12C24 5.37258 18.6274 0 12 0C5.37258 0 0 5.37258 0 12C0 18.6274 5.37258 24 12 24Z" fill="#F0F0F0"/>
<path d="M22.5405 6.26031C20.9899 3.41833 18.3235 1.2729 15.1301 0.412186L14.6083 6.26031H22.5405Z" fill="#0052B4"/>
<path d="M1.45898 6.26051H9.39117L8.86945 0.412384C5.676 1.2731 3.00966 3.41857 1.45898 6.26051Z" fill="#0052B4"/>
<path d="M14.6084 12.0017V17.7408H22.5405C23.4708 16.0359 23.9997 14.0806 23.9997 12.0017H14.6084Z" fill="#6DA544"/>
<path d="M9.39124 12.0007H-7.62939e-05C-7.62939e-05 14.0796 0.528814 16.035 1.459 17.7399H9.39119V12.0007H9.39124Z" fill="#6DA544"/>
<path d="M1.45908 17.7396C3.00975 20.5816 5.67609 22.727 8.86954 23.5877L9.39126 18.4732L1.45908 17.7396Z" fill="#FFDA44"/>
<path d="M15.13 23.5883C18.3235 22.7276 20.9899 20.5822 22.5405 17.7402L14.6083 18.4738L15.13 23.5883Z" fill="#FFDA44"/>
<path d="M14.6083 18.4737L22.5406 17.7402H14.6083V18.4737Z" fill="#FFDA44"/>
<path d="M9.39131 17.7396H1.45908L9.39131 18.4732V17.7396Z" fill="#FFDA44"/>
<path d="M12.0001 0.00038147C10.917 0.00038147 9.8678 0.144756 8.86964 0.413772V23.587C9.8678 23.856 10.917 24.0004 12.0001 24.0004C13.0832 24.0004 14.1324 23.856 15.1305 23.587V0.413772C14.1324 0.144756 13.0832 0.00038147 12.0001 0.00038147Z" fill="#D80027"/>
<path d="M6.45424 2.60912L6.77796 3.60554H7.82576L6.97817 4.22138L7.30193 5.2178L6.45424 4.60201L5.6066 5.2178L5.93046 4.22138L5.08287 3.60554H6.13057L6.45424 2.60912Z" fill="#FFDA44"/>
</g>
<defs>
<clipPath id="clip0_1867_57779">
<rect width="24" height="24" fill="white"/>
</clipPath>
</defs>
</svg>
