<svg width="24" height="24" viewBox="0 0 24 24" fill="none" xmlns="http://www.w3.org/2000/svg">
<g clip-path="url(#clip0_1867_57859)">
<path d="M24 12C24 18.6274 18.6274 24 12 24C5.37262 24 0 18.6274 0 12C0 12.0029 12 0.0013125 12 0C18.6274 0 24 5.37262 24 12Z" fill="#0052B4"/>
<path d="M11.9679 12.001H12C12 11.9902 12 11.9797 12 11.9689C11.9893 11.9796 11.9786 11.9903 11.9679 12.001Z" fill="#F0F0F0"/>
<path d="M11.9997 6.2619C11.9997 4.15041 11.9997 2.7669 11.9997 0.0010376H11.9977C5.37121 0.0021626 -0.000244141 5.37427 -0.000244141 12.001H6.26061V8.47552L9.78613 12.001H11.9677C11.9784 11.9903 11.9891 11.9797 11.9998 11.9689C11.9998 11.1605 11.9998 10.4391 11.9998 9.78751L8.47419 6.2619H11.9997Z" fill="#F0F0F0"/>
<path d="M6.07132 1.56451C4.19449 2.63322 2.63416 4.1935 1.56551 6.07033V11.9993H4.69596V4.69506V4.69497H12.0003C12.0003 3.70764 12.0003 2.76705 12.0003 1.56451H6.07132Z" fill="#D80027"/>
<path d="M12 10.5235L7.73652 6.26007H6.26089V6.26016L11.9999 11.9992H12C12 11.9992 12 10.9817 12 10.5235Z" fill="#D80027"/>
<path d="M16.1738 12L16.3959 12.6833H17.1142L16.5331 13.1055L16.7551 13.7888L16.1738 13.3665L15.5926 13.7888L15.8146 13.1055L15.2334 12.6833H15.9518L16.1738 12Z" fill="#F0F0F0"/>
<path d="M13.2225 13.223L13.8626 13.5491L14.3706 13.0411L14.2582 13.7507L14.8983 14.0769L14.1887 14.1892L14.0764 14.8989L13.7502 14.2587L13.0406 14.3711L13.5487 13.8631L13.2225 13.223Z" fill="#F0F0F0"/>
<path d="M11.9995 16.1731L12.6828 15.9511L12.6829 15.2328L13.105 15.8139L13.7883 15.5918L13.366 16.1731L13.7883 16.7544L13.105 16.5324L12.6829 17.1135V16.3952L11.9995 16.1731Z" fill="#F0F0F0"/>
<path d="M13.2225 19.1254L13.5486 18.4853L13.0406 17.9774L13.7502 18.0897L14.0764 17.4496L14.1887 18.1592L14.8983 18.2715L14.2582 18.5977L14.3706 19.3073L13.8626 18.7992L13.2225 19.1254Z" fill="#F0F0F0"/>
<path d="M16.1737 20.3481L15.9517 19.6648H15.2333L15.8145 19.2426L15.5925 18.5593L16.1737 18.9816L16.755 18.5593L16.533 19.2426L17.1142 19.6648H16.3958L16.1737 20.3481Z" fill="#F0F0F0"/>
<path d="M19.1248 19.1254L18.4847 18.7994L17.9768 19.3073L18.0891 18.5977L17.449 18.2716L18.1586 18.1592L18.271 17.4496L18.5971 18.0897L19.3067 17.9774L18.7986 18.4853L19.1248 19.1254Z" fill="#F0F0F0"/>
<path d="M20.3478 16.1731L19.6645 16.3952V17.1135L19.2422 16.5323L18.559 16.7544L18.9813 16.1731L18.559 15.5918L19.2422 15.8139L19.6645 15.2328V15.9511L20.3478 16.1731Z" fill="#F0F0F0"/>
<path d="M19.1248 13.223L18.7988 13.8631L19.3067 14.3711L18.5971 14.2587L18.271 14.8988L18.1586 14.1892L17.449 14.0768L18.0891 13.7507L17.9768 13.0411L18.4847 13.5491L19.1248 13.223Z" fill="#F0F0F0"/>
</g>
<defs>
<clipPath id="clip0_1867_57859">
<rect width="24" height="24" fill="white"/>
</clipPath>
</defs>
</svg>
