<svg width="24" height="24" viewBox="0 0 24 24" fill="none" xmlns="http://www.w3.org/2000/svg">
<g clip-path="url(#clip0_1867_57800)">
<path d="M12 24C18.6274 24 24 18.6274 24 12C24 5.37258 18.6274 0 12 0C5.37258 0 0 5.37258 0 12C0 18.6274 5.37258 24 12 24Z" fill="#F0F0F0"/>
<path d="M24.0001 12.0003C24.0001 18.6277 18.6275 24.0003 12.0001 24.0003C5.37273 24.0003 0.000106812 18.6277 0.000106812 12.0003C0.000106812 5.3729 12.0001 12.0003 12.0001 12.0003C12.0001 12.0003 21.0827 12.0003 24.0001 12.0003Z" fill="#D80027"/>
<path d="M0 12C0 5.37262 5.37262 0 12 0C12 4.56352 12 12 12 12C12 12 4.17389 12 0 12Z" fill="#0052B4"/>
<path d="M7.14282 4.17345L7.91987 6.56492H10.4344L8.4001 8.04288L9.1771 10.4344L7.14282 8.95634L5.10854 10.4344L5.88554 8.04288L3.85126 6.56492H6.36577L7.14282 4.17345Z" fill="#F0F0F0"/>
</g>
<defs>
<clipPath id="clip0_1867_57800">
<rect width="24" height="24" fill="white"/>
</clipPath>
</defs>
</svg>
