<svg width="24" height="24" viewBox="0 0 24 24" fill="none" xmlns="http://www.w3.org/2000/svg">
<g clip-path="url(#clip0_1867_57746)">
<path d="M17.2173 1.19111C15.6397 0.428264 13.8698 0.000389099 12 0.000389099C10.1301 0.000389099 8.36023 0.428264 6.7826 1.19111L5.73912 12.0004L6.7826 22.8097C8.36023 23.5725 10.1301 24.0004 12 24.0004C13.8698 24.0004 15.6397 23.5725 17.2173 22.8097L18.2608 12.0004L17.2173 1.19111Z" fill="#D80027"/>
<path d="M12.0002 7.82538L13.0361 11.0138H16.389L13.6766 12.9846L14.7126 16.1732L12.0002 14.2025L9.28775 16.1732L10.3239 12.9846L7.61154 11.0138H10.9642L12.0002 7.82538Z" fill="#FFDA44"/>
<path d="M6.78296 1.1917C2.76905 3.13261 0.000335693 7.24303 0.000335693 12.0006C0.000335693 16.7581 2.76905 20.8685 6.78296 22.8094V1.1917Z" fill="#496E2D"/>
<path d="M17.2177 1.1917V22.8094C21.2316 20.8685 24.0004 16.758 24.0004 12.0006C24.0004 7.24308 21.2316 3.13261 17.2177 1.1917Z" fill="#FFDA44"/>
</g>
<defs>
<clipPath id="clip0_1867_57746">
<rect width="24" height="24" fill="white"/>
</clipPath>
</defs>
</svg>
