<svg width="24" height="24" viewBox="0 0 24 24" fill="none" xmlns="http://www.w3.org/2000/svg">
<g clip-path="url(#clip0_1867_57878)">
<path d="M12 24C18.6274 24 24 18.6274 24 12C24 5.37258 18.6274 0 12 0C5.37258 0 0 5.37258 0 12C0 18.6274 5.37258 24 12 24Z" fill="#F0F0F0"/>
<path d="M23.2536 7.82623H0.746375C0.264032 9.12622 -1.52588e-05 10.5323 -1.52588e-05 12.0001C-1.52588e-05 13.468 0.264032 14.874 0.746375 16.174H23.2536C23.736 14.874 24 13.468 24 12.0001C24 10.5323 23.736 9.12622 23.2536 7.82623Z" fill="#D80027"/>
<path d="M12.0011 -0.000549316C8.36398 -0.000549316 5.10509 1.61776 2.90445 4.17334H21.0976C18.897 1.61776 15.6381 -0.000549316 12.0011 -0.000549316Z" fill="#0052B4"/>
<path d="M21.0963 19.826H2.90303C5.10367 22.3816 8.36256 23.9999 11.9996 23.9999C15.6367 23.9999 18.8956 22.3816 21.0963 19.826Z" fill="#0052B4"/>
</g>
<defs>
<clipPath id="clip0_1867_57878">
<rect width="24" height="24" fill="white"/>
</clipPath>
</defs>
</svg>
