<svg width="24" height="24" viewBox="0 0 24 24" fill="none" xmlns="http://www.w3.org/2000/svg">
<g clip-path="url(#clip0_1867_57911)">
<path d="M0.000161316 2.08685H0.000114441V21.9129H0.000161316V11.9999V2.08685Z" fill="#FF9811"/>
<path d="M12 24.0001C18.6274 24.0001 24 18.6275 24 12.0001C24 5.37274 18.6274 0.000183105 12 0.000183105C5.37262 0.000183105 6.10352e-05 5.37274 6.10352e-05 12.0001C6.10352e-05 18.6275 5.37262 24.0001 12 24.0001Z" fill="#F0F0F0"/>
<path d="M11.9996 0.000244141C8.0737 0.000244141 4.58835 1.8857 2.39906 4.80024H21.6C19.4108 1.88565 15.9254 0.000244141 11.9996 0.000244141Z" fill="#0052B4"/>
<path d="M11.9996 24.0002C15.9254 24.0002 19.4108 22.1147 21.6001 19.2002H2.39906C4.58831 22.1148 8.0737 24.0002 11.9996 24.0002Z" fill="#0052B4"/>
<path d="M3.8147e-05 12.0002C3.8147e-05 12.8222 0.0829131 13.6248 0.240366 14.4002H23.7597C23.9172 13.6248 24 12.8222 24 12.0002C24 11.1783 23.9171 10.3757 23.7597 9.60022H0.240366C0.0829131 10.3757 3.8147e-05 11.1783 3.8147e-05 12.0002Z" fill="#0052B4"/>
<path d="M3.51479 3.51459C-1.17144 8.20082 -1.17144 15.7988 3.51479 20.4852C5.45134 18.5486 7.31377 16.6861 12.0001 11.9999L3.51479 3.51459Z" fill="#D80027"/>
<path d="M4.85661 8.86957L5.63352 11.2609H8.14817L6.11394 12.739L6.89084 15.1303L4.85661 13.6524L2.82228 15.1303L3.59938 12.739L1.56509 11.2609H4.07956L4.85661 8.86957Z" fill="#F0F0F0"/>
</g>
<defs>
<clipPath id="clip0_1867_57911">
<rect width="24" height="24" fill="white"/>
</clipPath>
</defs>
</svg>
