<svg width="24" height="24" viewBox="0 0 24 24" fill="none" xmlns="http://www.w3.org/2000/svg">
<g clip-path="url(#clip0_1867_57815)">
<path d="M20.4857 20.4857C15.7994 25.172 8.20138 25.172 3.51506 20.4857C-1.17126 15.7995 -1.17122 8.20146 3.51506 3.51514C3.88396 3.884 13.1071 10.8936 13.1071 10.8936L20.4857 20.4857Z" fill="#0052B4"/>
<path d="M3.51508 3.51422C8.20135 -1.17206 15.7994 -1.17206 20.4857 3.51422C25.172 8.20049 25.172 15.7985 20.4857 20.4848" fill="#6DA544"/>
<path d="M12.0004 15.131C13.7293 15.131 15.1308 13.7294 15.1308 12.0005C15.1308 10.2716 13.7293 8.87009 12.0004 8.87009C10.2715 8.87009 8.86993 10.2716 8.86993 12.0005C8.86993 13.7294 10.2715 15.131 12.0004 15.131Z" fill="#FFDA44"/>
<path d="M4.46832 17.2175L4.79762 17.9061L5.5412 17.7342L5.2082 18.4209L5.80623 18.8952L5.06166 19.0629L5.06373 19.8262L4.46832 19.3487L3.87292 19.8262L3.87498 19.0629L3.13042 18.8952L3.72845 18.4209L3.3954 17.7342L4.13903 17.9061L4.46832 17.2175Z" fill="#F0F0F0"/>
<path d="M2.31437 11.4769L2.64367 12.1654L3.38725 11.9935L3.05429 12.6803L3.65223 13.1546L2.90772 13.3223L2.90978 14.0856L2.31437 13.6081L1.71902 14.0856L1.72103 13.3223L0.976517 13.1546L1.5745 12.6803L1.2415 11.9935L1.98508 12.1654L2.31437 11.4769Z" fill="#F0F0F0"/>
<path d="M4.46827 6.78189L4.79757 7.47044L5.54115 7.2985L5.20819 7.98531L5.80618 8.45954L5.06162 8.62731L5.06368 9.39057L4.46827 8.91311L3.87287 9.39057L3.87493 8.62731L3.13042 8.45954L3.72835 7.98531L3.39535 7.2985L4.13898 7.47044L4.46827 6.78189Z" fill="#F0F0F0"/>
<path d="M7.14419 10.4346L7.47349 11.1232L8.21711 10.9512L7.88407 11.6381L8.48205 12.1123L7.73754 12.2801L7.73955 13.0433L7.14419 12.5658L6.54879 13.0433L6.55085 12.2801L5.80634 12.1123L6.40427 11.6381L6.07132 10.9512L6.8149 11.1232L7.14419 10.4346Z" fill="#F0F0F0"/>
<path d="M5.23122 13.5646L5.49025 14.3617H6.32837L5.65028 14.8544L5.90931 15.6515L5.23122 15.1589L4.55313 15.6515L4.81216 14.8544L4.13406 14.3617H4.97219L5.23122 13.5646Z" fill="#F0F0F0"/>
<path d="M12 14.0871H13.0434C13.0434 14.0871 13.4956 13.2872 13.0434 12.5219L14.0869 11.4785L13.5652 10.435H13.0435C13.0435 10.435 12.7826 11.2176 11.7391 11.2176C10.6957 11.2176 10.4348 10.435 10.4348 10.435H9.91309L10.4348 11.4785L9.91309 12.5219L10.4348 13.0437C10.4348 13.0437 10.9565 12.0002 12 12.5219C12 12.5219 12.4434 13.1741 12 14.0871Z" fill="#6DA544"/>
<path d="M19.7889 6.57255C19.8135 6.44434 19.8266 6.31211 19.8266 6.17674C19.8266 5.24861 19.2206 4.46247 18.3828 4.19125C18.6388 4.71157 18.7831 5.29675 18.7831 5.91588C18.7831 6.12466 18.7663 6.3295 18.7348 6.52942C18.6087 6.32631 18.4467 6.14073 18.2489 5.98328C17.5035 5.39022 16.4849 5.37452 15.7319 5.87397C16.3133 6.00091 16.8754 6.25895 17.3726 6.65453C17.7619 6.96428 18.0764 7.38325 18.3172 7.78769L15.1309 8.78542C18.2614 9.30714 20.87 7.22022 20.87 7.22022C20.581 6.64216 20.1321 6.54466 19.7889 6.57255Z" fill="#FFDA44"/>
</g>
<defs>
<clipPath id="clip0_1867_57815">
<rect width="24" height="24" fill="white"/>
</clipPath>
</defs>
</svg>
