<svg width="24" height="24" viewBox="0 0 24 24" fill="none" xmlns="http://www.w3.org/2000/svg">
<g clip-path="url(#clip0_1867_57930)">
<path d="M12 24C18.6274 24 24 18.6274 24 12C24 5.37258 18.6274 0 12 0C5.37258 0 0 5.37258 0 12C0 18.6274 5.37258 24 12 24Z" fill="#FCFCFC"/>
<path d="M18.7825 10.4344C18.4173 10.4344 17.9651 10.4344 17.2173 10.4344C17.2173 13.316 14.8814 15.6518 12 15.6518C9.11842 15.6518 6.7826 13.316 6.7826 10.4344C6.27822 10.4344 5.72167 10.4344 5.21739 10.4344C5.21739 13.5383 7.3022 16.1552 10.148 16.9611C9.83599 17.5538 9.88352 18.3 10.3292 18.8562C10.9146 18.387 11.5206 17.9013 12.0348 17.4894C12.5489 17.9014 13.155 18.387 13.7403 18.8562C14.1904 18.2945 14.2347 17.5388 13.9123 16.9432C16.7269 16.1175 18.7825 13.5162 18.7825 10.4344Z" fill="#6DA544"/>
<path d="M7.82621 9.91286C7.82621 9.91286 7.82621 12.5215 10.4349 12.5215L10.9566 13.0433H12.0001C12.0001 13.0433 12.5218 11.4781 13.5653 11.4781C13.5653 11.4781 13.5653 10.4346 14.6088 10.4346C15.6523 10.4346 16.174 10.4346 16.174 10.4346C16.174 10.4346 15.6523 8.34761 18.261 6.7824L17.2175 6.26068C17.2175 6.26068 13.5653 8.86937 10.9566 8.34765V9.39114H9.91313L9.39141 8.86942L7.82621 9.91286Z" fill="#FFDA44"/>
</g>
<defs>
<clipPath id="clip0_1867_57930">
<rect width="24" height="24" fill="white"/>
</clipPath>
</defs>
</svg>
