<svg width="24" height="24" viewBox="0 0 24 24" fill="none" xmlns="http://www.w3.org/2000/svg">
<g clip-path="url(#clip0_1867_58127)">
<path d="M0.7463 16.1749C2.44182 20.7445 6.84033 24.001 11.9999 24.001C17.1595 24.001 21.558 20.7445 23.2535 16.1749L11.9999 15.1315L0.7463 16.1749Z" fill="#FFDA44"/>
<path d="M11.9999 0.000793457C6.84033 0.000793457 2.44182 3.25729 0.7463 7.8269L11.9999 8.87034L23.2535 7.82686C21.558 3.25729 17.1595 0.000793457 11.9999 0.000793457Z" fill="black"/>
<path d="M0.746436 7.82574C0.264093 9.12573 4.57764e-05 10.5318 4.57764e-05 11.9996C4.57764e-05 13.4675 0.264093 14.8735 0.746436 16.1735H23.2537C23.736 14.8735 24 13.4675 24 11.9996C24 10.5318 23.736 9.12573 23.2537 7.82574H0.746436Z" fill="#D80027"/>
</g>
<defs>
<clipPath id="clip0_1867_58127">
<rect width="24" height="24" fill="white"/>
</clipPath>
</defs>
</svg>
