<svg width="24" height="24" viewBox="0 0 24 24" fill="none" xmlns="http://www.w3.org/2000/svg">
<g clip-path="url(#clip0_1867_57956)">
<path d="M10.9563 13.044C10.9563 13.044 3.52149 3.5136 3.51446 3.51528C5.68599 1.34371 8.68604 0.000549316 11.9998 0.000549316C18.6271 0.000549316 23.9998 5.37318 23.9998 12.0006L10.9563 13.044Z" fill="#338AF3"/>
<path d="M10.9563 11.9993C10.9563 11.9993 3.52149 20.4863 3.51446 20.4846C5.68599 22.6562 8.68604 23.9993 11.9998 23.9993C18.6271 23.9993 23.9998 18.6267 23.9998 11.9993H10.9563Z" fill="#6DA544"/>
<path d="M3.51443 3.51462C-1.17185 8.2009 -1.17185 15.7989 3.51443 20.4852C5.45097 18.5487 7.31346 16.6862 11.9997 11.9999L3.51443 3.51462Z" fill="#F0F0F0"/>
<path d="M4.85631 8.86938L5.63327 11.2608H8.14792L6.11364 12.7388L6.89055 15.1303L4.85631 13.6523L2.82198 15.1303L3.59908 12.7388L1.5648 11.2608H4.07926L4.85631 8.86938Z" fill="#D80027"/>
</g>
<defs>
<clipPath id="clip0_1867_57956">
<rect width="24" height="24" fill="white"/>
</clipPath>
</defs>
</svg>
