<svg width="24" height="24" viewBox="0 0 24 24" fill="none" xmlns="http://www.w3.org/2000/svg">
<g clip-path="url(#clip0_1867_57962)">
<path d="M12 24C18.6274 24 24 18.6274 24 12C24 5.37258 18.6274 0 12 0C5.37258 0 0 5.37258 0 12C0 18.6274 5.37258 24 12 24Z" fill="#F0F0F0"/>
<path d="M14.3481 23.7694C19.092 22.8283 22.8289 19.0913 23.77 14.3475H14.3481V23.7694Z" fill="#496E2D"/>
<path d="M0.230148 14.3475C1.17116 19.0913 4.90813 22.8283 9.65202 23.7694V14.3475H0.230148Z" fill="#496E2D"/>
<path d="M23.77 9.65228C22.8289 4.90844 19.092 1.17147 14.3481 0.230408V9.65228H23.77Z" fill="#496E2D"/>
<path d="M9.65242 0.230469C4.90853 1.17153 1.17156 4.9085 0.230545 9.65234H9.65242V0.230469Z" fill="#496E2D"/>
<path d="M11.2171 14.3482H9.65188V23.77C10.1627 23.8713 10.6852 23.94 11.2171 23.9742V14.3482Z" fill="#FFDA44"/>
<path d="M11.2176 9.65277V0.0267029C10.6857 0.0609216 10.1631 0.129594 9.6524 0.23089V9.65277H11.2176Z" fill="#FFDA44"/>
<path d="M12.7823 0.0266587C12.5235 0.00992432 12.2627 0.000549316 11.9997 0.000549316C11.7367 0.000549316 11.4759 0.00992432 11.2171 0.0266587V9.65277H12.7823V0.0266587H12.7823Z" fill="black"/>
<path d="M11.2171 23.9739C11.4759 23.9906 11.7367 24 11.9997 24C12.2627 24 12.5235 23.9906 12.7823 23.9739V14.3478H11.2171V23.9739H11.2171Z" fill="black"/>
<path d="M9.65203 11.2178V9.6526H0.230158C0.128814 10.1634 0.0601892 10.6859 0.0259705 11.2178H9.65203Z" fill="#FFDA44"/>
<path d="M14.3478 11.2183H23.9739C23.9397 10.6864 23.871 10.164 23.7697 9.65312H14.3478V11.2183H14.3478Z" fill="#FFDA44"/>
<path d="M14.348 12.7831H23.9741C23.9908 12.5243 24.0002 12.2635 24.0002 12.0005C24.0002 11.7375 23.9908 11.4767 23.974 11.2179H14.348V12.7831Z" fill="black"/>
<path d="M0.0260407 11.2179C0.00935321 11.4767 -6.86646e-05 11.7375 -6.86646e-05 12.0005C-6.86646e-05 12.2635 0.00935321 12.5243 0.0260407 12.7831H9.65215V11.2179H0.0260407V11.2179Z" fill="black"/>
<path d="M11.9999 17.7389C15.1695 17.7389 17.739 15.1694 17.739 11.9998C17.739 8.83015 15.1695 6.26065 11.9999 6.26065C8.83022 6.26065 6.26072 8.83015 6.26072 11.9998C6.26072 15.1694 8.83022 17.7389 11.9999 17.7389Z" fill="#D80027"/>
<path d="M13.307 12.6408C12.8801 11.7871 12.3252 10.9218 12.3252 10.9218C12.3252 10.9218 12.339 10.5278 12.339 10.2931C12.339 9.93943 12.0523 9.65274 11.6987 9.65274C11.3637 9.65274 11.0892 9.91013 11.0612 10.2378C10.7977 10.255 10.5893 10.4736 10.5893 10.7413C10.5893 10.936 10.6996 11.1047 10.861 11.189C10.9413 11.0013 11.0984 10.8548 11.2927 10.788C11.3244 10.8139 11.3585 10.8371 11.3948 10.8567L11.4768 10.896C11.4768 10.896 11.1726 11.7534 11.1726 12.214C11.1726 13.5089 12.0264 13.9082 12.0264 13.9082V13.9216L11.5995 14.3484H12.4533V13.4946L12.8802 13.9215C12.8839 13.9135 13.6888 13.4045 13.307 12.6408Z" fill="#496E2D"/>
<path d="M11.9996 7.30444L12.1938 7.90229H12.8224L12.3139 8.2718L12.5082 8.86964L11.9996 8.50018L11.491 8.86964L11.6853 8.2718L11.1768 7.90229H11.8053L11.9996 7.30444Z" fill="#496E2D"/>
<path d="M9.23995 8.20183L9.74845 8.57135L10.257 8.20178L10.0628 8.79972L10.5714 9.16914L9.94275 9.16919L9.7485 9.76704L9.5542 9.16919L8.92561 9.16914L9.43415 8.79963L9.23995 8.20183Z" fill="#496E2D"/>
<path d="M7.53404 10.5492H8.16259L8.35688 9.9514L8.55113 10.5492L9.17977 10.5492L8.67123 10.9188L8.86552 11.5166L8.35688 11.1471L7.84834 11.5166L8.04254 10.9187L7.53404 10.5492Z" fill="#496E2D"/>
<path d="M7.53404 13.4514L8.04254 13.0819L7.84829 12.4841L8.35689 12.8536L8.86548 12.4841L8.67123 13.0819L9.17982 13.4514L8.55114 13.4515L8.35689 14.0493L8.16259 13.4514H7.53404Z" fill="#496E2D"/>
<path d="M9.2399 15.799L9.4341 15.2013L8.92551 14.8318H9.55415L9.74844 14.2339L9.94269 14.8317H10.5713L10.0627 15.2013L10.257 15.7991L9.7484 15.4296L9.2399 15.799Z" fill="#496E2D"/>
<path d="M11.9996 16.6964L11.8053 16.0986H11.1768L11.6853 15.7291L11.491 15.1312L11.9996 15.5007L12.5081 15.1312L12.3139 15.7291L12.8224 16.0986L12.1938 16.0986L11.9996 16.6964Z" fill="#496E2D"/>
<path d="M14.7602 15.799L14.2517 15.4295L13.7432 15.7991L13.9374 15.2013L13.4288 14.8317L14.0574 14.8317L14.2516 14.2339L14.446 14.8317H15.0746L14.566 15.2013L14.7602 15.799Z" fill="#496E2D"/>
<path d="M16.466 13.4515H15.8375L15.6432 14.0494L15.4489 13.4516H14.8202L15.3288 13.082L15.1345 12.4842L15.6432 12.8537L16.1517 12.4842L15.9575 13.0821L16.466 13.4515Z" fill="#496E2D"/>
<path d="M16.466 10.5492L15.9575 10.9187L16.1517 11.5165L15.6432 11.147L15.1346 11.5166L15.3288 10.9187L14.8202 10.5492L15.4489 10.5492L15.6431 9.9514L15.8375 10.5492H16.466Z" fill="#496E2D"/>
<path d="M14.7602 8.20178L14.566 8.79958L15.0746 9.1691H14.446L14.2517 9.76699L14.0574 9.16915L13.4288 9.16919L13.9374 8.79958L13.7431 8.20183L14.2517 8.57125L14.7602 8.20178Z" fill="#496E2D"/>
</g>
<defs>
<clipPath id="clip0_1867_57962">
<rect width="24" height="24" fill="white"/>
</clipPath>
</defs>
</svg>
