<svg width="24" height="24" viewBox="0 0 24 24" fill="none" xmlns="http://www.w3.org/2000/svg">
<g clip-path="url(#clip0_1867_57993)">
<path d="M12 24C18.6274 24 24 18.6274 24 12C24 5.37258 18.6274 0 12 0C5.37258 0 0 5.37258 0 12C0 18.6274 5.37258 24 12 24Z" fill="#F0F0F0"/>
<path d="M0.413795 15.131C1.52183 19.2421 4.75887 22.4792 8.87 23.5872V15.131H0.413795Z" fill="#D80027"/>
<path d="M8.86946 0.413391C4.75838 1.52138 1.52129 4.75847 0.413307 8.86955H8.86951V0.413391H8.86946Z" fill="#0052B4"/>
<path d="M23.5867 8.86967C22.4787 4.75859 19.2416 1.5215 15.1305 0.413513V8.86972H23.5867V8.86967Z" fill="#D80027"/>
<path d="M15.1305 23.587C19.2416 22.479 22.4787 19.242 23.5867 15.1308H15.1305V23.587Z" fill="#0052B4"/>
<path d="M15.1306 11.9998C15.1306 13.7288 13.7291 15.1303 12.0001 15.1303C10.2712 15.1303 8.86966 13.7288 8.86966 11.9998C8.86966 10.2709 12.0001 8.86938 12.0001 8.86938C12.0001 8.86938 15.1306 10.2709 15.1306 11.9998Z" fill="#496E2D"/>
<path d="M8.86966 11.9998C8.86966 10.2709 10.2712 8.86938 12.0001 8.86938C13.7291 8.86938 15.1306 10.2709 15.1306 11.9998" fill="#0052B4"/>
<path d="M10.2393 10.4344V12.391C10.2393 13.3635 11.0276 14.1518 12.0001 14.1518C12.9726 14.1518 13.761 13.3635 13.761 12.391V10.4344H10.2393Z" fill="#D80027"/>
</g>
<defs>
<clipPath id="clip0_1867_57993">
<rect width="24" height="24" fill="white"/>
</clipPath>
</defs>
</svg>
