<svg width="24" height="24" viewBox="0 0 24 24" fill="none" xmlns="http://www.w3.org/2000/svg">
<g clip-path="url(#clip0_1867_59088)">
<path d="M1.19118 6.78262C0.428333 8.36025 0.000457764 10.1301 0.000457764 12C0.000457764 13.8699 0.428333 15.6398 1.19118 17.2174L12.0005 18.2609L22.8097 17.2174C23.5726 15.6398 24.0005 13.8699 24.0005 12C24.0005 10.1301 23.5726 8.36025 22.8097 6.78262L12.0005 5.73914L1.19118 6.78262Z" fill="#F0F0F0"/>
<path d="M1.19099 17.2167C3.1319 21.2307 7.24232 23.9994 11.9999 23.9994C16.7574 23.9994 20.8678 21.2307 22.8087 17.2167H1.19099Z" fill="black"/>
<path d="M1.19099 6.78293H22.8087C20.8678 2.76898 16.7574 0.000305176 11.9999 0.000305176C7.24232 0.000305176 3.1319 2.76898 1.19099 6.78293Z" fill="#D80027"/>
<path d="M3.51517 3.51392C-1.17111 8.2002 -1.17111 15.7982 3.51517 20.4845C5.45172 18.548 7.3142 16.6855 12.0005 11.9992L3.51517 3.51392Z" fill="#496E2D"/>
</g>
<defs>
<clipPath id="clip0_1867_59088">
<rect width="24" height="24" fill="white"/>
</clipPath>
</defs>
</svg>
