<svg width="24" height="24" viewBox="0 0 24 24" fill="none" xmlns="http://www.w3.org/2000/svg">
<g clip-path="url(#clip0_1867_57346)">
<path d="M12.0003 0C18.6277 0 24.0003 5.37262 24.0003 12C24.0003 18.6274 18.6277 24 12.0003 24C12.0003 23.4783 10.4351 12 10.4351 12L12.0003 0Z" fill="#F0F0F0"/>
<path d="M12 24C5.37262 24 0 18.6274 0 12C0 5.37262 5.37262 0 12 0" fill="#496E2D"/>
<path d="M14.578 9.69867L13.5934 11.0555L11.9989 10.5383L12.985 11.894L12.0006 13.2508L13.5945 12.7318L14.5807 14.0874L14.5796 12.4111L16.1736 11.8921L14.5791 11.3751L14.578 9.69867Z" fill="#D80027"/>
<path d="M12.9952 15.392C11.1222 15.392 9.60386 13.8736 9.60386 12.0007C9.60386 10.1277 11.1222 8.60935 12.9952 8.60935C13.5791 8.60935 14.1287 8.757 14.6084 9.01697C13.8558 8.28099 12.8266 7.82672 11.6908 7.82672C9.38561 7.82672 7.51694 9.69544 7.51694 12.0006C7.51694 14.3058 9.38566 16.1745 11.6908 16.1745C12.8266 16.1745 13.8558 15.7202 14.6084 14.9843C14.1287 15.2443 13.5791 15.392 12.9952 15.392Z" fill="#D80027"/>
</g>
<defs>
<clipPath id="clip0_1867_57346">
<rect width="24" height="24" fill="white"/>
</clipPath>
</defs>
</svg>
