<svg width="24" height="24" viewBox="0 0 24 24" fill="none" xmlns="http://www.w3.org/2000/svg">
<g clip-path="url(#clip0_1867_57609)">
<path fill-rule="evenodd" clip-rule="evenodd" d="M12 0C18.627 0 24 5.37305 24 12C24 18.627 18.627 24 12 24C5.37305 24 0 18.627 0 12C0 5.37305 5.37305 0 12 0Z" fill="#2394E0"/>
<path fill-rule="evenodd" clip-rule="evenodd" d="M2.297 18.1993C1.58997 17.127 1.06067 15.9258 0.750122 14.6387L2.8634 15.6583L2.87512 16.2891C2.87512 16.5215 2.48059 17.0137 2.35364 17.2012L2.297 18.1993ZM15.295 1.26959C19.3224 2.60748 22.3439 6.1524 22.9259 10.4688L22.545 10.4278C22.4767 10.7208 22.4142 10.7266 22.4142 11.0782C22.4142 11.3887 22.8048 11.5958 22.8048 12.2501C22.8048 12.4258 22.3927 12.7755 22.3751 12.838L21.7638 12.1212V13.0333L21.672 13.0294L21.5079 11.3458L21.1661 11.4532L20.7599 10.2012L19.422 11.5997L19.4064 12.6231L18.9689 12.9161L18.504 10.2911L18.2267 10.4942L17.5978 9.64459L16.6583 9.67194L16.299 9.25983L15.9298 9.36139L15.2052 8.53131L15.0646 8.62701L15.5138 9.77545H16.0353V9.51569H16.295C16.4825 10.0352 16.6857 9.72662 16.6857 10.0372C16.6857 11.1212 15.3478 11.918 14.4708 12.1212C14.5177 12.3165 14.5001 12.5118 14.7306 12.5118C15.2208 12.5118 14.9767 12.4258 15.5118 12.3809C15.4865 13.4883 14.2423 14.8106 13.7111 15.6329L13.9493 17.3301C14.0118 17.6993 13.1837 18.088 12.9025 18.504L13.0372 19.1544L12.6564 19.3087C12.59 19.9766 11.9415 20.7169 11.213 20.7169H10.4318C10.4318 19.8028 9.77942 18.4962 9.77942 17.8497C9.77942 17.3008 10.0392 17.2266 10.0392 16.5469C10.0392 15.918 9.38879 15.0176 9.38879 14.8536V13.8106H8.86731C8.78918 13.5196 8.83801 13.42 8.47669 13.42H8.34583C7.77747 13.42 7.87317 13.6797 7.30286 13.6797H6.78137C6.31067 13.6797 5.47864 12.1719 5.47864 11.9864V10.4239C5.47864 9.75006 6.09583 9.01569 6.52161 8.73053V8.08014L7.10754 7.48444L7.43372 7.42975C8.13293 7.42975 8.04895 7.03912 8.47669 7.03912H9.64856V7.95123L10.9376 8.50201L11.0587 7.94537C11.6427 8.08209 11.795 8.34186 12.5138 8.34186H12.7736C13.2677 8.34186 13.295 7.68561 13.295 7.16998L12.2521 7.2735L11.797 6.28522L11.3458 6.40436C11.4279 6.75787 11.4708 6.61139 11.4708 6.91022C11.4708 7.086 11.3263 7.10553 11.2091 7.16998L10.7579 6.02545L9.78723 5.33209L9.65833 5.45905L10.4845 6.32819C10.3751 6.64069 10.3615 7.54108 9.90637 6.91022L10.3322 6.70514L9.26965 5.59186L8.63293 5.8399L8.00403 6.44147C7.93762 6.92584 7.80676 7.16998 7.29895 7.16998C6.96106 7.16998 7.16418 7.08209 6.64661 7.03912V5.73639H7.81848L7.43762 4.8692L7.297 4.95514V4.69342L9.20129 3.81647C9.16614 3.54303 9.12122 3.68951 9.12122 3.39069C9.12122 3.37311 9.24817 3.13287 9.25208 3.12897L9.74426 3.43561L9.62708 2.87506L8.86731 3.03131L8.72668 2.34967C9.32825 2.03326 10.6544 0.916077 11.0763 0.916077H11.4669C11.879 0.916077 12.9806 1.32233 13.1603 1.56647L12.1154 1.461L12.8907 2.09967L12.965 1.82623L13.5431 1.66803L13.5509 1.3067H13.8126V1.69733L15.295 1.26959Z" fill="#A1E367"/>
</g>
<defs>
<clipPath id="clip0_1867_57609">
<rect width="24" height="24" fill="white"/>
</clipPath>
</defs>
</svg>
