<svg width="24" height="24" viewBox="0 0 24 24" fill="none" xmlns="http://www.w3.org/2000/svg">
<g clip-path="url(#clip0_1867_58009)">
<path d="M0 12C0 5.37263 5.37262 0 12 0C18.6274 0 24 5.37263 24 12L12 13.0435L0 12Z" fill="#FFDA44"/>
<path d="M1.60557 18.0009C3.68049 21.5876 7.55818 24.0009 11.9998 24.0009C16.4415 24.0009 20.3191 21.5876 22.3941 18.0009L11.9998 17.2183L1.60557 18.0009Z" fill="#D80027"/>
<path d="M22.3944 18.0002C23.4154 16.2352 24.0001 14.1861 24.0001 12.0002H0.000114441C0.000114441 14.1861 0.584833 16.2352 1.60586 18.0002H22.3944Z" fill="#0052B4"/>
<path d="M11.9997 16.1744C14.3049 16.1744 16.1736 14.3057 16.1736 12.0005C16.1736 9.69534 14.3049 7.82663 11.9997 7.82663C9.69451 7.82663 7.82579 9.69534 7.82579 12.0005C7.82579 14.3057 9.69451 16.1744 11.9997 16.1744Z" fill="#FFDA44"/>
<path d="M12.0003 14.6092C10.5619 14.6092 9.39165 13.4389 9.39165 12.0005V10.4353C9.39165 8.99686 10.5619 7.82663 12.0003 7.82663C13.4387 7.82663 14.609 8.99691 14.609 10.4353V12.0005C14.609 13.439 13.4388 14.6092 12.0003 14.6092Z" fill="#338AF3"/>
<path d="M16.1737 5.73996H13.0432C13.0432 5.16368 12.576 4.69647 11.9997 4.69647C11.4234 4.69647 10.9562 5.16368 10.9562 5.73996H7.82579C7.82579 6.31629 8.32778 6.78344 8.90401 6.78344H8.86928C8.86928 7.35977 9.33643 7.82693 9.91276 7.82693C9.91276 8.40326 10.3799 8.87041 10.9562 8.87041H13.0432C13.6195 8.87041 14.0867 8.40326 14.0867 7.82693C14.663 7.82693 15.1302 7.35977 15.1302 6.78344H15.0955C15.6717 6.78344 16.1737 6.31624 16.1737 5.73996Z" fill="black"/>
</g>
<defs>
<clipPath id="clip0_1867_58009">
<rect width="24" height="24" fill="white"/>
</clipPath>
</defs>
</svg>
