<svg width="24" height="24" viewBox="0 0 24 24" fill="none" xmlns="http://www.w3.org/2000/svg">
<g clip-path="url(#clip0_1867_58037)">
<path d="M-0.000297546 11.9995C-0.000297546 13.4673 0.263749 14.8734 0.746093 16.1734L11.9997 16.6951L23.2533 16.1734C23.7357 14.8734 23.9997 13.4673 23.9997 11.9995C23.9997 10.5316 23.7357 9.12558 23.2533 7.8256L11.9997 7.30383L0.746093 7.82555C0.263749 9.12558 -0.000297546 10.5316 -0.000297546 11.9995Z" fill="black"/>
<path d="M11.9997 -0.000320435C6.84009 -0.000320435 2.44157 3.25618 0.746056 7.82579H23.2533C21.5578 3.25618 17.1592 -0.000320435 11.9997 -0.000320435Z" fill="#0052B4"/>
<path d="M23.2533 16.1742H0.746056C2.44157 20.7438 6.84009 24.0003 11.9997 24.0003C17.1592 24.0003 21.5578 20.7438 23.2533 16.1742Z" fill="#F0F0F0"/>
</g>
<defs>
<clipPath id="clip0_1867_58037">
<rect width="24" height="24" fill="white"/>
</clipPath>
</defs>
</svg>
