<svg width="24" height="24" viewBox="0 0 24 24" fill="none" xmlns="http://www.w3.org/2000/svg">
<g clip-path="url(#clip0_1867_58017)">
<path d="M12 24C18.6274 24 24 18.6274 24 12C24 5.37258 18.6274 0 12 0C5.37258 0 0 5.37258 0 12C0 18.6274 5.37258 24 12 24Z" fill="#F0F0F0"/>
<path d="M12.0002 -0.00031662C6.84061 -0.00031662 2.4421 3.25618 0.746582 7.82579H23.2538C21.5583 3.25618 17.1598 -0.00031662 12.0002 -0.00031662Z" fill="#D80027"/>
<path d="M12.0002 24.0003C17.1598 24.0003 21.5583 20.7438 23.2538 16.1742H0.746582C2.4421 20.7438 6.84061 24.0003 12.0002 24.0003Z" fill="black"/>
<path d="M16.1739 10.6956H13.0434C13.0434 10.1193 12.5762 9.65213 11.9999 9.65213C11.4237 9.65213 10.9565 10.1193 10.9565 10.6956H7.826C7.826 11.2719 8.32799 11.7391 8.90427 11.7391H8.86949C8.86949 12.3154 9.33664 12.7826 9.91297 12.7826C9.91297 13.3589 10.3801 13.8261 10.9565 13.8261H13.0434C13.6198 13.8261 14.0869 13.3589 14.0869 12.7826C14.6632 12.7826 15.1304 12.3154 15.1304 11.7391H15.0957C15.6719 11.7391 16.1739 11.2719 16.1739 10.6956Z" fill="#FF9811"/>
</g>
<defs>
<clipPath id="clip0_1867_58017">
<rect width="24" height="24" fill="white"/>
</clipPath>
</defs>
</svg>
