<svg width="24" height="24" viewBox="0 0 24 24" fill="none" xmlns="http://www.w3.org/2000/svg">
<g clip-path="url(#clip0_1867_57573)">
<path d="M1.1907 6.78195C0.427853 8.35958 -2.19345e-05 10.1294 -2.19345e-05 11.9993C-2.19345e-05 13.8692 0.427853 15.6391 1.1907 17.2167L12 18.2602L22.8093 17.2167C23.5721 15.6391 24 13.8692 24 11.9993C24 10.1294 23.5721 8.35958 22.8093 6.78195L12 5.73846L1.1907 6.78195Z" fill="#F0F0F0"/>
<path d="M1.19129 17.2178C3.1322 21.2317 7.24267 24.0004 12.0002 24.0004C16.7576 24.0004 20.8681 21.2317 22.809 17.2178H1.19129Z" fill="#496E2D"/>
<path d="M1.19129 6.7822H22.809C20.8681 2.76824 16.7577 -0.000427246 12.0002 -0.000427246C7.24262 -0.000427246 3.1322 2.76824 1.19129 6.7822Z" fill="black"/>
<path d="M3.51469 3.51501C-1.17159 8.2013 -1.17159 15.7993 3.51469 20.4856C5.45124 18.5491 7.31372 16.6866 12 12.0003L3.51469 3.51501Z" fill="#D80027"/>
<path d="M15.1305 12C15.1305 10.2517 16.3593 8.79109 18.0001 8.43278C17.7479 8.3777 17.4862 8.34784 17.2175 8.34784C15.2004 8.34784 13.5653 9.98293 13.5653 12C13.5653 14.0171 15.2004 15.6522 17.2175 15.6522C17.4862 15.6522 17.7479 15.6223 18.0001 15.5672C16.3593 15.2089 15.1305 13.7484 15.1305 12Z" fill="#D80027"/>
<path d="M18.1533 9.6521L18.6714 11.2465H20.3477L18.9915 12.2317L19.5095 13.826L18.1533 12.8407L16.7971 13.826L17.3152 12.2317L15.9589 11.2465H17.6352L18.1533 9.6521Z" fill="#D80027"/>
</g>
<defs>
<clipPath id="clip0_1867_57573">
<rect width="24" height="24" fill="white"/>
</clipPath>
</defs>
</svg>
