<svg width="24" height="24" viewBox="0 0 24 24" fill="none" xmlns="http://www.w3.org/2000/svg">
<g clip-path="url(#clip0_1867_58031)">
<path d="M10.9568 10.9566C10.9568 10.9566 3.52205 20.4871 3.51501 20.4854C5.68655 22.6569 8.68659 24.0001 12.0003 24.0001C18.6277 24.0001 24.0003 18.6275 24.0003 12.0001L10.9568 10.9566Z" fill="#338AF3"/>
<path d="M10.9568 11.9997C10.9568 11.9997 3.52205 3.51273 3.51501 3.51442C5.68655 1.34284 8.68659 -0.000312805 12.0003 -0.000312805C18.6277 -0.000312805 24.0003 5.37231 24.0003 11.9997H10.9568Z" fill="#6DA544"/>
<path d="M3.51421 3.5155C-1.17207 8.20178 -1.17207 15.7998 3.51421 20.4861C3.51388 20.4881 23.9995 12.0008 23.9995 12.0008L3.51421 3.5155Z" fill="#D80027"/>
<path d="M6.26048 7.04321C3.95896 7.04321 2.08659 8.91563 2.08659 11.2171V12.7823C2.08659 15.0838 3.95901 16.9562 6.26048 16.9562C8.56195 16.9562 10.4344 15.0838 10.4344 12.7823V11.2171C10.4344 8.91563 8.56199 7.04321 6.26048 7.04321ZM8.86916 12.7824C8.86916 13.9482 8.10032 14.9377 7.04305 15.2709V13.565L8.15043 12.4576L7.04366 11.3508L7.04305 10.9569V10.4346H5.4779V11.9997L4.37127 13.1063L5.4779 14.2129V15.271C4.42063 14.9378 3.65179 13.9483 3.65179 12.7824V11.2172C3.65179 9.77874 4.82207 8.60851 6.26048 8.60851C7.69888 8.60851 8.86916 9.77879 8.86916 11.2172V12.7824Z" fill="#FFDA44"/>
</g>
<defs>
<clipPath id="clip0_1867_58031">
<rect width="24" height="24" fill="white"/>
</clipPath>
</defs>
</svg>
