<svg width="24" height="24" viewBox="0 0 24 24" fill="none" xmlns="http://www.w3.org/2000/svg">
<g clip-path="url(#clip0_1867_58042)">
<path d="M-0.000183105 12C-0.000183105 13.4679 0.263864 14.874 0.746254 16.174L11.9998 17.2173L23.2534 16.1739C23.7358 14.874 23.9998 13.4679 23.9998 12C23.9998 10.5522 23.7434 9.1644 23.2735 7.87942L11.9998 6.78259L0.726098 7.87947C0.25627 9.1644 -0.000183105 10.5522 -0.000183105 12Z" fill="#FFDA44"/>
<path d="M11.9999 24.0003C17.1595 24.0003 21.558 20.7438 23.2535 16.1742H0.746269C2.44178 20.7438 6.8403 24.0003 11.9999 24.0003Z" fill="#D80027"/>
<path d="M12 -0.000320435C6.8404 -0.000320435 2.44188 3.25618 0.746368 7.82579H23.2536C21.5581 3.25618 17.1596 -0.000320435 12 -0.000320435Z" fill="#6DA544"/>
<path d="M11.9997 17.7398C15.1694 17.7398 17.7389 15.1703 17.7389 12.0007C17.7389 8.83105 15.1694 6.26155 11.9997 6.26155C8.83011 6.26155 6.26061 8.83105 6.26061 12.0007C6.26061 15.1703 8.83011 17.7398 11.9997 17.7398Z" fill="#0052B4"/>
<path d="M11.9986 7.55646L13.0346 10.745H16.3926L13.6749 12.7157L14.7191 15.9137L11.9986 13.9336L9.28228 15.91L10.3222 12.7157L7.60701 10.745H10.9626L11.9986 7.55646Z" fill="#FFDA44"/>
<path d="M16.1308 12.7939L12.8441 11.7259L14.8753 8.93029L14.0312 8.31688L11.9999 11.1127L9.96873 8.31693L9.12451 8.93024L11.1557 11.7261L7.86915 12.7939L8.19155 13.7863L11.4782 12.7185V16.1742H12.5217V12.7184L15.8082 13.7863L16.1308 12.7939Z" fill="#FFDA44"/>
</g>
<defs>
<clipPath id="clip0_1867_58042">
<rect width="24" height="24" fill="white"/>
</clipPath>
</defs>
</svg>
