<svg width="24" height="24" viewBox="0 0 24 24" fill="none" xmlns="http://www.w3.org/2000/svg">
<g clip-path="url(#clip0_1867_58086)">
<path d="M12 24C18.6274 24 24 18.6274 24 12C24 5.37258 18.6274 0 12 0C5.37258 0 0 5.37258 0 12C0 18.6274 5.37258 24 12 24Z" fill="#F0F0F0"/>
<path d="M23.8986 10.4347H9.39153H9.39148V0.285187C8.28251 0.531093 7.23115 0.929671 6.26103 1.45903V10.4347V10.4347H0.101746C0.0349491 10.9471 0.000167847 11.4695 0.000167847 12C0.000167847 12.5304 0.0349491 13.0528 0.101746 13.5652H6.26098H6.26103V22.5408C7.23115 23.0701 8.28251 23.4688 9.39148 23.7147V13.5653V13.5652H23.8986C23.9653 13.0528 24.0002 12.5304 24.0002 12C24.0002 11.4695 23.9653 10.9471 23.8986 10.4347Z" fill="#0052B4"/>
</g>
<defs>
<clipPath id="clip0_1867_58086">
<rect width="24" height="24" fill="white"/>
</clipPath>
</defs>
</svg>
