<svg width="24" height="24" viewBox="0 0 24 24" fill="none" xmlns="http://www.w3.org/2000/svg">
<g clip-path="url(#clip0_1867_58071)">
<path d="M24 12C24 18.6274 18.6274 24 12 24C5.37262 24 0 18.6274 0 12C0 12.0029 12 0.0013125 12 0C18.6274 0 24 5.37262 24 12Z" fill="#338AF3"/>
<path d="M11.9994 5.7403V9.78762L7.82547 5.7403H11.9994Z" fill="#0052B4"/>
<path d="M6.26051 12.0019H9.78607L6.26051 7.30621L5.73879 10.9584L6.26051 12.0019Z" fill="#0052B4"/>
<path d="M11.9674 12.0001H11.9995C11.9995 11.9893 11.9995 11.9788 11.9995 11.968C11.9888 11.9787 11.9781 11.9894 11.9674 12.0001Z" fill="#F0F0F0"/>
<path d="M11.9998 6.26153C11.9998 4.15005 11.9998 2.76653 11.9998 0.000671387H11.9977C5.37126 0.00179639 -0.000236511 5.37391 -0.000236511 12.0007H6.26062V8.47516L9.78618 12.0007H11.9677C11.9784 11.99 11.9891 11.9793 11.9999 11.9686C11.9999 11.1601 11.9999 10.4387 11.9999 9.78714L8.4742 6.26153H11.9998Z" fill="#F0F0F0"/>
<path d="M6.07081 1.56586C4.19398 2.63456 2.6337 4.19484 1.56499 6.07167V12.0007H4.69545V4.69641V4.69631H11.9998C11.9998 3.70898 11.9998 2.76839 11.9998 1.56586H6.07081Z" fill="#D80027"/>
<path d="M11.9998 10.525L7.73642 6.2616H6.26075V6.26169L11.9998 12.0007H11.9998C11.9998 12.0007 11.9998 10.9832 11.9998 10.525Z" fill="#D80027"/>
<path d="M13.5655 7.82718V12.001C13.5655 14.7966 17.2177 15.6532 17.2177 15.6532C17.2177 15.6532 20.8699 14.7966 20.8699 12.001V7.82718L17.2177 6.78369L13.5655 7.82718Z" fill="#F3F3F3"/>
<path d="M20.8699 7.82628V6.26108H13.5655V7.82628H16.6959V10.9568H13.5655V12.0002C13.5655 12.0002 13.5655 12.0003 13.5655 12.0003L16.6959 12.0003V15.4924C17.0108 15.6037 17.2177 15.6524 17.2177 15.6524C17.2177 15.6524 17.4245 15.6038 17.7394 15.4924V12.0003H20.8699V12.0002V10.9567H17.7394V7.82623H20.8699V7.82628Z" fill="#D80027"/>
</g>
<defs>
<clipPath id="clip0_1867_58071">
<rect width="24" height="24" fill="white"/>
</clipPath>
</defs>
</svg>
