<svg width="24" height="24" viewBox="0 0 24 24" fill="none" xmlns="http://www.w3.org/2000/svg">
<g clip-path="url(#clip0_1867_58051)">
<path d="M24 12C24 18.6274 18.6274 24 12 24C5.37262 24 0 18.6274 0 12C0 12.0029 12 0.0013125 12 0C18.6274 0 24 5.37262 24 12Z" fill="#0052B4"/>
<path d="M11.9672 12.0003H11.9994C11.9994 11.9895 11.9994 11.979 11.9994 11.9681C11.9887 11.9789 11.978 11.9896 11.9672 12.0003Z" fill="#F0F0F0"/>
<path d="M11.9997 6.26074C11.9997 4.14925 11.9997 2.76574 11.9997 -0.00012207H11.9977C5.37118 0.00100293 -0.000312805 5.37311 -0.000312805 11.9999H6.26054V8.47436L9.7861 11.9999H11.9676C11.9783 11.9892 11.989 11.9785 11.9997 11.9678C11.9997 11.1593 11.9997 10.438 11.9997 9.78635L8.47412 6.26074H11.9997Z" fill="#F0F0F0"/>
<path d="M6.07064 1.56497C4.19381 2.63368 2.63353 4.19396 1.56483 6.07079V11.9998H4.69528V4.69552V4.69543H11.9996C11.9996 3.7081 11.9996 2.7675 11.9996 1.56497H6.07064Z" fill="#D80027"/>
<path d="M11.9997 10.5244L7.73628 6.26099H6.26061V6.26108L11.9996 12.0001H11.9997C11.9997 12.0001 11.9997 10.9826 11.9997 10.5244Z" fill="#D80027"/>
<path d="M19.3046 14.0863V14.6081H15.1307V14.0863H13.5655V16.1733H14.609V16.695H19.8264V16.1733H20.8698V14.0863H19.3046Z" fill="#FFDA44"/>
<path d="M13.5655 6.26157V12.0007C13.5655 14.7963 17.2176 15.6529 17.2176 15.6529C17.2176 15.6529 20.8698 14.7963 20.8698 12.0007V6.26157H13.5655Z" fill="#338AF3"/>
<path d="M17.2179 10.5428C16.3049 10.5428 16.3049 11.3776 15.392 11.3776C14.479 11.3776 14.479 10.5428 13.566 10.5428V12.0037C14.479 12.0037 14.479 12.8385 15.392 12.8385C16.3049 12.8385 16.3049 12.0037 17.2179 12.0037C18.131 12.0037 18.131 12.8385 19.0441 12.8385C19.9573 12.8385 19.9572 12.0037 20.8703 12.0037V10.5428C19.9573 10.5428 19.9573 11.3776 19.0441 11.3776C18.131 11.3776 18.131 10.5428 17.2179 10.5428Z" fill="#F3F3F3"/>
<path d="M17.2176 7.6181C16.3046 7.6181 16.3046 8.4529 15.3916 8.4529C14.4787 8.4529 14.4787 7.6181 13.5657 7.6181V9.07896C14.4787 9.07896 14.4787 9.91376 15.3916 9.91376C16.3046 9.91376 16.3046 9.07896 17.2176 9.07896C18.1307 9.07896 18.1307 9.91376 19.0438 9.91376C19.9569 9.91376 19.9569 9.07896 20.87 9.07896V7.6181C19.9569 7.6181 19.9569 8.4529 19.0438 8.4529C18.1307 8.4529 18.1307 7.6181 17.2176 7.6181Z" fill="#F3F3F3"/>
</g>
<defs>
<clipPath id="clip0_1867_58051">
<rect width="24" height="24" fill="white"/>
</clipPath>
</defs>
</svg>
