<svg width="24" height="24" viewBox="0 0 24 24" fill="none" xmlns="http://www.w3.org/2000/svg">
<g clip-path="url(#clip0_1867_58551)">
<path d="M12 24C18.6274 24 24 18.6274 24 12C24 5.37258 18.6274 0 12 0C5.37258 0 0 5.37258 0 12C0 18.6274 5.37258 24 12 24Z" fill="#338AF3"/>
<path d="M12.0002 5.21744L12.5182 6.81175H14.1946L12.8385 7.79711L13.3564 9.39138L12.0002 8.40606L10.644 9.39138L11.1621 7.79711L9.80587 6.81175H11.4823L12.0002 5.21744Z" fill="#F0F0F0"/>
<path d="M5.21735 11.9997L6.81166 11.4816V9.80518L7.79702 11.1615L9.39129 10.6434L8.40598 11.9997L9.39129 13.3558L7.79702 12.8377L6.81166 14.1939V12.5176L5.21735 11.9997Z" fill="#F0F0F0"/>
<path d="M12.0003 18.783L11.4823 17.1887H9.80587L11.1622 16.2033L10.6441 14.6091L12.0003 15.5944L13.3565 14.6091L12.8384 16.2033L14.1946 17.1887H12.5183L12.0003 18.783Z" fill="#F0F0F0"/>
<path d="M18.7829 11.9995L17.1886 12.5176V14.1939L16.2032 12.8377L14.609 13.3557L15.5943 11.9995L14.609 10.6434L16.2032 11.1615L17.1886 9.80518V11.4816L18.7829 11.9995Z" fill="#F0F0F0"/>
</g>
<defs>
<clipPath id="clip0_1867_58551">
<rect width="24" height="24" fill="white"/>
</clipPath>
</defs>
</svg>
