<svg width="24" height="24" viewBox="0 0 24 24" fill="none" xmlns="http://www.w3.org/2000/svg">
<g clip-path="url(#clip0_1867_58107)">
<path d="M23.2532 16.175C23.7356 14.875 23.9996 13.4689 23.9996 12.0011C23.9996 10.5332 23.7356 9.12721 23.2532 7.82718L11.9996 6.78369L0.745979 7.82718C0.263635 9.12721 -0.000411987 10.5332 -0.000411987 12.0011C-0.000411987 13.4689 0.263635 14.875 0.745979 16.175L11.9996 17.2184L23.2532 16.175Z" fill="#FFDA44"/>
<path d="M12.0004 23.9996C17.1599 23.9996 21.5585 20.7431 23.2539 16.1735H0.746727C2.44229 20.7431 6.84076 23.9996 12.0004 23.9996Z" fill="#0052B4"/>
<path d="M12.0004 0.000793457C6.84076 0.000793457 2.44229 3.25729 0.746727 7.8269H23.254C21.5585 3.25729 17.1599 0.000793457 12.0004 0.000793457Z" fill="#6DA544"/>
</g>
<defs>
<clipPath id="clip0_1867_58107">
<rect width="24" height="24" fill="white"/>
</clipPath>
</defs>
</svg>
