<svg width="24" height="24" viewBox="0 0 24 24" fill="none" xmlns="http://www.w3.org/2000/svg">
<g clip-path="url(#clip0_1867_58160)">
<path d="M12 24C18.6274 24 24 18.6274 24 12C24 5.37258 18.6274 0 12 0C5.37258 0 0 5.37258 0 12C0 18.6274 5.37258 24 12 24Z" fill="#FFDA44"/>
<path d="M5.23633 2.08688C7.16219 0.770346 9.49085 -9.15527e-05 11.9998 -9.15527e-05C14.5087 -9.15527e-05 16.8374 0.770346 18.7632 2.08688L11.9998 2.6086L5.23633 2.08688Z" fill="#A2001D"/>
<path d="M12.0004 11.9995L11.2345 11.2336L11.0312 11.5979L12.0004 11.9995Z" fill="#0052B4"/>
<path d="M3.51516 3.51514C-1.17112 8.20142 -1.17112 15.7994 3.51516 20.4858C5.45171 18.5492 7.3142 16.6867 12.0005 12.0004L3.51516 3.51514Z" fill="#496E2D"/>
<path d="M20.4858 3.51593C25.1721 8.20221 25.1721 15.8002 20.4858 20.4866C18.5492 18.55 16.6868 16.6875 12.0005 12.0012L20.4858 3.51593Z" fill="#496E2D"/>
<path d="M12.0001 16.174C14.3053 16.174 16.174 14.3053 16.174 12.0002C16.174 9.69498 14.3053 7.82626 12.0001 7.82626C9.69494 7.82626 7.82622 9.69498 7.82622 12.0002C7.82622 14.3053 9.69494 16.174 12.0001 16.174Z" fill="#A2001D"/>
<path d="M11.9996 7.82639L12.9352 10.7059H15.9632L13.5136 12.4859L14.4492 15.3655L11.9996 13.5858L9.54993 15.3655L10.4857 12.4859L8.0361 10.7059H11.0639L11.9996 7.82639Z" fill="#FFDA44"/>
<path d="M12.0043 -9.15527e-05H11.9963C8.6844 0.000986572 5.68623 1.34363 3.51559 3.51403H20.4849C18.3143 1.34363 15.3161 0.000986572 12.0043 -9.15527e-05Z" fill="#A2001D"/>
<path d="M3.51603 20.4857C5.68756 22.6569 8.68728 23.9998 12.0006 23.9998C15.314 23.9998 18.3137 22.6569 20.4852 20.4857H3.51603Z" fill="#A2001D"/>
<path d="M12.0004 1.3042L12.1947 1.90204H12.8233L12.3147 2.27156L12.509 2.8694L12.0004 2.49993L11.4918 2.8694L11.6861 2.27156L11.1775 1.90204H11.8061L12.0004 1.3042Z" fill="#FFDA44"/>
<path d="M9.09076 1.3042L9.28505 1.90204H9.91365L9.4051 2.27156L9.5994 2.8694L9.09076 2.49993L8.58225 2.8694L8.7765 2.27156L8.26786 1.90204H8.89646L9.09076 1.3042Z" fill="#FFDA44"/>
<path d="M14.91 1.3042L15.1043 1.90204H15.7329L15.2243 2.27156L15.4186 2.8694L14.91 2.49993L14.4015 2.8694L14.5958 2.27156L14.0871 1.90204H14.7157L14.91 1.3042Z" fill="#FFDA44"/>
<path d="M12.0004 21.1297L12.1947 21.7276H12.8233L12.3147 22.0971L12.509 22.6949L12.0004 22.3254L11.4918 22.6949L11.6861 22.0971L11.1775 21.7276H11.8061L12.0004 21.1297Z" fill="#FFDA44"/>
<path d="M9.09076 21.1297L9.28505 21.7276H9.91365L9.4051 22.0971L9.5994 22.6949L9.09076 22.3254L8.58225 22.6949L8.7765 22.0971L8.26786 21.7276H8.89646L9.09076 21.1297Z" fill="#FFDA44"/>
<path d="M14.91 21.1297L15.1043 21.7276H15.7329L15.2243 22.0971L15.4186 22.6949L14.91 22.3254L14.4015 22.6949L14.5958 22.0971L14.0871 21.7276H14.7157L14.91 21.1297Z" fill="#FFDA44"/>
<path d="M3.65673 11.802C3.96493 12.289 3.82009 12.9336 3.3331 13.2418C2.84617 13.5501 2.20154 13.4052 1.89329 12.9182C1.33524 12.0366 1.65882 10.5967 1.65882 10.5967C1.65882 10.5967 3.09863 10.9203 3.65673 11.802Z" fill="#FFDA44"/>
<path d="M3.05355 13.3225C3.34169 13.3225 3.57527 13.0889 3.57527 12.8007C3.57527 12.5126 3.34169 12.279 3.05355 12.279C2.76541 12.279 2.53183 12.5126 2.53183 12.8007C2.53183 13.0889 2.76541 13.3225 3.05355 13.3225Z" fill="#A2001D"/>
</g>
<defs>
<clipPath id="clip0_1867_58160">
<rect width="24" height="24" fill="white"/>
</clipPath>
</defs>
</svg>
