<svg width="24" height="24" viewBox="0 0 24 24" fill="none" xmlns="http://www.w3.org/2000/svg">
<g clip-path="url(#clip0_1867_58132)">
<path d="M0 11.9991C0 13.467 0.264047 14.873 0.746391 16.173L12 16.6948L23.2536 16.1731C23.736 14.873 24 13.467 24 11.9991C24 10.5313 23.736 9.12522 23.2536 7.82523L12 7.30347L0.746391 7.82519C0.264047 9.12522 0 10.5313 0 11.9991Z" fill="#FFDA44"/>
<path d="M11.9998 -0.000976562C6.84022 -0.000976562 2.4417 3.25552 0.746185 7.82513H23.2534C21.5579 3.25552 17.1594 -0.000976562 11.9998 -0.000976562Z" fill="#D80027"/>
<path d="M23.2536 16.1741H0.746353C2.44187 20.7436 6.84038 24.0002 12 24.0002C17.1595 24.0002 21.5581 20.7436 23.2536 16.1741Z" fill="#496E2D"/>
<path d="M11.9998 7.82629L13.0358 11.0147H16.3886L13.6763 12.9855L14.7122 16.1741L11.9998 14.2035L9.28739 16.1741L10.3235 12.9855L7.61119 11.0147H10.9639L11.9998 7.82629Z" fill="black"/>
</g>
<defs>
<clipPath id="clip0_1867_58132">
<rect width="24" height="24" fill="white"/>
</clipPath>
</defs>
</svg>
