<svg width="24" height="24" viewBox="0 0 24 24" fill="none" xmlns="http://www.w3.org/2000/svg">
<g clip-path="url(#clip0_1867_58138)">
<path d="M12 24C18.6274 24 24 18.6274 24 12C24 5.37258 18.6274 0 12 0C5.37258 0 0 5.37258 0 12C0 18.6274 5.37258 24 12 24Z" fill="#F9F9F9"/>
<path d="M11.9999 24.0007C17.1594 24.0007 21.5579 20.7442 23.2534 16.1746H0.746201C2.44176 20.7442 6.84023 24.0007 11.9999 24.0007Z" fill="#D80027"/>
<path d="M16.6955 9.91356V8.34836H17.2173V7.30488H16.1738V7.82664H15.1303V7.30488H14.0869V8.34836H14.6086V9.91356H13.5651V6.26149H14.0869V5.21805H13.0434V5.73967H12.5216V5.21805H11.4782V5.73967H10.9564V5.21805H9.91291V6.26149H10.4347V9.91356H9.39119V8.34836H9.91291V7.30488H8.86943V7.82664H7.82599V7.30488H6.7825V8.34836H7.30422V9.91356H6.26074V14.0875H17.739V9.91356H16.6955Z" fill="#D80027"/>
<path d="M11.9998 13.5651C11.1354 13.5651 10.4346 14.2659 10.4346 15.1303C10.4346 15.8117 10.8703 16.3913 11.4781 16.6061V18.7826H9.91288V20.8695H12.5216V16.6062C13.1294 16.3913 13.5651 15.8118 13.5651 15.1304C13.565 14.266 12.8642 13.5651 11.9998 13.5651ZM11.9998 15.6521C11.7117 15.6521 11.4781 15.4185 11.4781 15.1304C11.4781 14.8422 11.7117 14.6087 11.9998 14.6087C12.2879 14.6087 12.5215 14.8422 12.5215 15.1304C12.5215 15.4185 12.2879 15.6521 11.9998 15.6521Z" fill="#FFDA44"/>
</g>
<defs>
<clipPath id="clip0_1867_58138">
<rect width="24" height="24" fill="white"/>
</clipPath>
</defs>
</svg>
