<svg width="24" height="24" viewBox="0 0 24 24" fill="none" xmlns="http://www.w3.org/2000/svg">
<g clip-path="url(#clip0_1867_58154)">
<path d="M0 12C0 5.37262 5.37262 0 12 0C18.6274 0 24 5.37262 24 12C23.4783 12 12 13.5652 12 13.5652L0 12Z" fill="#F0F0F0"/>
<path d="M24.0003 12.0005C24.0003 18.6278 18.6277 24.0005 12.0003 24.0005C5.37297 24.0005 0.000343323 18.6278 0.000343323 12.0005" fill="#D80027"/>
<path d="M8.34752 17.7397C11.5172 17.7397 14.0867 15.1702 14.0867 12.0005C14.0867 8.83088 11.5172 6.26138 8.34752 6.26138C5.17788 6.26138 2.60838 8.83088 2.60838 12.0005C2.60838 15.1702 5.17788 17.7397 8.34752 17.7397Z" fill="#F0F0F0"/>
<path d="M2.60838 12.0005C2.60838 8.83098 5.17788 6.26138 8.34752 6.26138C11.5172 6.26138 14.0867 8.83093 14.0867 12.0005" fill="#D80027"/>
</g>
<defs>
<clipPath id="clip0_1867_58154">
<rect width="24" height="24" fill="white"/>
</clipPath>
</defs>
</svg>
