<svg width="24" height="24" viewBox="0 0 24 24" fill="none" xmlns="http://www.w3.org/2000/svg">
<g clip-path="url(#clip0_1867_58217)">
<path d="M16.1744 0.74635C14.8743 0.263959 13.4682 -8.7738e-05 12.0003 -8.7738e-05C10.5325 -8.7738e-05 9.12648 0.263959 7.82654 0.746256L7.30478 11.9999L7.82649 23.2536C9.12648 23.7359 10.5325 23.9999 12.0003 23.9999C13.4683 23.9999 14.8743 23.7359 16.1744 23.2535L16.6961 11.9999L16.1744 0.74635Z" fill="#FFDA44"/>
<path d="M4.57764e-05 12.0003C4.57764e-05 17.1598 3.25655 21.5584 7.82616 23.2539V0.746655C3.25655 2.44222 4.57764e-05 6.84068 4.57764e-05 12.0003Z" fill="#D80027"/>
<path d="M23.9996 12.0003C23.9996 6.84069 20.7431 2.44222 16.1735 0.746655V23.2539C20.7431 21.5584 23.9996 17.1598 23.9996 12.0003Z" fill="#6DA544"/>
</g>
<defs>
<clipPath id="clip0_1867_58217">
<rect width="24" height="24" fill="white"/>
</clipPath>
</defs>
</svg>
