<svg width="24" height="24" viewBox="0 0 24 24" fill="none" xmlns="http://www.w3.org/2000/svg">
<g clip-path="url(#clip0_1867_58022)">
<path d="M12 24C18.6274 24 24 18.6274 24 12C24 5.37258 18.6274 0 12 0C5.37258 0 0 5.37258 0 12C0 18.6274 5.37258 24 12 24Z" fill="#F0F0F0"/>
<path d="M7.30462 7.8258H23.2538C21.5584 3.25619 17.1598 -0.000312805 12.0003 -0.000312805C8.6865 -0.000312805 5.68683 1.34308 3.51539 3.5148L7.30462 7.8258Z" fill="#6DA544"/>
<path d="M7.30462 16.1742H23.2538C21.5584 20.7438 17.1598 24.0003 12.0003 24.0003C8.6865 24.0003 5.68683 22.6569 3.51539 20.4852L7.30462 16.1742Z" fill="#D80027"/>
<path d="M3.51516 3.5155C-1.17112 8.20178 -1.17112 15.7998 3.51516 20.4861C5.45171 18.5496 7.3142 16.6871 12.0005 12.0008L3.51516 3.5155Z" fill="#0052B4"/>
<path d="M14.087 9.91274V12.5214C14.087 14.1189 16.174 14.6084 16.174 14.6084C16.174 14.6084 18.261 14.1189 18.261 12.5214V9.91274H14.087Z" fill="#DEDDE0"/>
<path d="M16.6954 12.0523H15.6519V13.5653H16.6954V12.0523Z" fill="#786145"/>
<path d="M17.2175 11.4788C17.2175 10.9025 16.7504 10.4353 16.174 10.4353C15.5977 10.4353 15.1306 10.9025 15.1306 11.4788C14.8424 11.4788 14.6088 11.7124 14.6088 12.0006C14.6088 12.2887 14.8424 12.5223 15.1306 12.5223C15.3017 12.5223 17.0464 12.5223 17.2175 12.5223C17.5057 12.5223 17.7392 12.2887 17.7392 12.0006C17.7392 11.7124 17.5057 11.4788 17.2175 11.4788Z" fill="#6DA544"/>
</g>
<defs>
<clipPath id="clip0_1867_58022">
<rect width="24" height="24" fill="white"/>
</clipPath>
</defs>
</svg>
