<svg width="24" height="24" viewBox="0 0 24 24" fill="none" xmlns="http://www.w3.org/2000/svg">
<g clip-path="url(#clip0_1867_58145)">
<path d="M12 24C18.6274 24 24 18.6274 24 12C24 5.37258 18.6274 0 12 0C5.37258 0 0 5.37258 0 12C0 18.6274 5.37258 24 12 24Z" fill="#F0F0F0"/>
<path d="M11.9997 8.87002H23.5863C23.2854 7.75373 22.8281 6.70181 22.2384 5.73956H11.9997V8.87002Z" fill="#338AF3"/>
<path d="M4.53062 21.3914H19.4703C20.5654 20.5192 21.5046 19.4597 22.2391 18.261H1.76176C2.49634 19.4597 3.43552 20.5192 4.53062 21.3914Z" fill="#338AF3"/>
<path d="M4.17437 2.90378C3.23096 3.71617 2.41538 4.67284 1.76176 5.73953H4.17437V2.90378Z" fill="#338AF3"/>
<path d="M12.0001 12C12.0001 10.7777 12.0001 9.75472 12.0001 8.86954H7.30449V12H4.17404V8.86954H0.413536C0.14452 9.86769 0.000144958 10.9169 0.000144958 12C0.000144958 13.0831 0.14452 14.1323 0.413536 15.1304H23.5868C23.8558 14.1323 24.0001 13.0831 24.0001 12H12.0001Z" fill="#338AF3"/>
<path d="M12.0005 0.000701904C10.3342 0.000701904 8.74722 0.340686 7.30487 0.954514V5.73984H12.0005C12.0005 4.64709 12.0005 3.7177 12.0005 2.60939H19.4704C17.4205 0.976827 14.8247 0.000701904 12.0005 0.000701904Z" fill="#338AF3"/>
</g>
<defs>
<clipPath id="clip0_1867_58145">
<rect width="24" height="24" fill="white"/>
</clipPath>
</defs>
</svg>
