<svg width="24" height="24" viewBox="0 0 24 24" fill="none" xmlns="http://www.w3.org/2000/svg">
<g clip-path="url(#clip0_1867_58196)">
<path d="M12 24C18.6274 24 24 18.6274 24 12C24 5.37258 18.6274 0 12 0C5.37258 0 0 5.37258 0 12C0 18.6274 5.37258 24 12 24Z" fill="#F0F0F0"/>
<path d="M23.9991 12.0003C23.9991 7.24276 21.2305 3.13201 17.2165 1.19101V22.8095C21.2305 20.8686 23.9991 16.7578 23.9991 12.0003Z" fill="#338AF3"/>
<path d="M-0.000396729 12.0001C-0.000396729 16.7576 2.76827 20.8684 6.78223 22.8094V1.19084C2.76827 3.13184 -0.000396729 7.24259 -0.000396729 12.0001Z" fill="#338AF3"/>
<path d="M15.1355 14.0284L13.1065 11.9994L15.0378 10.0679L14.9503 9.04781L14.3974 8.49478L11.9996 10.8925L9.6019 8.49478L9.04896 9.04781L8.96144 10.0679L10.8928 11.9994L8.86375 14.0284L9.97057 15.1351L11.9996 13.1062L14.0287 15.1351L15.1355 14.0284Z" fill="#ACABB1"/>
<path d="M14.9515 9.049L13.8448 10.1558C14.3168 10.6278 14.6089 11.28 14.6089 12.0004C14.6089 13.4411 13.4409 14.6091 12.0002 14.6091C10.5595 14.6091 9.39146 13.4411 9.39146 12.0004C9.39146 11.28 9.68349 10.6278 10.1556 10.1558L9.0488 9.049C8.29341 9.80425 7.82626 10.8477 7.82626 12.0004C7.82626 14.3056 9.69497 16.1743 12.0001 16.1743C14.3053 16.1743 16.174 14.3056 16.174 12.0004C16.174 10.8478 15.7069 9.80429 14.9515 9.049Z" fill="#6DA544"/>
</g>
<defs>
<clipPath id="clip0_1867_58196">
<rect width="24" height="24" fill="white"/>
</clipPath>
</defs>
</svg>
