<svg width="24" height="24" viewBox="0 0 24 24" fill="none" xmlns="http://www.w3.org/2000/svg">
<g clip-path="url(#clip0_1867_58209)">
<path d="M11.9996 -9.15527e-05C10.9165 -9.15527e-05 9.86725 0.144283 8.86914 0.413299L7.8257 11.9999L8.86919 23.5865C9.86725 23.8555 10.9165 23.9999 11.9996 23.9999C18.627 23.9999 23.9996 18.6273 23.9996 11.9999C23.9996 5.37253 18.627 -9.15527e-05 11.9996 -9.15527e-05Z" fill="#FFDA44"/>
<path d="M7.8257 12.0005L8.86919 23.5871C9.86725 23.8561 10.9165 24.0005 11.9996 24.0005C18.627 24.0005 23.9996 18.6278 23.9996 12.0005H7.8257Z" fill="#6DA544"/>
<path d="M0.000106812 11.9995C0.000106812 16.548 2.53089 20.5052 6.26097 22.5404V1.4586C2.53089 3.49381 0.000106812 7.451 0.000106812 11.9995Z" fill="#D80027"/>
<path d="M0.000175476 11.9995C0.000175476 17.5438 3.76053 22.2091 8.86972 23.5861V0.412895C3.76053 1.7899 0.000175476 6.45518 0.000175476 11.9995Z" fill="#D80027"/>
<path d="M4.53456 8.86835L5.31151 11.2597H7.82617L5.79189 12.7378L6.56879 15.1293L4.53456 13.6512L2.50023 15.1293L3.27732 12.7378L1.24304 11.2597H3.75756L4.53456 8.86835Z" fill="black"/>
</g>
<defs>
<clipPath id="clip0_1867_58209">
<rect width="24" height="24" fill="white"/>
</clipPath>
</defs>
</svg>
