<svg width="24" height="24" viewBox="0 0 24 24" fill="none" xmlns="http://www.w3.org/2000/svg">
<g clip-path="url(#clip0_1867_58222)">
<path d="M12 24C18.6274 24 24 18.6274 24 12C24 5.37258 18.6274 0 12 0C5.37258 0 0 5.37258 0 12C0 18.6274 5.37258 24 12 24Z" fill="#F0F0F0"/>
<path d="M12 -0.000951767C9.8784 -0.000951767 7.88583 0.550392 6.15652 1.51649V22.4816C7.88588 23.4477 9.8784 23.999 12 23.999C18.6274 23.999 24 18.6264 24 11.999C24 5.37167 18.6274 -0.000951767 12 -0.000951767Z" fill="#6DA544"/>
<path d="M6.19195 1.49819C5.43703 1.91655 4.73212 2.4138 4.08811 2.97911C4.15322 2.92202 4.21898 2.86558 4.28527 2.80989L13.4758 12.0005L4.28522 21.1911C4.21889 21.1354 4.15317 21.079 4.08806 21.0219C4.73208 21.5872 5.43703 22.0844 6.19191 22.5028L24.0001 12.0005L6.19195 1.49819Z" fill="#F0F0F0"/>
<path d="M5.1782 2.12691C4.81225 2.38032 4.46078 2.65299 4.12586 2.94441L11.9999 11.9996L4.12581 21.0549C4.46073 21.3463 4.8122 21.619 5.17815 21.8724L21.9458 11.9996L5.1782 2.12691Z" fill="#FFDA44"/>
<path d="M4.28493 2.80987C4.01817 3.03402 3.76073 3.26901 3.51454 3.51515L10.9564 12.0005L3.51454 20.4858C3.76073 20.732 4.01812 20.967 4.28493 21.1911L13.4755 12.0005L4.28493 2.80987Z" fill="black"/>
<path d="M3.51471 3.51428C-1.17157 8.20056 -1.17157 15.7986 3.51471 20.4849C5.45126 18.5484 7.31375 16.6859 12 11.9996L3.51471 3.51428Z" fill="#D80027"/>
</g>
<defs>
<clipPath id="clip0_1867_58222">
<rect width="24" height="24" fill="white"/>
</clipPath>
</defs>
</svg>
