<svg width="24" height="24" viewBox="0 0 24 24" fill="none" xmlns="http://www.w3.org/2000/svg">
<g clip-path="url(#clip0_1867_58240)">
<path d="M12 24C18.6274 24 24 18.6274 24 12C24 5.37258 18.6274 0 12 0C5.37258 0 0 5.37258 0 12C0 18.6274 5.37258 24 12 24Z" fill="#F0F0F0"/>
<path d="M12.0002 23.9987C16.7577 23.9987 20.8685 21.23 22.8095 17.2161H1.1909C3.13189 21.23 7.24264 23.9987 12.0002 23.9987Z" fill="#338AF3"/>
<path d="M12.0009 -0.000953674C7.24333 -0.000953674 3.13258 2.76772 1.19158 6.78167H22.8101C20.8691 2.76772 16.7583 -0.000953674 12.0009 -0.000953674Z" fill="#338AF3"/>
<path d="M7.3855 7.82445L7.774 9.02018H9.03124L8.01415 9.75912L8.40269 10.9549L7.3855 10.2159L6.36832 10.9549L6.75686 9.75912L5.73972 9.02018H6.99696L7.3855 7.82445Z" fill="#338AF3"/>
<path d="M7.3855 13.0425L7.774 14.2383H9.03124L8.01415 14.9772L8.40269 16.1729L7.3855 15.4339L6.36832 16.1729L6.75686 14.9772L5.73972 14.2383H6.99696L7.3855 13.0425Z" fill="#338AF3"/>
<path d="M16.6151 7.82445L17.0037 9.02018H18.2609L17.2438 9.75912L17.6323 10.9549L16.6151 10.2159L15.5979 10.9549L15.9865 9.75912L14.9693 9.02018H16.2266L16.6151 7.82445Z" fill="#338AF3"/>
<path d="M16.6151 13.0425L17.0037 14.2383H18.2609L17.2438 14.9772L17.6323 16.1729L16.6151 15.4339L15.5979 16.1729L15.9865 14.9772L14.9693 14.2383H16.2266L16.6151 13.0425Z" fill="#338AF3"/>
<path d="M12 10.4334L12.3885 11.6291H13.6457L12.6286 12.3681L13.0172 13.5638L12 12.8248L10.9828 13.5638L11.3713 12.3681L10.3542 11.6291H11.6114L12 10.4334Z" fill="#338AF3"/>
</g>
<defs>
<clipPath id="clip0_1867_58240">
<rect width="24" height="24" fill="white"/>
</clipPath>
</defs>
</svg>
