<svg width="24" height="24" viewBox="0 0 24 24" fill="none" xmlns="http://www.w3.org/2000/svg">
<g clip-path="url(#clip0_1867_57885)">
<path d="M24 12C24 10.5321 23.736 9.12602 23.2536 7.82609L12 7.30432L0.746391 7.82604C0.264047 9.12602 0 10.5321 0 12C0 13.4678 0.264047 14.8739 0.746391 16.1739L12 16.6956L23.2536 16.1739C23.736 14.8739 24 13.4678 24 12Z" fill="#F0F0F0"/>
<path d="M12 23.9995C17.1595 23.9995 21.5581 20.743 23.2536 16.1733H0.746353C2.44187 20.743 6.84038 23.9995 12 23.9995Z" fill="#0052B4"/>
<path d="M0.746185 7.82666H23.2534C21.5579 3.25705 17.1594 0.000549316 11.9998 0.000549316C6.84022 0.000549316 2.4417 3.25705 0.746185 7.82666Z" fill="#D80027"/>
<path d="M15.1301 8.34753H13.0431L13.391 5.7388L14.7823 4.69531L16.1735 5.7388V7.82576L15.1301 8.34753Z" fill="#338AF3"/>
<path d="M8.86921 8.34802H10.9562L10.6083 5.73928L9.21702 4.6958L7.82578 5.73928V7.82625L8.86921 8.34802Z" fill="#338AF3"/>
<path d="M13.3909 8.34777H10.6082V5.73904L11.9995 4.69556L13.3909 5.73904V8.34777Z" fill="#0052B4"/>
<path d="M7.82578 7.82574V13.5648C7.82578 14.9314 8.48587 16.1467 9.504 16.9085L10.2344 16.7258L11.1562 17.653C11.4288 17.7092 11.7108 17.7388 11.9997 17.7388C12.2871 17.7388 12.5677 17.7096 12.8388 17.654L13.891 16.7779L14.4953 16.9068C15.513 16.145 16.1736 14.931 16.1736 13.5648V7.82574H7.82578Z" fill="#F0F0F0"/>
<path d="M9.49557 7.82593H7.82602V9.49548H9.49557V7.82593Z" fill="#D80027"/>
<path d="M12.8347 7.82593H11.1652V9.49548H12.8347V7.82593Z" fill="#D80027"/>
<path d="M16.1741 7.82593H14.5046V9.49548H16.1741V7.82593Z" fill="#D80027"/>
<path d="M11.1648 9.495H9.49526V11.1645H11.1648V9.495Z" fill="#D80027"/>
<path d="M14.504 9.495H12.8344V11.1645H14.504V9.495Z" fill="#D80027"/>
<path d="M9.49557 11.1638H7.82602V12.8334H9.49557V11.1638Z" fill="#D80027"/>
<path d="M11.1648 12.8347H9.49526V14.5042H11.1648V12.8347Z" fill="#D80027"/>
<path d="M12.8347 11.1638H11.1652V12.8334H12.8347V11.1638Z" fill="#D80027"/>
<path d="M16.1741 11.1638H14.5046V12.8334H16.1741V11.1638Z" fill="#D80027"/>
<path d="M14.504 12.8347H12.8344V14.5042H14.504V12.8347Z" fill="#D80027"/>
<path d="M12.8347 14.5039H11.1652V16.1734H12.8347V14.5039Z" fill="#D80027"/>
<path d="M9.49543 14.5039H7.9336C8.07685 15.1245 8.35848 15.6924 8.74463 16.1734H9.49543V14.5039Z" fill="#D80027"/>
<path d="M14.5046 16.1736H15.2553C15.6416 15.6926 15.9231 15.1247 16.0663 14.5041H14.5046V16.1736Z" fill="#D80027"/>
<path d="M9.49526 16.1732V16.9016C9.98084 17.267 10.5483 17.529 11.1648 17.6547V16.1732H9.49526Z" fill="#D80027"/>
<path d="M12.8344 16.1732V17.6547C13.451 17.5291 14.0184 17.267 14.504 16.9016V16.1732H12.8344Z" fill="#D80027"/>
</g>
<defs>
<clipPath id="clip0_1867_57885">
<rect width="24" height="24" fill="white"/>
</clipPath>
</defs>
</svg>
