<svg width="24" height="24" viewBox="0 0 24 24" fill="none" xmlns="http://www.w3.org/2000/svg">
<g clip-path="url(#clip0_1867_58230)">
<path d="M24 12C24 18.6274 18.6274 24 12 24C5.37262 24 0 18.6274 0 12C0 5.37262 12 0 12 0C12 0 24 5.37262 24 12Z" fill="#A2001D"/>
<path d="M0 12C0 5.37262 5.37262 0 12 0C18.6274 0 24 5.37262 24 12" fill="#0052B4"/>
<path d="M16.1736 15.1305L11.9997 14.6088L7.82579 15.1305V8.86964H16.1736V15.1305Z" fill="#F0F0F0"/>
<path d="M11.9998 14.6083C13.1524 14.6083 14.0867 13.6739 14.0867 12.5213C14.0867 11.3687 13.1524 10.4343 11.9998 10.4343C10.8472 10.4343 9.91279 11.3687 9.91279 12.5213C9.91279 13.6739 10.8472 14.6083 11.9998 14.6083Z" fill="#0052B4"/>
<path d="M12.0003 13.5651C12.5766 13.5651 13.0438 13.098 13.0438 12.5217C13.0438 11.9454 12.5766 11.4782 12.0003 11.4782C11.424 11.4782 10.9568 11.9454 10.9568 12.5217C10.9568 13.098 11.424 13.5651 12.0003 13.5651Z" fill="#A2001D"/>
<path d="M10.4348 9.91328H13.5652L12 11.4785L10.4348 9.91328Z" fill="#6DA544"/>
<path d="M12.5221 10.9556H11.4786V14.086H12.5221V10.9556Z" fill="#FFDA44"/>
<path d="M13.6692 13.7746H10.33L7.82579 15.1311H16.1736L13.6692 13.7746Z" fill="#6DA544"/>
</g>
<defs>
<clipPath id="clip0_1867_58230">
<rect width="24" height="24" fill="white"/>
</clipPath>
</defs>
</svg>
