<svg width="24" height="24" viewBox="0 0 24 24" fill="none" xmlns="http://www.w3.org/2000/svg">
<g clip-path="url(#clip0_1867_58260)">
<path d="M0.745979 7.82524C0.263635 9.12527 -0.000411987 10.5313 -0.000411987 11.9991C-0.000411987 13.467 0.263635 14.8731 0.745979 16.173L11.9996 17.2165L23.2532 16.173C23.7355 14.8731 23.9996 13.467 23.9996 11.9991C23.9996 10.5313 23.7355 9.12527 23.2532 7.82524L11.9996 6.78175L0.745979 7.82524Z" fill="#F0F0F0"/>
<path d="M12.0004 -0.000946045C6.84085 -0.000946045 2.44229 3.25555 0.746819 7.82516H23.2541C21.5585 3.25555 17.16 -0.000946045 12.0004 -0.000946045Z" fill="#D80027"/>
<path d="M12.0004 23.9993C17.16 23.9993 21.5585 20.7428 23.254 16.1732H0.746819C2.44229 20.7428 6.84085 23.9993 12.0004 23.9993Z" fill="#6DA544"/>
</g>
<defs>
<clipPath id="clip0_1867_58260">
<rect width="24" height="24" fill="white"/>
</clipPath>
</defs>
</svg>
