<svg width="24" height="24" viewBox="0 0 24 24" fill="none" xmlns="http://www.w3.org/2000/svg">
<g clip-path="url(#clip0_1867_58310)">
<path d="M12 24C18.6274 24 24 18.6274 24 12C24 5.37258 18.6274 0 12 0C5.37258 0 0 5.37258 0 12C0 18.6274 5.37258 24 12 24Z" fill="#F0F0F0"/>
<path d="M16.518 9.39207H13.5056L11.9995 6.78339L10.4935 9.39207H7.48111L8.98739 12.0008L7.48111 14.6094H10.4935L11.9995 17.2181L13.5056 14.6094H16.518L15.0117 12.0008L16.518 9.39207ZM13.8499 12.0008L12.9248 13.6033H11.0744L10.1491 12.0008L11.0744 10.3982H12.9248L13.8499 12.0008ZM11.9995 8.79559L12.3439 9.39203H11.6553L11.9995 8.79559ZM9.22388 10.3982H9.91257L9.56822 10.9946L9.22388 10.3982ZM9.22388 13.6033L9.56827 13.0069L9.91261 13.6033H9.22388ZM11.9995 15.2059L11.6552 14.6094H12.3439L11.9995 15.2059ZM14.7752 13.6033H14.0865L14.4309 13.0069L14.7752 13.6033ZM14.0865 10.3982H14.7752L14.4309 10.9946L14.0865 10.3982Z" fill="#0052B4"/>
<path d="M19.4696 2.60907H4.52988C3.43474 3.48132 2.49555 4.54079 1.76102 5.73952H22.2385C21.5039 4.54084 20.5647 3.48132 19.4696 2.60907Z" fill="#0052B4"/>
<path d="M4.52992 21.3914H19.4696C20.5647 20.5191 21.5039 19.4597 22.2385 18.2609H1.76106C2.49564 19.4596 3.43483 20.5191 4.52992 21.3914Z" fill="#0052B4"/>
</g>
<defs>
<clipPath id="clip0_1867_58310">
<rect width="24" height="24" fill="white"/>
</clipPath>
</defs>
</svg>
