<svg width="24" height="24" viewBox="0 0 24 24" fill="none" xmlns="http://www.w3.org/2000/svg">
<g clip-path="url(#clip0_1867_57648)">
<path d="M12 24C18.6274 24 24 18.6274 24 12C24 5.37258 18.6274 0 12 0C5.37258 0 0 5.37258 0 12C0 18.6274 5.37258 24 12 24Z" fill="#F0F0F0"/>
<path d="M21.9999 13.4358C20.9999 13.4358 20.9999 12.5214 19.9999 12.5214C18.9999 12.5214 18.9999 13.4358 18 13.4358C17 13.4358 17 12.5214 16 12.5214C15 12.5214 15 13.4358 14 13.4358C13 13.4358 12.9999 12.5214 11.9999 12.5214C10.9999 12.5214 10.9999 13.4358 9.99994 13.4358C9.00009 13.4358 9.00009 12.5214 8.00011 12.5214C7.00003 12.5214 7.00003 13.4358 5.99995 13.4358C4.99987 13.4358 4.99987 12.5214 3.9998 12.5214C2.99995 12.5214 2.99995 13.4358 1.99997 13.4358C1.00537 13.4358 0.999609 12.5315 0.0156555 12.5218C0.0433586 13.0707 0.10889 13.6096 0.207984 14.1366C1.00505 14.2537 1.07484 15.0357 2.00006 15.0357C3.00005 15.0357 3.00005 14.1215 3.99989 14.1215C4.99997 14.1215 4.99997 15.0357 6.00005 15.0357C7.00012 15.0357 7.00012 14.1215 8.0002 14.1215C9.00019 14.1215 9.00019 15.0357 10 15.0357C11 15.0357 11 14.1215 12 14.1215C13 14.1215 13 15.0357 14.0001 15.0357C15.0002 15.0357 15.0002 14.1215 16.0001 14.1215C17.0001 14.1215 17.0001 15.0357 18 15.0357C19 15.0357 19 14.1215 20 14.1215C21 14.1215 21 15.0357 22 15.0357C22.9253 15.0357 22.995 14.2537 23.7922 14.1366C23.8913 13.6096 23.9567 13.0708 23.9846 12.5218C23.0004 12.5315 22.9945 13.4358 21.9999 13.4358Z" fill="#0052B4"/>
<path d="M20 15.6514C19 15.6514 19 16.5657 18 16.5657C17.0001 16.5657 17 15.6514 16.0001 15.6514C15.0001 15.6514 15.0001 16.5657 14.0001 16.5657C13 16.5657 13 15.6514 11.9999 15.6514C11 15.6514 11 16.5657 10 16.5657C9.00017 16.5657 9.00017 15.6514 8.00019 15.6514C7.00011 15.6514 7.00011 16.5657 6.00003 16.5657C4.99995 16.5657 4.99995 15.6514 3.99987 15.6514C3.00003 15.6514 3.00003 16.5657 2.00005 16.5657C1.26341 16.5657 1.06892 16.0699 0.617844 15.8087C0.891031 16.6252 1.24986 17.4023 1.68322 18.13C1.77706 18.1527 1.88141 18.1657 2 18.1657C2.99998 18.1657 2.99998 17.2515 3.99983 17.2515C4.99991 17.2515 4.99991 18.1657 5.99998 18.1657C7.00006 18.1657 7.00006 17.2515 8.00014 17.2515C9.00012 17.2515 9.00012 18.1657 9.99997 18.1657C11 18.1657 11 17.2515 11.9999 17.2515C13 17.2515 13 18.1657 14 18.1657C15.0001 18.1657 15.0001 17.2515 16.0001 17.2515C17 17.2515 17 18.1657 18 18.1657C18.9999 18.1657 19 17.2515 19.9999 17.2515C21 17.2515 21 18.1657 21.9999 18.1657C22.1186 18.1657 22.223 18.1527 22.3169 18.13C22.7503 17.4023 23.1091 16.6252 23.3823 15.8087C22.9312 16.0699 22.7367 16.5658 21.9999 16.5658C21 16.5657 21 15.6514 20 15.6514Z" fill="#0052B4"/>
<path d="M23.721 9.41946C22.99 9.57119 22.8968 10.306 22 10.306C21 10.306 21 9.39166 20 9.39166C19 9.39166 19 10.306 18.0001 10.306C17.0001 10.306 17.0001 9.39166 16.0002 9.39166C15.0002 9.39166 15.0002 10.306 14.0001 10.306C13.0001 10.306 13.0001 9.39166 12 9.39166C11.4597 9.39166 11.2112 9.65857 10.9393 9.904V11.504C11.2112 11.2586 11.4596 10.9917 12 10.9917C13.0001 10.9917 13.0001 11.906 14.0001 11.906C15.0002 11.906 15.0002 10.9917 16.0002 10.9917C17.0001 10.9917 17.0001 11.906 18.0001 11.906C19 11.906 19.0001 10.9917 20 10.9917C21.0001 10.9917 21.0001 11.906 22 11.906C22.9253 11.906 22.9951 11.124 23.7922 11.0069C23.8433 11.0069 23.9004 11.0064 23.9588 11.0057C23.9145 10.466 23.8344 9.93654 23.721 9.41946Z" fill="#0052B4"/>
<path d="M22.8444 6.85724C22.6372 7.03129 22.3976 7.17585 22 7.17585C21 7.17585 21 6.26151 20 6.26151C19 6.26151 19 7.17585 18.0001 7.17585C17.0001 7.17585 17.0001 6.26151 16.0002 6.26151C15.0002 6.26151 15.0002 7.17585 14.0001 7.17585C13.0001 7.17585 13.0001 6.26151 12 6.26151C11.4597 6.26151 11.2112 6.52841 10.9393 6.77385V8.37383C11.2112 8.12844 11.4596 7.86158 12 7.86158C13.0001 7.86158 13.0001 8.77583 14.0001 8.77583C15.0001 8.77583 15.0001 7.86158 16.0001 7.86158C17.0001 7.86158 17.0001 8.77583 18 8.77583C19 8.77583 19 7.86158 20 7.86158C21 7.86158 21 8.77583 22 8.77583C22.7095 8.77583 22.9162 8.31622 23.3334 8.04894C23.1912 7.64127 23.0279 7.24354 22.8444 6.85724Z" fill="#0052B4"/>
<path d="M20.0854 3.13263C20.0576 3.13113 20.0293 3.13019 19.9999 3.13019C19 3.13019 19 4.04453 18 4.04453C17 4.04453 17 3.13019 16.0001 3.13019C15.0001 3.13019 15.0001 4.04453 14 4.04453C13 4.04453 13 3.13019 11.9999 3.13019C11.4596 3.13019 11.2111 3.39709 10.9392 3.64253V5.24252C11.2111 4.99713 11.4595 4.73027 11.9999 4.73027C13 4.73027 13 5.64452 14 5.64452C15.0001 5.64452 15.0001 4.73027 16.0001 4.73027C17 4.73027 17 5.64452 18 5.64452C18.9999 5.64452 19 4.73027 19.9999 4.73027C21 4.73027 21 5.64452 21.9999 5.64452C22.0615 5.64452 22.119 5.64086 22.1735 5.63435C21.5927 4.70791 20.8893 3.86617 20.0854 3.13263Z" fill="#0052B4"/>
<path d="M15.0671 0.396218C14.7926 0.643156 14.5446 0.914374 13.9999 0.914374C12.9999 0.914374 12.9999 0.000124268 11.9998 3.05176e-05H11.9996C11.4825 7.73926e-05 11.2329 0.244624 10.9739 0.480827V2.08086C11.2328 1.84466 11.4826 1.60006 11.9998 1.60006C12.9999 1.60006 12.9999 2.51431 14 2.51431C15 2.51431 15 1.60006 16 1.60006C17 1.60006 17 2.51431 17.9999 2.51431C18.4195 2.51431 18.6629 2.35325 18.8781 2.16641C17.7374 1.36695 16.4512 0.761046 15.0671 0.396218Z" fill="#0052B4"/>
<path d="M14.0004 22.8273C13.0003 22.8273 13.0003 21.9129 12.0003 21.9129C11.0003 21.9129 11.0003 22.8273 10.0003 22.8273C9.00049 22.8273 9.00049 21.9129 8.00051 21.9129C7.23452 21.9129 7.05485 22.4489 6.5636 22.7C7.91829 23.3898 9.42143 23.8294 11.0124 23.9591C11.2584 23.7343 11.5084 23.5129 12.0003 23.5129C12.4923 23.5129 12.7422 23.7343 12.9883 23.9592C14.5793 23.8295 16.0826 23.3898 17.4373 22.7001C16.9459 22.449 16.7663 21.9129 16.0004 21.9129C15.0005 21.9129 15.0005 22.8273 14.0004 22.8273Z" fill="#0052B4"/>
<path d="M18.0002 19.6976C17.0002 19.6976 17.0002 18.7833 16.0003 18.7833C15.0003 18.7833 15.0003 19.6976 14.0003 19.6976C13.0002 19.6976 13.0002 18.7833 12.0001 18.7833C11.0001 18.7833 11.0001 19.6976 10.0002 19.6976C9.00035 19.6976 9.00035 18.7833 8.00036 18.7833C7.00028 18.7833 7.00028 19.6976 6.00021 19.6976C5.00013 19.6976 5.00013 18.7833 4.00005 18.7833C3.28094 18.7833 3.079 19.2563 2.65033 19.5218C2.91902 19.8555 3.20467 20.1749 3.50697 20.4777C3.64239 20.4198 3.8013 20.3833 4 20.3833C5.00008 20.3833 5.00008 21.2976 6.00016 21.2976C7.00024 21.2976 7.00024 20.3833 8.00031 20.3833C9.0003 20.3833 9.0003 21.2976 10.0001 21.2976C11.0001 21.2976 11.0001 20.3833 12.0001 20.3833C13.0001 20.3833 13.0001 21.2976 14.0002 21.2976C15.0003 21.2976 15.0003 20.3833 16.0002 20.3833C17.0002 20.3833 17.0002 21.2976 18.0002 21.2976C19.0001 21.2976 19.0001 20.3833 20.0001 20.3833C20.199 20.3833 20.3579 20.4198 20.4934 20.4778C20.7958 20.1749 21.0814 19.8555 21.3501 19.5219C20.9214 19.2564 20.7195 18.7833 20.0001 18.7833C19.0001 18.7833 19.0001 19.6976 18.0002 19.6976Z" fill="#0052B4"/>
<path d="M11.9675 11.9991H11.9997C11.9997 11.9883 11.9997 11.9778 11.9997 11.9669C11.9889 11.9777 11.9782 11.9884 11.9675 11.9991Z" fill="#F0F0F0"/>
<path d="M11.9996 6.26153V9.78714L7.82573 5.73981L11.9996 6.26153Z" fill="#0052B4"/>
<path d="M6.2606 12.0005H9.78606L6.26055 7.30487L5.73883 10.957L6.2606 12.0005Z" fill="#0052B4"/>
<path d="M12 6.26086C12 4.14937 12 2.76586 12 0H11.998C5.3715 0.001125 0 5.37323 0 12H6.2609V8.47448L9.78637 12H11.9679C11.9786 11.9893 11.9893 11.9786 12 11.9679C12 11.1594 12 10.4381 12 9.78647L8.47443 6.26086H12Z" fill="#F0F0F0"/>
<path d="M6.07127 1.56418C4.19444 2.63288 2.63416 4.19316 1.56546 6.06999V11.999H4.69591V4.69473V4.69463H12.0003C12.0003 3.7073 12.0003 2.76671 12.0003 1.56418H6.07127Z" fill="#D80027"/>
<path d="M11.9999 10.5234L7.73643 6.26001H6.2608V6.2601L11.9999 11.9991H11.9999C11.9999 11.9991 11.9999 10.9816 11.9999 10.5234Z" fill="#D80027"/>
<path d="M15.652 6.26096H20.3477L17.9999 8.60879L15.652 6.26096Z" fill="#6DA544"/>
<path d="M18.5222 8.08646H17.4787V10.956H18.5222V8.08646Z" fill="#A2001D"/>
<path d="M18.5212 15.6519H17.4777V18.5215H18.5212V15.6519Z" fill="#A2001D"/>
<path d="M21.1304 14.0873C21.1304 13.2229 20.4297 12.5221 19.5652 12.5221C19.1643 12.5221 18.7987 12.6731 18.5218 12.921V12.0004H19.0435V10.9569H18.5218V10.4352H17.4783V10.9569H16.9566V12.0004H17.4783V12.921C17.2013 12.6731 16.8358 12.5221 16.4348 12.5221C15.5704 12.5221 14.8696 13.2229 14.8696 14.0873C14.8696 14.5508 15.0712 14.967 15.3913 15.2537V16.1743H20.6087V15.2537C20.9288 14.967 21.1304 14.5508 21.1304 14.0873Z" fill="#FFDA44"/>
<path d="M19.5648 13.5649C19.4002 13.5649 19.285 13.6372 19.2172 13.6978L18.5213 14.3208H17.4778L16.7819 13.6978C16.7142 13.6372 16.5989 13.5649 16.4344 13.5649C16.1467 13.5649 15.9126 13.799 15.9126 14.0866C15.9126 14.2893 16.0219 14.4173 16.087 14.4756L16.4344 14.7867V15.1301H19.5649V14.7867L19.9122 14.4756C19.9774 14.4173 20.0866 14.2893 20.0866 14.0866C20.0865 13.799 19.8525 13.5649 19.5648 13.5649Z" fill="#D80027"/>
</g>
<defs>
<clipPath id="clip0_1867_57648">
<rect width="24" height="24" fill="white"/>
</clipPath>
</defs>
</svg>
