<svg width="24" height="24" viewBox="0 0 24 24" fill="none" xmlns="http://www.w3.org/2000/svg">
<g clip-path="url(#clip0_1867_58292)">
<path d="M12 24C18.6274 24 24 18.6274 24 12C24 5.37258 18.6274 0 12 0C5.37258 0 0 5.37258 0 12C0 18.6274 5.37258 24 12 24Z" fill="#F0F0F0"/>
<path d="M11.9998 -0.000671387C6.84022 -0.000671387 2.4417 3.25583 0.746185 7.82544H23.2534C21.5579 3.25583 17.1594 -0.000671387 11.9998 -0.000671387Z" fill="#A2001D"/>
<path d="M12 24.0006C17.1595 24.0006 21.5581 20.7441 23.2536 16.1745H0.746353C2.44187 20.7441 6.84038 24.0006 12 24.0006Z" fill="black"/>
<path d="M9.13046 11.2186C9.1239 11.2186 9.11747 11.219 9.11091 11.2191V11.2186H6.81699C6.93329 10.7692 7.34101 10.4359 7.82611 10.4359V8.87073C6.38766 8.87073 5.21743 10.041 5.21743 11.4794V12.7577V12.7838H9.11091C9.11972 12.7838 9.12666 12.7838 9.13046 12.7838C9.27432 12.7838 9.39132 12.9009 9.39132 13.0447V13.5664H4.1739V15.1316H10.9565V13.0446C10.9565 12.0377 10.1373 11.2186 9.13046 11.2186Z" fill="#496E2D"/>
<path d="M13.0438 13.5657V8.87H11.4786V15.1309H14.0872V13.5657H13.0438Z" fill="#496E2D"/>
<path d="M18.2607 13.5657V8.87H16.6955V13.5657H16.1737V12.0005H14.6085V15.1309H19.3042V13.5657H18.2607Z" fill="#496E2D"/>
</g>
<defs>
<clipPath id="clip0_1867_58292">
<rect width="24" height="24" fill="white"/>
</clipPath>
</defs>
</svg>
