<svg width="24" height="24" viewBox="0 0 24 24" fill="none" xmlns="http://www.w3.org/2000/svg">
<g clip-path="url(#clip0_1867_58286)">
<path d="M12 24C18.6274 24 24 18.6274 24 12C24 5.37258 18.6274 0 12 0C5.37258 0 0 5.37258 0 12C0 18.6274 5.37258 24 12 24Z" fill="#F0F0F0"/>
<path d="M15.8978 8.86968H14.3277C14.3407 9.04222 14.3481 9.21632 14.3481 9.39139C14.3481 10.5522 14.0579 11.6774 13.5521 12.4783C13.396 12.7253 13.1338 13.0741 12.7828 13.3094V8.86963H11.2176V13.3094C10.8667 13.0741 10.6044 12.7253 10.4484 12.4783C9.94248 11.6774 9.65237 10.5522 9.65237 9.39139C9.65237 9.21632 9.65977 9.04218 9.67271 8.86968H8.10268C8.0926 9.04138 8.08712 9.21529 8.08712 9.39139C8.08712 12.6096 9.80593 15.1305 12.0001 15.1305C14.1944 15.1305 15.9132 12.6096 15.9132 9.39139C15.9133 9.21529 15.9078 9.04138 15.8978 8.86968Z" fill="#D80027"/>
<path d="M4.95687 5.73819H6.52207V6.78168H8.08727V5.73819H9.65248V6.78168H11.2177V5.73819H12.7829V6.78168H14.3481V5.73819H15.9133V6.78168H17.4785V5.73819H19.0437V6.78168H22.8095C20.8686 2.76773 16.7578 -0.000946045 12.0004 -0.000946045C7.24287 -0.000946045 3.13207 2.76773 1.19107 6.78168H4.95687V5.73819Z" fill="#6DA544"/>
<path d="M19.0438 17.217V18.2605H17.4786V17.217H15.9134V18.2605H14.3482V17.217H12.783V18.2605H11.2178V17.217H9.65262V18.2605H8.08741V17.217H6.52207V18.2605H4.95687V17.217H1.19107C3.13207 21.231 7.24282 23.9997 12.0004 23.9997C16.7579 23.9997 20.8686 21.231 22.8096 17.217H19.0438Z" fill="#D80027"/>
</g>
<defs>
<clipPath id="clip0_1867_58286">
<rect width="24" height="24" fill="white"/>
</clipPath>
</defs>
</svg>
