<svg width="24" height="24" viewBox="0 0 24 24" fill="none" xmlns="http://www.w3.org/2000/svg">
<g clip-path="url(#clip0_1867_58265)">
<path d="M12 24C18.6274 24 24 18.6274 24 12C24 5.37258 18.6274 0 12 0C5.37258 0 0 5.37258 0 12C0 18.6274 5.37258 24 12 24Z" fill="#F0F0F0"/>
<path d="M0.413284 15.1301C1.1076 17.7063 2.63783 19.9392 4.69555 21.5202V15.1301H0.413284Z" fill="#0052B4"/>
<path d="M10.9562 23.954C11.3002 23.9836 11.6481 23.9997 11.9997 23.9997C17.5441 23.9997 22.2093 20.2393 23.5863 15.1301H10.9562V23.954Z" fill="#0052B4"/>
<path d="M23.5863 8.86915C22.2093 3.75996 17.5441 -0.000396729 11.9997 -0.000396729C11.6481 -0.000396729 11.3002 0.0156345 10.9562 0.0452595V8.86915H23.5863Z" fill="#0052B4"/>
<path d="M4.69555 2.47937C2.63783 4.06046 1.1076 6.29326 0.413284 8.86946H4.69555V2.47937Z" fill="#0052B4"/>
<path d="M23.8981 10.4352H9.39106H9.39102V0.285614C8.28205 0.53152 7.23069 0.930098 6.26056 1.45946V10.4351H0.101281C0.0344837 10.9475 -0.000297546 11.4699 -0.000297546 12.0004C-0.000297546 12.5309 0.0344837 13.0532 0.101281 13.5656H6.26051H6.26056V22.5413C7.23069 23.0706 8.28205 23.4692 9.39102 23.7151V13.5657V13.5656H23.8981C23.9648 13.0532 23.9997 12.5309 23.9997 12.0004C23.9997 11.4699 23.9648 10.9475 23.8981 10.4352Z" fill="#D80027"/>
</g>
<defs>
<clipPath id="clip0_1867_58265">
<rect width="24" height="24" fill="white"/>
</clipPath>
</defs>
</svg>
