<svg width="24" height="24" viewBox="0 0 24 24" fill="none" xmlns="http://www.w3.org/2000/svg">
<g clip-path="url(#clip0_1867_58333)">
<path d="M12 24C18.6274 24 24 18.6274 24 12C24 5.37258 18.6274 0 12 0C5.37258 0 0 5.37258 0 12C0 18.6274 5.37258 24 12 24Z" fill="#F0F0F0"/>
<path d="M21.5204 19.3072L14.2138 12.0006H14.2138L21.5204 4.69385C21.2053 4.28435 20.8606 3.89036 20.4855 3.51522C20.1104 3.14013 19.7165 2.79536 19.3069 2.48032L12.0003 9.78696L12.0002 9.787L4.69358 2.48032C4.28413 2.79541 3.8901 3.14008 3.51495 3.51522C3.13981 3.89036 2.7951 4.28435 2.48005 4.69385L9.78669 12.0004L9.78674 12.0005L2.48 19.3072C2.79514 19.7167 3.13986 20.1107 3.51491 20.4858C3.89005 20.8609 4.28399 21.2057 4.69353 21.5208L12.0002 14.2141L12.0003 14.2141L19.3069 21.5207C19.7164 21.2056 20.1104 20.8609 20.4855 20.4858C20.8607 20.1107 21.2053 19.7167 21.5204 19.3072Z" fill="#D80027"/>
<path d="M9.9126 3.65285L11.9996 4.17456L14.0865 3.65285V1.87896L13.2517 2.29633L11.9996 1.04416L10.7474 2.29633L9.9126 1.87896V3.65285Z" fill="#FFDA44"/>
<path d="M9.9126 3.65289V4.95733C9.9126 6.55483 11.9996 7.0443 11.9996 7.0443C11.9996 7.0443 14.0865 6.55478 14.0865 4.95733V3.65289H9.9126Z" fill="#D80027"/>
</g>
<defs>
<clipPath id="clip0_1867_58333">
<rect width="24" height="24" fill="white"/>
</clipPath>
</defs>
</svg>
