<svg width="24" height="24" viewBox="0 0 24 24" fill="none" xmlns="http://www.w3.org/2000/svg">
<g clip-path="url(#clip0_1867_58322)">
<path d="M12 24C18.6274 24 24 18.6274 24 12C24 5.37258 18.6274 0 12 0C5.37258 0 0 5.37258 0 12C0 18.6274 5.37258 24 12 24Z" fill="#FFDA44"/>
<path d="M19.3056 2.48075C17.2821 0.925388 14.7493 0.00012207 11.9999 0.00012207C9.25045 0.00012207 6.71751 0.925434 4.69406 2.48075L11.9999 9.7865L19.3056 2.48075Z" fill="#6DA544"/>
<path d="M2.48028 4.6936C0.925017 6.71706 -0.000295639 9.24995 -0.000295639 11.9994C-0.000295639 14.7488 0.925017 17.2817 2.48033 19.3052L9.78613 11.9994L2.48028 4.6936Z" fill="black"/>
<path d="M4.69406 21.5188C6.71756 23.0741 9.25045 23.9994 11.9999 23.9994C14.7493 23.9994 17.2821 23.0741 19.3056 21.5188L11.9999 14.213L4.69406 21.5188Z" fill="#6DA544"/>
<path d="M21.5193 19.3051C23.0747 17.2816 23.9999 14.7488 23.9999 11.9994C23.9999 9.24995 23.0747 6.71706 21.5193 4.6936L14.2135 11.9994L21.5193 19.3051Z" fill="black"/>
</g>
<defs>
<clipPath id="clip0_1867_58322">
<rect width="24" height="24" fill="white"/>
</clipPath>
</defs>
</svg>
