<svg width="24" height="24" viewBox="0 0 24 24" fill="none" xmlns="http://www.w3.org/2000/svg">
<g clip-path="url(#clip0_1867_58339)">
<path d="M12 24C18.6274 24 24 18.6274 24 12C24 5.37258 18.6274 0 12 0C5.37258 0 0 5.37258 0 12C0 18.6274 5.37258 24 12 24Z" fill="#F0F0F0"/>
<path d="M7.30431 7.82626H23.2535C21.5581 3.25665 17.1595 0.000152588 12 0.000152588C8.68619 0.000152588 5.68652 1.34354 3.51508 3.51526L7.30431 7.82626Z" fill="black"/>
<path d="M7.30431 16.1745H23.2535C21.5581 20.7441 17.1595 24.0006 12 24.0006C8.68619 24.0006 5.68652 22.6572 3.51508 20.4855L7.30431 16.1745Z" fill="#6DA544"/>
<path d="M3.51476 3.51379C-1.17153 8.20008 -1.17153 15.7981 3.51476 20.4844C5.45131 18.5479 7.31379 16.6854 12.0001 11.9991L3.51476 3.51379Z" fill="#D80027"/>
<path d="M4.76281 9.39175L5.42135 10.7689L6.90865 10.4252L6.24256 11.7986L7.43857 12.7471L5.94949 13.0827L5.95362 14.6091L4.76281 13.6541L3.57195 14.6091L3.57612 13.0827L2.08704 12.7471L3.28301 11.7986L2.61701 10.4252L4.10421 10.7689L4.76281 9.39175Z" fill="#F0F0F0"/>
</g>
<defs>
<clipPath id="clip0_1867_58339">
<rect width="24" height="24" fill="white"/>
</clipPath>
</defs>
</svg>
