<svg width="24" height="24" viewBox="0 0 24 24" fill="none" xmlns="http://www.w3.org/2000/svg">
<g clip-path="url(#clip0_1867_58352)">
<path d="M12 24C18.6274 24 24 18.6274 24 12C24 5.37258 18.6274 0 12 0C5.37258 0 0 5.37258 0 12C0 18.6274 5.37258 24 12 24Z" fill="#F0F0F0"/>
<path d="M12.0003 -0.000732422C7.24279 -0.000732422 3.13204 2.76794 1.19104 6.78189H22.8096C20.8686 2.76794 16.7578 -0.000732422 12.0003 -0.000732422Z" fill="black"/>
<path d="M12.0003 24.0001C7.24279 24.0001 3.13204 21.2314 1.19104 17.2175H22.8096C20.8686 21.2314 16.7578 24.0001 12.0003 24.0001Z" fill="#496E2D"/>
<path d="M23.4334 8.34708H0.566785C0.199192 9.49875 0.000113487 10.7257 0.000113487 11.9992C0.000113487 13.2728 0.199192 14.4997 0.566785 15.6514H23.4334C23.801 14.4997 24.0001 13.2728 24.0001 11.9992C24.0001 10.7257 23.801 9.49875 23.4334 8.34708Z" fill="#A2001D"/>
<path d="M15.7368 5.54511L14.3157 4.88919L12.0002 10.1322L9.68464 4.88919L8.26353 5.54511L11.1383 11.9998L8.26353 18.4544L9.68464 19.1103L12.0002 13.8673L14.3157 19.1103L15.7368 18.4544L12.8621 11.9998L15.7368 5.54511Z" fill="#F0F0F0"/>
<path d="M12.9654 6.16324C12.4152 5.56245 12.0002 5.21707 12.0002 5.21707C12.0002 5.21707 11.5851 5.5624 11.0349 6.16324V17.8361C11.5851 18.4369 12.0002 18.7823 12.0002 18.7823C12.0002 18.7823 12.4152 18.437 12.9654 17.8361V6.16324Z" fill="#F0F0F0"/>
<path d="M9.39165 8.40226V15.5981C9.97299 16.6282 10.6845 17.4725 11.2178 18.0323V5.96814C10.6845 6.52787 9.97294 7.37223 9.39165 8.40226Z" fill="#A2001D"/>
<path d="M14.6088 8.40284C14.0274 7.37277 13.3159 6.52845 12.7827 5.96872V18.0329C13.3159 17.4731 14.0274 16.6288 14.6088 15.5987V8.40284Z" fill="#A2001D"/>
<path d="M14.6087 8.40091V15.5968C15.1972 14.5539 15.6522 13.3206 15.6522 11.9989C15.6522 10.6772 15.1972 9.44388 14.6087 8.40091Z" fill="black"/>
<path d="M9.39129 8.40091V15.5968C8.80277 14.5539 8.34781 13.3206 8.34781 11.9989C8.34781 10.6772 8.80277 9.44388 9.39129 8.40091Z" fill="black"/>
</g>
<defs>
<clipPath id="clip0_1867_58352">
<rect width="24" height="24" fill="white"/>
</clipPath>
</defs>
</svg>
