<svg width="24" height="24" viewBox="0 0 24 24" fill="none" xmlns="http://www.w3.org/2000/svg">
<g clip-path="url(#clip0_1867_58384)">
<path d="M12 24C18.6274 24 24 18.6274 24 12C24 5.37258 18.6274 0 12 0C5.37258 0 0 5.37258 0 12C0 18.6274 5.37258 24 12 24Z" fill="#D80027"/>
<path d="M17.8682 12L15.4703 13.1279L16.7472 15.4504L14.1432 14.9522L13.8133 17.5826L11.9995 15.6481L10.1858 17.5826L9.85587 14.9522L7.25206 15.4503L8.52894 13.1278L6.13095 12L8.52894 10.8722L7.25206 8.54959L9.85578 9.04787L10.1859 6.41739L11.9995 8.35197L13.8134 6.41739L14.1432 9.04787L16.7473 8.54959L15.4703 10.8723L17.8682 12Z" fill="#FFDA44"/>
<path d="M12.0002 15.6514C14.0173 15.6514 15.6524 14.0163 15.6524 11.9992C15.6524 9.98219 14.0173 8.34706 12.0002 8.34706C9.98319 8.34706 8.34806 9.98219 8.34806 11.9992C8.34806 14.0163 9.98319 15.6514 12.0002 15.6514Z" fill="#D80027"/>
<path d="M10.1742 12.0005C10.0862 12.0005 9.99933 12.005 9.9136 12.0135C9.91674 12.5193 10.0997 12.9823 10.402 13.342C10.5632 12.908 10.804 12.5124 11.1076 12.1738C10.8176 12.0622 10.5031 12.0005 10.1742 12.0005Z" fill="#FFDA44"/>
<path d="M11.2984 13.9671C11.5178 14.0455 11.754 14.0884 12.0004 14.0884C12.2468 14.0884 12.483 14.0455 12.7023 13.9671C12.5828 13.4978 12.3359 13.0788 12.0004 12.7495C11.6649 13.0787 11.418 13.4978 11.2984 13.9671Z" fill="#FFDA44"/>
<path d="M13.8078 10.9573C13.447 10.3336 12.7731 9.91351 12.0006 9.91351C11.2281 9.91351 10.5541 10.3336 10.1933 10.9573C10.8511 10.9607 11.468 11.1395 12.0006 11.4484C12.5331 11.1395 13.1499 10.9607 13.8078 10.9573Z" fill="#FFDA44"/>
<path d="M12.8927 12.174C13.1963 12.5125 13.437 12.9082 13.5983 13.3422C13.9005 12.9825 14.0835 12.5195 14.0867 12.0137C14.0009 12.0051 13.914 12.0007 13.8261 12.0007C13.4973 12.0006 13.1827 12.0624 12.8927 12.174Z" fill="#FFDA44"/>
</g>
<defs>
<clipPath id="clip0_1867_58384">
<rect width="24" height="24" fill="white"/>
</clipPath>
</defs>
</svg>
