<svg width="24" height="24" viewBox="0 0 24 24" fill="none" xmlns="http://www.w3.org/2000/svg">
<g clip-path="url(#clip0_1867_57739)">
<path d="M0.000228882 12.0008C0.000228882 14.0797 0.52912 16.0351 1.45931 17.74L12.0002 18.7835L22.5411 17.74C23.4713 16.0351 24.0002 14.0797 24.0002 12.0008C24.0002 9.92193 23.4713 7.96659 22.5411 6.2617L12.0002 5.21822L1.45931 6.2617C0.52912 7.96659 0.000228882 9.92193 0.000228882 12.0008Z" fill="#D80027"/>
<path d="M1.45906 6.26125H22.5409C20.5056 2.53112 16.5485 0.000389099 12 0.000389099C7.45147 0.000389099 3.49433 2.53112 1.45906 6.26125Z" fill="#0052B4"/>
<path d="M12 24.0008C16.5485 24.0008 20.5057 21.4701 22.5409 17.74H1.45909C3.49436 21.4701 7.4515 24.0008 12 24.0008Z" fill="#0052B4"/>
<path d="M16.1743 14.3474V12.7822H15.1309V10.6952L14.0874 9.65173L13.0439 10.6952V8.60824L12.0004 7.56476L10.9569 8.60824V10.6952L9.91344 9.65173L8.86996 10.6952V12.7822H7.82652V14.3474H6.78304V15.9126H17.2178V14.3474H16.1743Z" fill="#F0F0F0"/>
</g>
<defs>
<clipPath id="clip0_1867_57739">
<rect width="24" height="24" fill="white"/>
</clipPath>
</defs>
</svg>
