<svg width="24" height="24" viewBox="0 0 24 24" fill="none" xmlns="http://www.w3.org/2000/svg">
<g clip-path="url(#clip0_1867_58366)">
<path d="M0 12C0 5.37262 5.37262 0 12 0C18.6274 0 24 5.37262 24 12" fill="#D80027"/>
<path d="M16.1734 11.16L14.4679 11.9622L15.3761 13.614L13.5241 13.2597L13.2895 15.1306L11.9995 13.7546L10.7095 15.1306L10.4749 13.2597L8.62293 13.6139L9.53113 11.9622L7.82563 11.16L9.53113 10.3577L8.62293 8.70608L10.4749 9.06027L10.7096 7.18948L11.9995 8.56541L13.2895 7.18948L13.5241 9.06027L15.3762 8.70608L14.468 10.3579L16.1734 11.16Z" fill="#FFDA44"/>
<path d="M15.1305 3.91303H12.7826C12.7826 3.48089 12.4322 3.1304 12 3.1304C11.5678 3.1304 11.2174 3.48084 11.2174 3.91303H8.86957C8.86957 4.34521 9.24606 4.69565 9.67825 4.69565H9.65214C9.65214 5.12784 10.0025 5.47828 10.4348 5.47828C10.4348 5.91046 10.7851 6.2609 11.2174 6.2609H12.7826C13.2147 6.2609 13.5652 5.91051 13.5652 5.47828C13.9974 5.47828 14.3478 5.12788 14.3478 4.69565H14.3217C14.754 4.69565 15.1305 4.34526 15.1305 3.91303Z" fill="#FFDA44"/>
<path d="M24.0002 11.9996C24.0002 18.627 18.6276 23.9996 12.0002 23.9996C5.37285 23.9996 0.000226974 18.627 0.000226974 11.9996C0.521946 11.9996 24.0002 11.9996 24.0002 11.9996Z" fill="#F0F0F0"/>
<path d="M12.0005 24.0005C15.7515 24.0005 19.1 22.279 21.3006 19.5835C20.9048 19.3137 20.6911 18.8775 20.0003 18.8775C19.0003 18.8775 19.0003 19.7918 18.0004 19.7918C17.0005 19.7918 17.0004 18.8775 16.0005 18.8775C15.0005 18.8775 15.0005 19.7918 14.0005 19.7918C13.0004 19.7918 13.0004 18.8775 12.0003 18.8775C11.0003 18.8775 11.0003 19.7918 10.0004 19.7918C9.00053 19.7918 9.00053 18.8775 8.00055 18.8775C7.00047 18.8775 7.00047 19.7918 6.00039 19.7918C5.00032 19.7918 5.00032 18.8775 4.00024 18.8775C3.30958 18.8775 3.09588 19.3136 2.70025 19.5834C4.90075 22.279 8.24941 24.0005 12.0005 24.0005Z" fill="#0052B4"/>
<path d="M22 13.5312C21 13.5312 21 12.6168 20 12.6168C19 12.6168 19 13.5312 18 13.5312C17.0001 13.5312 17 12.6168 16.0001 12.6168C15.0001 12.6168 15.0001 13.5312 14.0001 13.5312C13.0001 13.5312 13 12.6168 11.9999 12.6168C11 12.6168 11 13.5312 10 13.5312C9.00017 13.5312 9.00017 12.6168 8.00019 12.6168C7.00011 12.6168 7.00011 13.5312 6.00003 13.5312C4.99995 13.5312 4.99995 12.6168 3.99988 12.6168C3.00003 12.6168 3.00003 13.5312 2.00005 13.5312C1.00545 13.5312 0.999689 12.6269 0.0157356 12.6173C0.0434387 13.1662 0.10897 13.705 0.208064 14.232C1.00513 14.3491 1.07492 15.1312 2.00009 15.1312C3.00008 15.1312 3.00008 14.2169 3.99992 14.2169C5 14.2169 5 15.1312 6.00008 15.1312C7.00016 15.1312 7.00016 14.2169 8.00024 14.2169C9.00022 14.2169 9.00022 15.1312 10.0001 15.1312C11 15.1312 11 14.2169 12 14.2169C13.0001 14.2169 13.0001 15.1312 14.0001 15.1312C15.0002 15.1312 15.0002 14.2169 16.0002 14.2169C17.0001 14.2169 17.0001 15.1312 18.0001 15.1312C19 15.1312 19.0001 14.2169 20 14.2169C21.0001 14.2169 21.0001 15.1312 22 15.1312C22.9253 15.1312 22.9951 14.3492 23.7922 14.232C23.8913 13.705 23.9568 13.1662 23.9846 12.6173C23.0005 12.627 22.9946 13.5312 22 13.5312Z" fill="#0052B4"/>
<path d="M20.0002 15.7477C19.0002 15.7477 19.0002 16.662 18.0003 16.662C17.0003 16.662 17.0003 15.7477 16.0003 15.7477C15.0003 15.7477 15.0003 16.662 14.0003 16.662C13.0002 16.662 13.0002 15.7477 12.0002 15.7477C11.0002 15.7477 11.0002 16.662 10.0002 16.662C9.00039 16.662 9.00039 15.7477 8.00041 15.7477C7.00033 15.7477 7.00033 16.662 6.00025 16.662C5.00017 16.662 5.00017 15.7477 4.0001 15.7477C3.00025 15.7477 3.00025 16.662 2.00027 16.662C1.28575 16.662 1.08166 16.1954 0.658611 15.9287C0.940236 16.7424 1.30661 17.5165 1.74785 18.24C1.82458 18.2542 1.90811 18.262 2.00027 18.262C3.00025 18.262 3.00025 17.3478 4.0001 17.3478C5.00017 17.3478 5.00017 18.262 6.00025 18.262C7.00033 18.262 7.00033 17.3478 8.00041 17.3478C9.00039 17.3478 9.00039 18.262 10.0002 18.262C11.0002 18.262 11.0002 17.3478 12.0002 17.3478C13.0002 17.3478 13.0002 18.262 14.0003 18.262C15.0004 18.262 15.0004 17.3478 16.0003 17.3478C17.0003 17.3478 17.0003 18.262 18.0003 18.262C19.0002 18.262 19.0002 17.3478 20.0002 17.3478C21.0003 17.3478 21.0003 18.262 22.0002 18.262C22.0924 18.262 22.176 18.2542 22.2527 18.24C22.6939 17.5165 23.0603 16.7424 23.342 15.9288C22.9189 16.1953 22.7148 16.662 22.0002 16.662C21.0003 16.662 21.0003 15.7477 20.0002 15.7477Z" fill="#0052B4"/>
<path d="M23.963 11.051C23.0007 11.0738 22.9874 11.9643 22.0001 11.9643C21.0001 11.9643 21.0001 11.05 20.0001 11.05C19.0001 11.05 19.0001 11.9643 18.0001 11.9643C17.0002 11.9643 17.0001 11.05 16.0002 11.05C15.0002 11.05 15.0002 11.9643 14.0002 11.9643C13.0002 11.9643 13.0001 11.05 12 11.05C11.0001 11.05 11.0001 11.9643 10.0001 11.9643C9.00027 11.9643 9.00027 11.05 8.00029 11.05C7.00021 11.05 7.00021 11.9643 6.00013 11.9643C5.00006 11.9643 5.00006 11.05 3.99998 11.05C3.00013 11.05 3.00013 11.9643 2.00015 11.9643C1.01301 11.9643 0.999649 11.0739 0.0373988 11.051C0.012977 11.3639 0.000226974 11.68 0.000226974 11.9991C0.000226974 12.2177 0.00641447 12.4348 0.0180863 12.6505C0.99979 12.6615 1.00631 13.5643 2.0002 13.5643C3.00018 13.5643 3.00018 12.65 4.00002 12.65C5.0001 12.65 5.0001 13.5643 6.00018 13.5643C7.00026 13.5643 7.00026 12.65 8.00034 12.65C9.00032 12.65 9.00032 13.5643 10.0002 13.5643C11.0001 13.5643 11.0001 12.65 12.0001 12.65C13.0002 12.65 13.0002 13.5643 14.0002 13.5643C15.0003 13.5643 15.0003 12.65 16.0003 12.65C17.0002 12.65 17.0002 13.5643 18.0002 13.5643C19.0001 13.5643 19.0002 12.65 20.0001 12.65C21.0002 12.65 21.0002 13.5643 22.0001 13.5643C22.9941 13.5643 23.0006 12.6615 23.9825 12.6505C23.994 12.4348 24.0002 12.2177 24.0002 11.9991C24.0002 11.68 23.9875 11.3639 23.963 11.051Z" fill="#F0F0F0"/>
</g>
<defs>
<clipPath id="clip0_1867_58366">
<rect width="24" height="24" fill="white"/>
</clipPath>
</defs>
</svg>
