<svg width="24" height="24" viewBox="0 0 24 24" fill="none" xmlns="http://www.w3.org/2000/svg">
<g clip-path="url(#clip0_1867_57846)">
<path d="M12 24C18.6274 24 24 18.6274 24 12C24 5.37258 18.6274 0 12 0C5.37258 0 0 5.37258 0 12C0 18.6274 5.37258 24 12 24Z" fill="#F0F0F0"/>
<path d="M23.9994 11.9653H10.9911C8.40847 14.548 6.84669 16.5419 5.252 18.1366L12.0346 18.7478L22.5597 17.7044C23.4782 16.0077 23.9998 14.0648 23.9998 12C23.9998 11.9884 23.9994 11.9769 23.9994 11.9653Z" fill="#D80027"/>
<path d="M5.25263 6.22558H22.5219C20.4811 2.51458 16.5347 -0.000549316 12.0004 -0.000549316C8.6955 -0.000549316 5.70319 1.3359 3.53311 3.49745L5.25263 6.22558Z" fill="#FFDA44"/>
<path d="M5.77341 17.704C4.69463 18.7828 4.27772 19.6866 3.49721 20.4671C5.6701 22.649 8.6769 23.9996 11.9995 23.9996C16.5621 23.9996 20.5298 21.4531 22.5593 17.704H5.77341Z" fill="#0052B4"/>
<path d="M3.51425 3.48035C-1.17203 8.16663 -1.17203 15.7646 3.51425 20.451C5.4508 18.5144 7.31328 16.6519 11.9996 11.9657L3.51425 3.48035Z" fill="#6DA544"/>
<path d="M3.16536 11.9647C3.16536 10.2163 4.3941 8.75575 6.03491 8.39744C5.78272 8.34236 5.52106 8.3125 5.25228 8.3125C3.23521 8.3125 1.60011 9.9476 1.60011 11.9647C1.60011 13.9818 3.23521 15.6169 5.25228 15.6169C5.52102 15.6169 5.78267 15.587 6.03491 15.5319C4.3941 15.1736 3.16536 13.713 3.16536 11.9647Z" fill="#F0F0F0"/>
<path d="M5.99481 8.83466L6.18911 9.4325H6.8177L6.30911 9.80201L6.5034 10.3999L5.99481 10.0304L5.48622 10.3999L5.68051 9.80201L5.17192 9.4325H5.80051L5.99481 8.83466Z" fill="#F0F0F0"/>
<path d="M5.99481 10.3998L6.18911 10.9977H6.8177L6.30911 11.3671L6.5034 11.965L5.99481 11.5955L5.48622 11.965L5.68051 11.3671L5.17192 10.9977H5.80051L5.99481 10.3998Z" fill="#F0F0F0"/>
<path d="M5.99481 11.9647L6.18911 12.5625H6.8177L6.30911 12.932L6.5034 13.5299L5.99481 13.1603L5.48622 13.5299L5.68051 12.932L5.17192 12.5625H5.80051L5.99481 11.9647Z" fill="#F0F0F0"/>
<path d="M5.99481 13.5297L6.18911 14.1276H6.8177L6.30911 14.4971L6.5034 15.0949L5.99481 14.7255L5.48622 15.0949L5.68051 14.4971L5.17192 14.1276H5.80051L5.99481 13.5297Z" fill="#F0F0F0"/>
</g>
<defs>
<clipPath id="clip0_1867_57846">
<rect width="24" height="24" fill="white"/>
</clipPath>
</defs>
</svg>
