<svg width="24" height="24" viewBox="0 0 24 24" fill="none" xmlns="http://www.w3.org/2000/svg">
<g clip-path="url(#clip0_1867_58856)">
<path d="M12 24C18.6274 24 24 18.6274 24 12C24 5.37257 18.6274 0 12 0C5.37257 0 0 5.37257 0 12C0 18.6274 5.37257 24 12 24Z" fill="#FFDA44"/>
<path d="M3.51502 20.4851C4.01841 20.9885 4.55555 21.4375 5.11894 21.8327L21.8331 5.1185C21.4379 4.55506 20.989 4.01796 20.4855 3.51457C19.9821 3.01118 19.445 2.56235 18.8817 2.16705L2.16759 18.8813C2.56275 19.4447 3.01163 19.9817 3.51502 20.4851Z" fill="black"/>
<path d="M3.51435 3.51475C-0.271426 7.30053 -0.998224 12.9861 1.33259 17.5021L17.5017 1.33309C12.9857 -0.997679 7.29998 -0.27088 3.51435 3.51475Z" fill="#6DA544"/>
<path d="M20.4853 20.4847C24.271 16.699 24.9978 11.0134 22.6671 6.49731L6.49785 22.6665C11.0139 24.9972 16.6995 24.2705 20.4853 20.4847Z" fill="#D80027"/>
<path d="M7.62979 14.1577L8.75001 14.7285L9.63904 13.8395L9.44235 15.0811L10.5625 15.652L9.32076 15.8486L9.12407 17.0904L8.55332 15.9702L7.3116 16.1669L8.20059 15.2779L7.62979 14.1577Z" fill="#F0F0F0"/>
<path d="M14.1561 7.6305L15.2763 8.2013L16.1653 7.31232L15.9687 8.55399L17.0888 9.12483L15.8471 9.32152L15.6504 10.5632L15.0796 9.44307L13.8379 9.63971L14.7269 8.75072L14.1561 7.6305Z" fill="#F0F0F0"/>
</g>
<defs>
<clipPath id="clip0_1867_58856">
<rect width="24" height="24" fill="white"/>
</clipPath>
</defs>
</svg>
