<svg width="24" height="24" viewBox="0 0 24 24" fill="none" xmlns="http://www.w3.org/2000/svg">
<g clip-path="url(#clip0_1867_58699)">
<path d="M12 24C18.6274 24 24 18.6274 24 12C24 5.37258 18.6274 0 12 0C5.37258 0 0 5.37258 0 12C0 18.6274 5.37258 24 12 24Z" fill="#F0F0F0"/>
<path d="M11.9999 -0.000244141C8.36282 -0.000244141 5.10393 1.61807 2.90329 4.17365H21.0965C18.8959 1.61807 15.637 -0.000244141 11.9999 -0.000244141Z" fill="#0052B4"/>
<path d="M21.0962 19.827H2.90296C5.1036 22.3825 8.36249 24.0009 11.9996 24.0009C15.6367 24.0009 18.8955 22.3825 21.0962 19.827Z" fill="#0052B4"/>
<path d="M22.2388 5.73859H1.76133C0.644343 7.56132 4.57764e-05 9.70506 4.57764e-05 11.9994C4.57764e-05 14.2938 0.644343 16.4376 1.76133 18.2603H22.2388C23.3557 16.4376 24 14.2938 24 11.9994C24 9.70506 23.3557 7.56132 22.2388 5.73859Z" fill="#D80027"/>
<path d="M7.38268 16.6182C9.93279 16.6182 12.0001 14.551 12.0001 12.0009C12.0001 9.45076 9.93279 7.38348 7.38268 7.38348C4.83258 7.38348 2.76531 9.45076 2.76531 12.0009C2.76531 14.551 4.83258 16.6182 7.38268 16.6182Z" fill="#F0F0F0"/>
<path d="M7.38239 7.38348L8.41838 10.572H11.7764L9.05874 12.5427L10.1028 15.7407L7.38239 13.7606L4.66608 15.737L5.70605 12.5427L2.99081 10.572H6.34636L7.38239 7.38348Z" fill="#D80027"/>
</g>
<defs>
<clipPath id="clip0_1867_58699">
<rect width="24" height="24" fill="white"/>
</clipPath>
</defs>
</svg>
