<svg width="24" height="24" viewBox="0 0 24 24" fill="none" xmlns="http://www.w3.org/2000/svg">
<g clip-path="url(#clip0_1867_57759)">
<path d="M24 12C24 18.6274 18.6274 24 12 24C5.37262 24 0 18.6274 0 12C0 12.0029 12 0.0013125 12 0C18.6274 0 24 5.37262 24 12Z" fill="#0052B4"/>
<path d="M11.9686 12.0004H12.0008C12.0008 11.9896 12.0008 11.9791 12.0008 11.9683C11.9901 11.979 11.9794 11.9897 11.9686 12.0004Z" fill="#F0F0F0"/>
<path d="M12.0003 6.26039C12.0003 4.1489 12.0003 2.76539 12.0003 -0.000473022H11.9982C5.37171 0.000651977 0.000259399 5.37276 0.000259399 11.9995H6.26112V8.47401L9.78663 11.9995H11.9682C11.9789 11.9888 11.9896 11.9782 12.0003 11.9674C12.0003 11.159 12.0003 10.4376 12.0003 9.786L8.4747 6.26039H12.0003Z" fill="#F0F0F0"/>
<path d="M17.2173 8.86916C18.3699 8.86916 19.3043 7.93479 19.3043 6.78219C19.3043 5.62959 18.3699 4.69522 17.2173 4.69522C16.0647 4.69522 15.1303 5.62959 15.1303 6.78219C15.1303 7.93479 16.0647 8.86916 17.2173 8.86916Z" fill="#6DA544"/>
<path d="M6.0706 1.56527C4.19377 2.63397 2.63345 4.19425 1.56479 6.07108V12.0001H4.69524V4.69582V4.69572H11.9996C11.9996 3.7084 11.9996 2.7678 11.9996 1.56527H6.0706Z" fill="#D80027"/>
<path d="M11.9993 10.5238L7.73577 6.26042H6.26015V6.26052L11.9992 11.9995H11.9993C11.9993 11.9995 11.9993 10.982 11.9993 10.5238Z" fill="#D80027"/>
<path d="M20.8691 6.26042H13.5648V9.39087H20.8691V6.26042Z" fill="#D80027"/>
<path d="M13.5652 14.0869V16.1738H14.6632C15.3216 16.819 16.2228 17.2173 17.2174 17.2173C18.2121 17.2173 19.1132 16.819 19.7716 16.1738H19.8261H20.8696V14.0869H13.5652Z" fill="#FFDA44"/>
<path d="M13.5652 8.86903V11.9995C13.5652 14.7951 17.2174 15.6517 17.2174 15.6517C17.2174 15.6517 20.8696 14.7951 20.8696 11.9995V8.86903H13.5652Z" fill="#338AF3"/>
<path d="M17.2173 10.5403C16.3043 10.5403 16.3043 11.3751 15.3913 11.3751C14.4783 11.3751 14.4783 10.5403 13.5653 10.5403V12.0012C14.4783 12.0012 14.4783 12.836 15.3913 12.836C16.3043 12.836 16.3043 12.0012 17.2173 12.0012C18.1304 12.0012 18.1304 12.836 19.0435 12.836C19.9566 12.836 19.9566 12.0012 20.8697 12.0012V10.5403C19.9566 10.5403 19.9566 11.3751 19.0435 11.3751C18.1304 11.3751 18.1304 10.5403 17.2173 10.5403Z" fill="#F3F3F3"/>
<path d="M17.2172 7.61665C16.3042 7.61665 16.3042 8.45145 15.3912 8.45145C14.4782 8.45145 14.4782 7.61665 13.5652 7.61665V9.07751C14.4782 9.07751 14.4782 9.91231 15.3912 9.91231C16.3042 9.91231 16.3042 9.07751 17.2172 9.07751C18.1303 9.07751 18.1303 9.91231 19.0434 9.91231C19.9565 9.91231 19.9565 9.07751 20.8696 9.07751V7.61665C19.9565 7.61665 19.9565 8.45145 19.0434 8.45145C18.1303 8.45145 18.1303 7.61665 17.2172 7.61665Z" fill="#F3F3F3"/>
</g>
<defs>
<clipPath id="clip0_1867_57759">
<rect width="24" height="24" fill="white"/>
</clipPath>
</defs>
</svg>
