<svg width="24" height="24" viewBox="0 0 24 24" fill="none" xmlns="http://www.w3.org/2000/svg">
<g clip-path="url(#clip0_1867_58346)">
<path d="M12 24C18.6274 24 24 18.6274 24 12C24 5.37258 18.6274 0 12 0C5.37258 0 0 5.37258 0 12C0 18.6274 5.37258 24 12 24Z" fill="#338AF3"/>
<path d="M18.783 12.1301H5.21774C5.21774 13.0666 6.03341 13.8258 6.96983 13.8258H6.91339C6.91339 14.7623 7.67253 15.5214 8.60905 15.5214C8.60905 16.458 9.36819 17.2171 10.3047 17.2171H13.696C14.6325 17.2171 15.3917 16.458 15.3917 15.5214C16.3282 15.5214 17.0873 14.7623 17.0873 13.8258H17.0309C17.9672 13.8258 18.783 13.0666 18.783 12.1301Z" fill="#FFDA44"/>
<path d="M16.696 9.91351C16.696 12.5068 14.5937 14.6092 12.0004 14.6092C9.40703 14.6092 7.30473 12.5068 7.30473 9.91351" fill="#338AF3"/>
<path d="M15.5865 9.91238L14.121 10.6018L14.9014 12.0212L13.31 11.7167L13.1083 13.3243L11.9999 12.1419L10.8914 13.3243L10.6898 11.7167L9.09836 12.0211L9.87874 10.6017L8.41324 9.91238L9.87878 9.22304L9.09836 7.80371L10.6897 8.10812L10.8914 6.50049L11.9999 7.68291L13.1084 6.50049L13.31 8.10812L14.9014 7.80371L14.121 9.22308L15.5865 9.91238Z" fill="#FFDA44"/>
</g>
<defs>
<clipPath id="clip0_1867_58346">
<rect width="24" height="24" fill="white"/>
</clipPath>
</defs>
</svg>
