<svg width="24" height="24" viewBox="0 0 24 24" fill="none" xmlns="http://www.w3.org/2000/svg">
<g clip-path="url(#clip0_1867_58407)">
<path d="M12 24C18.6274 24 24 18.6274 24 12C24 5.37258 18.6274 0 12 0C5.37258 0 0 5.37258 0 12C0 18.6274 5.37258 24 12 24Z" fill="#F0F0F0"/>
<path d="M12.0001 -0.000724792C7.24261 -0.000724792 3.13186 2.76795 1.19086 6.7819H22.8094C20.8684 2.76795 16.7576 -0.000724792 12.0001 -0.000724792Z" fill="#D80027"/>
<path d="M12.0003 23.9994C16.7578 23.9994 20.8686 21.2307 22.8096 17.2167H1.19105C3.13205 21.2307 7.2428 23.9994 12.0003 23.9994Z" fill="#D80027"/>
<path d="M15.1305 14.0862L12.0001 8.34706L8.86964 14.0862H11.2175V15.6514H12.7827V14.0862H15.1305Z" fill="#6DA544"/>
</g>
<defs>
<clipPath id="clip0_1867_58407">
<rect width="24" height="24" fill="white"/>
</clipPath>
</defs>
</svg>
