<svg width="24" height="24" viewBox="0 0 24 24" fill="none" xmlns="http://www.w3.org/2000/svg">
<g clip-path="url(#clip0_1867_58446)">
<path d="M24.0002 11.9995C24.0002 18.6269 18.6276 23.9995 12.0002 23.9995C5.37285 23.9995 0.000226974 18.6269 0.000226974 11.9995C0.521946 11.9995 12.0002 10.4343 12.0002 10.4343L24.0002 11.9995Z" fill="#D80027"/>
<path d="M0 12C0 5.37262 5.37262 0 12 0C18.6274 0 24 5.37262 24 12" fill="#0052B4"/>
<path d="M8.8699 8.34738C8.8699 7.48296 8.16912 6.78217 7.3047 6.78217C6.90368 6.78217 6.5382 6.93311 6.26122 7.18103V6.26041H6.78293V5.21692H6.26122V4.69521H5.21773V5.21692H4.69601V6.26041H5.21773V7.18103C4.94075 6.93311 4.57526 6.78217 4.17425 6.78217C3.30983 6.78217 2.60905 7.48296 2.60905 8.34738C2.60905 8.81083 2.81066 9.22708 3.13076 9.51372V10.4343H8.34814V9.51372C8.66834 9.22708 8.8699 8.81083 8.8699 8.34738Z" fill="#FFDA44"/>
</g>
<defs>
<clipPath id="clip0_1867_58446">
<rect width="24" height="24" fill="white"/>
</clipPath>
</defs>
</svg>
