<svg width="24" height="24" viewBox="0 0 24 24" fill="none" xmlns="http://www.w3.org/2000/svg">
<g clip-path="url(#clip0_1867_59055)">
<path d="M4.68751e-05 2.08621H0V21.9123H4.68751e-05V11.9993V2.08621Z" fill="#FF9811"/>
<path d="M12 24C18.6274 24 24 18.6274 24 12C24 5.37257 18.6274 0 12 0C5.37257 0 0 5.37257 0 12C0 18.6274 5.37257 24 12 24Z" fill="#FFDA44"/>
<path d="M9.39104 2.08621H5.23626C5.05214 2.21207 4.87195 2.34309 4.69537 2.4787L3.65189 11.9992L4.69537 21.5197C4.87195 21.6554 5.05214 21.7864 5.23626 21.9122H9.39104V2.08621Z" fill="#FF9811"/>
<path d="M0 12.0006C0 15.8793 1.84069 19.3275 4.69567 21.5212V2.48007C1.84069 4.67373 0 8.12196 0 12.0006Z" fill="#6DA544"/>
<path d="M19.3043 7.31537V7.61588L19.3155 7.61757L19.3043 7.31537Z" fill="#FFDA44"/>
<path d="M23.0435 15.1297H20.7826L19.8261 16.1732V18.2601H17.7391V17.2166H18.7826V15.1297H14.0869V16.434H13.0435V13.9482C12.7233 13.6616 12.5217 13.2453 12.5217 12.7818V5.99925C12.5217 5.13483 13.2225 4.43405 14.0869 4.43405V14.0862H16.1739L16.89 13.4895C16.7649 13.1916 16.6956 12.8644 16.6956 12.521V10.9558H15.1304V7.82541H18.2608C18.2608 7.30369 19.0435 6.78193 19.0435 6.78193C19.0435 6.78193 19.8261 7.30364 19.8261 7.82541V8.60804V10.9559C20.4065 10.9628 21.3288 10.9477 22.3251 10.9559C22.0633 10.4984 21.913 9.95551 21.913 9.39067C21.913 8.46999 22.3105 7.64227 22.9432 7.06946C22.0312 5.04844 20.5759 3.32521 18.7634 2.08621H10.9565V21.9123H18.7635C20.9675 20.4057 22.6432 18.1833 23.4562 15.58L23.0435 15.1297Z" fill="#A2001D"/>
</g>
<defs>
<clipPath id="clip0_1867_59055">
<rect width="24" height="24" fill="white"/>
</clipPath>
</defs>
</svg>
