<svg width="24" height="24" viewBox="0 0 24 24" fill="none" xmlns="http://www.w3.org/2000/svg">
<g clip-path="url(#clip0_1867_58420)">
<path d="M12 24C18.6274 24 24 18.6274 24 12C24 5.37258 18.6274 0 12 0C5.37258 0 0 5.37258 0 12C0 18.6274 5.37258 24 12 24Z" fill="#F0F0F0"/>
<path d="M2.74293 4.36309H21.2571C20.5732 3.53504 19.7801 2.80074 18.9003 2.18129H5.09967C4.21987 2.80065 3.42679 3.53499 2.74293 4.36309Z" fill="#F0F0F0"/>
<path d="M0 12.0005C0 12.3684 0.0174844 12.732 0.049875 13.0915H23.9501C23.9825 12.732 24 12.3684 24 12.0005C24 11.6327 23.9825 11.2691 23.9501 10.9097H0.049875C0.0174844 11.2691 0 11.6327 0 12.0005Z" fill="#F0F0F0"/>
<path d="M1.30887 17.4546H22.6917C23.0451 16.7634 23.3333 16.0335 23.5484 15.2729H0.452181C0.66729 16.0335 0.955572 16.7634 1.30887 17.4546Z" fill="#F0F0F0"/>
<path d="M5.09967 21.8181H18.9003C19.7801 21.1986 20.5732 20.4643 21.257 19.6363H2.74293C3.42679 20.4642 4.21987 21.1986 5.09967 21.8181Z" fill="#F0F0F0"/>
<path d="M0.452084 8.72786H23.5484C23.3333 7.96718 23.045 7.23724 22.6917 6.54607H1.30882C0.955521 7.23724 0.66724 7.96718 0.452084 8.72786Z" fill="#F0F0F0"/>
<path d="M5.73849 2.18186H18.8997C16.9478 0.807577 14.568 6.10352e-05 11.9993 6.10352e-05C10.4341 6.10352e-05 7.69036 0.807577 5.73849 2.18186Z" fill="#D80027"/>
<path d="M11.4782 6.54526H22.6914C22.2923 5.76465 21.8104 5.03345 21.257 4.36346H11.4782V6.54526Z" fill="#D80027"/>
<path d="M11.4782 10.9085H23.9501C23.8826 10.1593 23.7469 9.42976 23.5481 8.72668H11.4782V10.9085Z" fill="#D80027"/>
<path d="M0.451457 15.2736H23.5477C23.7466 14.5706 23.8822 13.841 23.9497 13.0918H0.0494566C0.116957 13.841 0.252613 14.5706 0.451457 15.2736Z" fill="#D80027"/>
<path d="M2.74264 19.6368H21.2568C21.8101 18.9668 22.2921 18.2356 22.6911 17.455H1.30827C1.70731 18.2357 2.18928 18.9669 2.74264 19.6368Z" fill="#D80027"/>
<path d="M11.9993 24.0005C14.5679 24.0005 16.9477 23.193 18.8996 21.8187H5.09894C7.05081 23.193 9.43066 24.0005 11.9993 24.0005Z" fill="#D80027"/>
<path d="M0.451865 8.72685C0.253022 9.42998 0.117412 10.1595 0.0499125 10.9087H12V-0.000427246C6.50722 -0.000427246 1.87649 3.69014 0.451865 8.72685Z" fill="#0052B4"/>
<path d="M7.14364 3.13052L7.92059 5.52185H10.4352L8.40096 6.99992L9.17787 9.39139L7.14364 7.91342L5.10931 9.39139L5.8864 6.99992L3.85212 5.52185H6.36664L7.14364 3.13052Z" fill="#F0F0F0"/>
</g>
<defs>
<clipPath id="clip0_1867_58420">
<rect width="24" height="24" fill="white"/>
</clipPath>
</defs>
</svg>
