<svg width="24" height="24" viewBox="0 0 24 24" fill="none" xmlns="http://www.w3.org/2000/svg">
<g clip-path="url(#clip0_1867_58414)">
<path d="M4.48227e-05 11.9999C4.48227e-05 13.8697 0.427873 15.6396 1.19076 17.2173L12 17.739L22.8093 17.2173C23.5722 15.6396 24 13.8697 24 11.9999C24 10.13 23.5722 8.36014 22.8093 6.78252L12 6.26075L1.19076 6.78247C0.427873 8.36014 4.48227e-05 10.13 4.48227e-05 11.9999Z" fill="#F0F0F0"/>
<path d="M12.0003 24.0001C16.7578 24.0001 20.8686 21.2314 22.8096 17.2175H1.19107C3.13207 21.2314 7.24282 24.0001 12.0003 24.0001Z" fill="#6DA544"/>
<path d="M12.0003 -0.000724792C7.24282 -0.000724792 3.13207 2.76795 1.19107 6.7819H22.8096C20.8686 2.76795 16.7578 -0.000724792 12.0003 -0.000724792Z" fill="#0052B4"/>
<path d="M12.7831 11.7392V8.86967H11.2179V11.7392L9.3274 13.6297C9.8772 14.5297 10.8686 15.1305 12.0005 15.1305C13.1323 15.1305 14.1237 14.5297 14.6736 13.6297L12.7831 11.7392Z" fill="black"/>
</g>
<defs>
<clipPath id="clip0_1867_58414">
<rect width="24" height="24" fill="white"/>
</clipPath>
</defs>
</svg>
