<svg width="24" height="24" viewBox="0 0 24 24" fill="none" xmlns="http://www.w3.org/2000/svg">
<g clip-path="url(#clip0_1867_58451)">
<path d="M23.2539 16.1743C23.7363 14.8744 24.0003 13.4683 24.0003 12.0005C24.0003 10.5326 23.7363 9.1265 23.2539 7.82656L12.0003 6.78308L0.746731 7.82656C0.26434 9.1265 0.000340462 10.5326 0.000340462 12.0005C0.000340462 13.4683 0.26434 14.8744 0.746731 16.1743L12.0003 17.2178L23.2539 16.1743Z" fill="#6DA544"/>
<path d="M23.2537 7.82568C21.5582 3.25607 17.1597 -0.000427246 12.0001 -0.000427246C6.84056 -0.000427246 2.44205 3.25607 0.746531 7.82568H23.2537Z" fill="#FFDA44"/>
<path d="M12.0003 24.0008C17.1599 24.0008 21.5584 20.7443 23.2539 16.1747H0.746693C2.44221 20.7443 6.84072 24.0008 12.0003 24.0008Z" fill="#D80027"/>
</g>
<defs>
<clipPath id="clip0_1867_58451">
<rect width="24" height="24" fill="white"/>
</clipPath>
</defs>
</svg>
