<svg width="24" height="24" viewBox="0 0 24 24" fill="none" xmlns="http://www.w3.org/2000/svg">
<g clip-path="url(#clip0_1867_58401)">
<path d="M12 24C18.6274 24 24 18.6274 24 12C24 5.37258 18.6274 0 12 0C5.37258 0 0 5.37258 0 12C0 18.6274 5.37258 24 12 24Z" fill="#F0F0F0"/>
<path d="M12.0006 -0.000724792C6.45625 -0.000724792 1.79097 3.75963 0.413973 8.86882H23.5872C22.2102 3.75963 17.5449 -0.000724792 12.0006 -0.000724792Z" fill="#A2001D"/>
<path d="M12.0003 23.9986C17.5446 23.9986 22.2099 20.2382 23.5869 15.1291H0.413679C1.79068 20.2382 6.45596 23.9986 12.0003 23.9986Z" fill="#A2001D"/>
</g>
<defs>
<clipPath id="clip0_1867_58401">
<rect width="24" height="24" fill="white"/>
</clipPath>
</defs>
</svg>
