<svg width="24" height="24" viewBox="0 0 24 24" fill="none" xmlns="http://www.w3.org/2000/svg">
<g clip-path="url(#clip0_1867_58438)">
<path d="M1.19083 6.78273C0.427988 8.36035 0.000113487 10.1302 0.000113487 12.0001C0.000113487 13.87 0.427988 15.6399 1.19083 17.2175L12.0001 18.261L22.8094 17.2175C23.5722 15.6399 24.0001 13.87 24.0001 12.0001C24.0001 10.1302 23.5722 8.36035 22.8094 6.78273L12.0001 5.73924L1.19083 6.78273Z" fill="black"/>
<path d="M1.19143 17.2168C3.13234 21.2307 7.24276 23.9994 12.0003 23.9994C16.7578 23.9994 20.8682 21.2307 22.8091 17.2168H1.19143Z" fill="#496E2D"/>
<path d="M1.19143 6.78299H22.8091C20.8682 2.76904 16.7578 0.000366211 12.0003 0.000366211C7.24276 0.000366211 3.13234 2.76904 1.19143 6.78299Z" fill="#D80027"/>
<path d="M14.7934 9.80478L15.7779 11.1616L17.3725 10.6445L16.3863 12.0002L17.3708 13.3569L15.7769 12.8379L14.7907 14.1936L14.7917 12.5173L13.1977 11.9983L14.7923 11.4812L14.7934 9.80478Z" fill="#F0F0F0"/>
<path d="M12.1065 15.3904C10.2335 15.3904 8.71515 13.872 8.71515 11.9991C8.71515 10.1262 10.2335 8.60779 12.1065 8.60779C12.6904 8.60779 13.24 8.75545 13.7197 9.01542C12.967 8.27943 11.9379 7.82516 10.8021 7.82516C8.4969 7.82516 6.62823 9.69388 6.62823 11.9991C6.62823 14.3042 8.49695 16.1729 10.8021 16.1729C11.9379 16.1729 12.9671 15.7187 13.7197 14.9827C13.2399 15.2428 12.6905 15.3904 12.1065 15.3904Z" fill="#F0F0F0"/>
</g>
<defs>
<clipPath id="clip0_1867_58438">
<rect width="24" height="24" fill="white"/>
</clipPath>
</defs>
</svg>
