<svg width="24" height="24" viewBox="0 0 24 24" fill="none" xmlns="http://www.w3.org/2000/svg">
<g clip-path="url(#clip0_1867_58607)">
<path d="M12 24C18.6274 24 24 18.6274 24 12C24 5.37258 18.6274 0 12 0C5.37258 0 0 5.37258 0 12C0 18.6274 5.37258 24 12 24Z" fill="#D80027"/>
<path d="M19.092 9.84774H13.6744L12.0003 4.69543L10.3262 9.84774H4.90872L9.29158 13.0321L7.61744 18.1845L12.0003 15.0001L16.3833 18.1846L14.7091 13.0321L19.092 9.84774ZM10.5182 12.6335L11.0844 10.8912H12.9163L13.4824 12.6335V12.6335L12.0003 13.7103L10.5183 12.6335L10.5182 12.6335ZM12.5773 9.84774H11.4235L12.0003 8.07212L12.5773 9.84774ZM14.37 11.9886L14.0134 10.8912H15.8804L14.37 11.9886ZM9.9872 10.8912L9.63062 11.9886L8.12017 10.8912H9.9872ZM9.60227 15.4526L10.1792 13.6771L11.1127 14.3552L9.60227 15.4526ZM12.888 14.3553L13.8215 13.6771L14.3984 15.4527L12.888 14.3553Z" fill="#FFDA44"/>
</g>
<defs>
<clipPath id="clip0_1867_58607">
<rect width="24" height="24" fill="white"/>
</clipPath>
</defs>
</svg>
