<svg width="24" height="24" viewBox="0 0 24 24" fill="none" xmlns="http://www.w3.org/2000/svg">
<g clip-path="url(#clip0_1867_58559)">
<path d="M17.2171 1.1913C15.6395 0.428455 13.8696 0.000579834 11.9997 0.000579834C10.1299 0.000579834 8.35998 0.428455 6.78236 1.1913L5.73887 12.0006L6.78236 22.8099C8.35998 23.5727 10.1299 24.0006 11.9997 24.0006C13.8696 24.0006 15.6395 23.5727 17.2171 22.8099L18.2606 12.0006L17.2171 1.1913Z" fill="#FFDA44"/>
<path d="M6.78262 1.19211C2.76872 3.13306 0 7.24348 0 12.001C0 16.7585 2.76872 20.8689 6.78262 22.8098V1.19211Z" fill="#0052B4"/>
<path d="M17.2174 1.19211V22.8098C21.2313 20.8689 24 16.7585 24 12.001C24 7.24348 21.2313 3.13306 17.2174 1.19211Z" fill="#D80027"/>
<path d="M16.1736 9.44224H13.304C13.304 8.72186 12.72 8.13789 11.9997 8.13789C11.2793 8.13789 10.6953 8.72186 10.6953 9.44224H7.82577C7.82577 10.1515 8.44363 10.7264 9.1528 10.7264H9.11005C9.11005 11.4357 9.68502 12.0108 10.3943 12.0108C10.3943 12.6387 10.8454 13.1605 11.4411 13.2721L10.429 15.5569C10.9139 15.754 11.4439 15.8636 11.9997 15.8636C12.5554 15.8636 13.0854 15.754 13.5703 15.5569L12.5583 13.2721C13.154 13.1605 13.605 12.6387 13.605 12.0108C14.3143 12.0108 14.8893 11.4357 14.8893 10.7264H14.8465C15.5557 10.7264 16.1736 10.1515 16.1736 9.44224Z" fill="#FF9811"/>
<path d="M12 11.2177L10.3044 12.0004V13.5656L12 14.609L13.6957 13.5656V12.0004L12 11.2177Z" fill="#0052B4"/>
<path d="M13.6957 10.4341H10.3044V11.9993H13.6957V10.4341Z" fill="#D80027"/>
</g>
<defs>
<clipPath id="clip0_1867_58559">
<rect width="24" height="24" fill="white"/>
</clipPath>
</defs>
</svg>
