<svg width="24" height="24" viewBox="0 0 24 24" fill="none" xmlns="http://www.w3.org/2000/svg">
<g clip-path="url(#clip0_1867_58585)">
<path d="M12 24C18.6274 24 24 18.6274 24 12C24 5.37258 18.6274 0 12 0C5.37258 0 0 5.37258 0 12C0 18.6274 5.37258 24 12 24Z" fill="#FFDA44"/>
<path d="M24.0003 11.9997C24.0003 7.88126 21.9252 4.24779 18.7638 2.08671H5.23689C2.0755 4.24779 0.000339508 7.88126 0.000339508 11.9997C0.000339508 16.1183 2.0755 19.7517 5.23689 21.9128H18.7638C21.9252 19.7517 24.0003 16.1183 24.0003 11.9997Z" fill="#A2001D"/>
<path d="M9.39181 8.87013H14.6092V6.78321L13.5657 7.30492L12.0005 5.73972L10.4353 7.30492L9.39181 6.78321V8.87013Z" fill="#FFDA44"/>
<path d="M16.6962 12.0002H14.0885C14.1908 11.8233 14.2502 11.6186 14.2502 11.3996C14.2502 10.7346 13.7111 10.1956 13.0462 10.1956C12.5868 10.1956 12.1878 10.453 11.9848 10.8313C11.7818 10.453 11.3828 10.1956 10.9233 10.1956C10.2584 10.1956 9.7193 10.7346 9.7193 11.3996C9.7193 11.6187 9.77883 11.8234 9.88102 12.0002H7.30481C7.30481 12.7982 7.99983 13.445 8.79774 13.445H8.74964C8.74964 14.0995 9.18497 14.6522 9.78183 14.8297L8.60916 16.0025L9.71592 17.1092L11.2859 15.5393C11.3474 15.5618 11.411 15.5798 11.4768 15.5922L10.5281 17.7341C10.9827 17.919 11.4795 18.0216 12.0006 18.0216C12.5215 18.0216 13.0184 17.919 13.473 17.7341L12.5243 15.5922C12.5901 15.5798 12.6537 15.5618 12.7151 15.5393L14.2851 17.1092L15.3918 16.0025L14.2191 14.8298C14.8159 14.6521 15.2513 14.0996 15.2513 13.4451H15.2032C16.0012 13.445 16.6962 12.7982 16.6962 12.0002Z" fill="#FFDA44"/>
<path d="M12.0005 12.7828L10.3048 13.5654V15.1306L12.0005 16.1741L13.6961 15.1306V13.5654L12.0005 12.7828Z" fill="#6DA544"/>
<path d="M13.6961 11.9992H10.3048V14.0862H13.6961V11.9992Z" fill="#0052B4"/>
</g>
<defs>
<clipPath id="clip0_1867_58585">
<rect width="24" height="24" fill="white"/>
</clipPath>
</defs>
</svg>
