<svg width="24" height="24" viewBox="0 0 24 24" fill="none" xmlns="http://www.w3.org/2000/svg">
<g clip-path="url(#clip0_1867_58474)">
<path d="M12 24C18.6274 24 24 18.6274 24 12C24 5.37258 18.6274 0 12 0C5.37258 0 0 5.37258 0 12C0 18.6274 5.37258 24 12 24Z" fill="#F0F0F0"/>
<path d="M7.82625 11.9994V23.253C9.12619 23.7354 10.5323 23.9994 12.0001 23.9994C18.6275 23.9994 24.0001 18.6268 24.0001 11.9994C24.0001 5.37205 7.82625 11.9994 7.82625 11.9994Z" fill="#6DA544"/>
<path d="M12.0001 0.000366211C10.5323 0.000366211 9.12619 0.264413 7.82625 0.746757V12.0004C7.82625 12.0004 18.4697 12.0004 24.0001 12.0004C24.0001 5.37299 18.6275 0.000366211 12.0001 0.000366211Z" fill="#D80027"/>
</g>
<defs>
<clipPath id="clip0_1867_58474">
<rect width="24" height="24" fill="white"/>
</clipPath>
</defs>
</svg>
