<svg width="24" height="24" viewBox="0 0 24 24" fill="none" xmlns="http://www.w3.org/2000/svg">
<g clip-path="url(#clip0_1867_58807)">
<path d="M12 24C18.6274 24 24 18.6274 24 12C24 5.37258 18.6274 0 12 0C5.37258 0 0 5.37258 0 12C0 18.6274 5.37258 24 12 24Z" fill="#FFDA44"/>
<path d="M13.8251 23.8624C15.7768 23.5646 17.5733 22.7961 19.0965 21.6772L12.0001 12.0003L13.8251 23.8624Z" fill="#D80027"/>
<path d="M10.1754 0.137711C8.22373 0.435461 6.4272 1.20402 4.90395 2.32288L12.0004 11.9998L10.1754 0.137711Z" fill="#D80027"/>
<path d="M4.90395 21.6772C6.4271 22.796 8.22363 23.5646 10.1753 23.8624L12.0004 12.0003L4.90395 21.6772Z" fill="#D80027"/>
<path d="M2.32346 4.90239C1.20456 6.42564 0.436087 8.22212 0.13829 10.1738L12.0003 11.9988L2.32346 4.90239Z" fill="#D80027"/>
<path d="M0.13829 13.8253C0.43604 15.777 1.2046 17.5735 2.32351 19.0967L12.0003 12.0003L0.13829 13.8253Z" fill="#D80027"/>
<path d="M23.8622 10.174C23.5644 8.22233 22.7959 6.42579 21.677 4.90259L12.0001 11.999L23.8622 10.174Z" fill="#D80027"/>
<path d="M19.0965 2.32284C17.5732 1.20398 15.7768 0.435461 13.8251 0.137711L12.0001 11.9998L19.0965 2.32284Z" fill="#D80027"/>
<path d="M21.6771 19.0967C22.7959 17.5735 23.5644 15.7769 23.8623 13.8253L12.0001 12.0003L21.6771 19.0967Z" fill="#D80027"/>
<path d="M12.0002 16.1743C14.3054 16.1743 16.1741 14.3056 16.1741 12.0004C16.1741 9.69525 14.3054 7.82654 12.0002 7.82654C9.69505 7.82654 7.82634 9.69525 7.82634 12.0004C7.82634 14.3056 9.69505 16.1743 12.0002 16.1743Z" fill="#D80027"/>
<path d="M12.0001 15.1297C13.729 15.1297 15.1306 13.7281 15.1306 11.9992C15.1306 10.2703 13.729 8.86879 12.0001 8.86879C10.2712 8.86879 8.86966 10.2703 8.86966 11.9992C8.86966 13.7281 10.2712 15.1297 12.0001 15.1297Z" fill="#FFDA44"/>
</g>
<defs>
<clipPath id="clip0_1867_58807">
<rect width="24" height="24" fill="white"/>
</clipPath>
</defs>
</svg>
