<svg width="24" height="24" viewBox="0 0 24 24" fill="none" xmlns="http://www.w3.org/2000/svg">
<g clip-path="url(#clip0_1867_58502)">
<path d="M16.1742 0.745902C14.8742 0.263559 13.4681 -0.000488281 12.0003 -0.000488281C10.5325 -0.000488281 9.1264 0.263559 7.82641 0.745902L6.78292 11.9995L7.82641 23.2531C9.1264 23.7355 10.5325 23.9995 12.0003 23.9995C13.4681 23.9995 14.8742 23.7355 16.1742 23.2531L17.2177 11.9995L16.1742 0.745902Z" fill="#FFDA44"/>
<path d="M23.9996 12.0002C23.9996 6.84067 20.7431 2.44211 16.1735 0.746643V23.2539C20.7431 21.5583 23.9996 17.1598 23.9996 12.0002Z" fill="#D80027"/>
<path d="M0.000144958 11.9994C0.000144958 17.159 3.25664 21.5575 7.82625 23.2531V0.74585C3.25664 2.44132 0.000144958 6.83988 0.000144958 11.9994Z" fill="#6DA544"/>
</g>
<defs>
<clipPath id="clip0_1867_58502">
<rect width="24" height="24" fill="white"/>
</clipPath>
</defs>
</svg>
