<svg width="24" height="24" viewBox="0 0 24 24" fill="none" xmlns="http://www.w3.org/2000/svg">
<g clip-path="url(#clip0_1867_58621)">
<path d="M23.2534 16.1744C23.7358 14.8744 23.9998 13.4683 23.9998 12.0005C23.9998 10.5326 23.7358 9.12654 23.2534 7.8266L11.9998 6.78311L0.746208 7.8266C0.263864 9.12654 -0.000183105 10.5326 -0.000183105 12.0005C-0.000183105 13.4683 0.263864 14.8744 0.746208 16.1744L11.9998 17.2179L23.2534 16.1744Z" fill="#6DA544"/>
<path d="M23.2535 7.82603C21.558 3.25642 17.1595 -8.39233e-05 11.9999 -8.39233e-05C6.84034 -8.39233e-05 2.44182 3.25642 0.746307 7.82603H23.2535Z" fill="#FFDA44"/>
<path d="M11.9999 23.9991C17.1595 23.9991 21.558 20.7426 23.2535 16.173H0.746269C2.44178 20.7426 6.8403 23.9991 11.9999 23.9991Z" fill="#D80027"/>
<path d="M20.2292 10.153H13.9429L12.0003 4.17439L10.0577 10.153H3.77147L8.85717 13.8479L6.91458 19.8266L12.0003 16.1744L17.0861 19.8266L15.1435 13.8479L20.2292 10.153Z" fill="#F0F0F0"/>
</g>
<defs>
<clipPath id="clip0_1867_58621">
<rect width="24" height="24" fill="white"/>
</clipPath>
</defs>
</svg>
