<svg width="24" height="24" viewBox="0 0 24 24" fill="none" xmlns="http://www.w3.org/2000/svg">
<g clip-path="url(#clip0_1867_58571)">
<path d="M11.9996 24.0006C13.4675 24.0006 14.8736 23.7366 16.1735 23.2542L16.6953 12.0006L16.1736 0.746986C14.8736 0.264642 13.4675 0.000595093 11.9996 0.000595093C10.5318 0.000595093 9.12568 0.264642 7.82575 0.746986L7.30398 12.0006L7.8257 23.2542C9.12568 23.7366 10.5318 24.0006 11.9996 24.0006Z" fill="#0052B4"/>
<path d="M-0.000209808 12.0001C-0.000209808 17.1596 3.25629 21.5582 7.8259 23.2537V0.74646C3.25629 2.44198 -0.000209808 6.84049 -0.000209808 12.0001Z" fill="#A2001D"/>
<path d="M16.1736 0.745987V23.2533C20.7432 21.5577 23.9997 17.1592 23.9997 11.9996C23.9997 6.84002 20.7432 2.4415 16.1736 0.745987Z" fill="#A2001D"/>
<path d="M6.78254 11.9989H5.73906V16.1728H6.78254V11.9989Z" fill="#FFDA44"/>
<path d="M2.60865 11.9989H1.56516V16.1728H2.60865V11.9989Z" fill="#FFDA44"/>
<path d="M4.17363 14.6085C4.74993 14.6085 5.21711 14.1413 5.21711 13.565C5.21711 12.9887 4.74993 12.5215 4.17363 12.5215C3.59733 12.5215 3.13014 12.9887 3.13014 13.565C3.13014 14.1413 3.59733 14.6085 4.17363 14.6085Z" fill="#FFDA44"/>
<path d="M4.17378 10.4336C4.46192 10.4336 4.6955 10.2 4.6955 9.9119C4.6955 9.62376 4.46192 9.39018 4.17378 9.39018C3.88564 9.39018 3.65206 9.62376 3.65206 9.9119C3.65206 10.2 3.88564 10.4336 4.17378 10.4336Z" fill="#FFDA44"/>
<path d="M5.21721 15.1289H3.13024V16.1723H5.21721V15.1289Z" fill="#FFDA44"/>
<path d="M5.21721 10.955H3.13024V11.9985H5.21721V10.955Z" fill="#FFDA44"/>
<path d="M4.1743 6.26003L4.54387 7.39721H5.73955L4.77229 8.10006L5.14157 9.23725L4.1743 8.5344L3.20708 9.23725L3.57637 8.10006L2.6091 7.39721H3.80479L4.1743 6.26003Z" fill="#FFDA44"/>
</g>
<defs>
<clipPath id="clip0_1867_58571">
<rect width="24" height="24" fill="white"/>
</clipPath>
</defs>
</svg>
