<svg width="24" height="24" viewBox="0 0 24 24" fill="none" xmlns="http://www.w3.org/2000/svg">
<g clip-path="url(#clip0_1867_58461)">
<path d="M12 24C18.6274 24 24 18.6274 24 12C24 5.37258 18.6274 0 12 0C5.37258 0 0 5.37258 0 12C0 18.6274 5.37258 24 12 24Z" fill="#496E2D"/>
<path d="M14.0868 11.5003C13.7923 11.5003 13.5126 11.559 13.2529 11.6525C13.3952 11.3354 13.4906 10.9826 13.4906 10.6059C13.4906 9.11524 11.9999 7.99722 11.9999 7.99722C11.9999 7.99722 10.5093 9.11524 10.5093 10.6059C10.5093 10.9826 10.6046 11.3354 10.7469 11.6525C10.4872 11.5591 10.2075 11.5003 9.913 11.5003C8.42233 11.5003 7.30432 12.991 7.30432 12.991C7.30432 12.991 8.42233 14.4817 9.913 14.4817C10.787 14.4817 11.5324 13.9694 12 13.5454C12.4676 13.9694 13.213 14.4817 14.0869 14.4817C15.5776 14.4817 16.6956 12.991 16.6956 12.991C16.6956 12.991 15.5775 11.5003 14.0868 11.5003Z" fill="#F0F0F0"/>
<path d="M12.0006 4.69458L12.3085 5.64221H13.3049L12.4989 6.22796L12.8066 7.17558L12.0006 6.58983L11.1946 7.17558L11.5023 6.22796L10.6962 5.64221H11.6927L12.0006 4.69458Z" fill="#FFDA44"/>
<path d="M8.21112 6.35153L8.80353 6.88488L9.49385 6.48634L9.16967 7.21455L9.76203 7.74799L8.96928 7.66464L8.64509 8.39285L8.47924 7.61317L7.68654 7.52983L8.37682 7.1312L8.21112 6.35153Z" fill="#FFDA44"/>
<path d="M5.43764 9.12594L6.21736 9.29164L6.61593 8.60132L6.69928 9.39402L7.4789 9.55986L6.75075 9.8841L6.83409 10.6768L6.30061 10.0845L5.57245 10.4087L5.97103 9.7183L5.43764 9.12594Z" fill="#FFDA44"/>
<path d="M15.7896 6.35153L15.1973 6.88488L14.5069 6.48634L14.8311 7.21455L14.2388 7.74799L15.0315 7.66464L15.3557 8.39285L15.5216 7.61317L16.3143 7.52983L15.624 7.1312L15.7896 6.35153Z" fill="#FFDA44"/>
<path d="M18.5632 9.12594L17.7835 9.29164L17.3849 8.60132L17.3015 9.39402L16.5219 9.55986L17.2501 9.8841L17.1667 10.6768L17.7002 10.0845L18.4284 10.4087L18.0298 9.7183L18.5632 9.12594Z" fill="#FFDA44"/>
<path d="M11.9997 18.6554C13.1839 18.6554 14.2753 18.2603 15.1508 17.5956H8.84871C9.72424 18.2603 10.8156 18.6554 11.9997 18.6554Z" fill="#F0F0F0"/>
<path d="M7.21722 15.5243C7.38283 15.9034 7.59283 16.2583 7.83949 16.5841H16.1606C16.4073 16.2584 16.6173 15.9034 16.7829 15.5243H7.21722Z" fill="#F0F0F0"/>
</g>
<defs>
<clipPath id="clip0_1867_58461">
<rect width="24" height="24" fill="white"/>
</clipPath>
</defs>
</svg>
