<svg width="24" height="24" viewBox="0 0 24 24" fill="none" xmlns="http://www.w3.org/2000/svg">
<g clip-path="url(#clip0_1867_58708)">
<path d="M12 24C18.6274 24 24 18.6274 24 12C24 5.37258 18.6274 0 12 0C5.37258 0 0 5.37258 0 12C0 18.6274 5.37258 24 12 24Z" fill="#338AF3"/>
<path d="M11.6213 19.5561C11.2978 19.5405 11.0301 19.3302 10.9253 19.0448C10.7401 19.2864 10.4218 19.408 10.1083 19.3271C9.79414 19.2462 9.57453 18.9864 9.52911 18.6848C9.29849 18.8841 8.96249 18.9383 8.67191 18.796C8.38077 18.653 8.21802 18.354 8.23471 18.0498C7.96916 18.199 7.62899 18.1844 7.37281 17.9861C7.11716 17.7879 7.0175 17.4628 7.09471 17.168C6.8046 17.2609 6.47488 17.1785 6.26356 16.9327C6.05225 16.6875 6.01986 16.3489 6.15453 16.076C5.85191 16.1083 5.54516 15.9612 5.38756 15.6785C5.22946 15.3957 5.26602 15.0571 5.45328 14.8165C5.15014 14.7873 4.87883 14.5812 4.7818 14.2723C4.68425 13.9635 4.7886 13.639 5.02077 13.4412C4.72963 13.3514 4.50631 13.0947 4.47346 12.7728C4.4406 12.451 4.60756 12.1551 4.87414 12.008C4.60752 11.8619 4.43952 11.5661 4.47135 11.2447C4.47135 11.2447 4.47135 11.2447 4.47186 11.2447C4.50369 10.9222 4.727 10.6651 5.01758 10.5742C4.78541 10.377 4.68003 10.053 4.77655 9.74411C4.87306 9.43474 5.14381 9.22811 5.447 9.19783C5.25969 8.95783 5.22214 8.61916 5.37917 8.33594C5.53621 8.05315 5.843 7.90549 6.14614 7.93732C6.01049 7.66446 6.04231 7.32583 6.25311 7.0796C6.46339 6.83388 6.79311 6.75091 7.08374 6.84274C7.00546 6.54846 7.1046 6.22291 7.36025 6.02416C7.61539 5.82532 7.95556 5.81018 8.22111 5.95835C8.20391 5.65422 8.36614 5.35521 8.65677 5.21172C8.94688 5.06875 9.28339 5.122 9.51449 5.32127C9.55883 5.01977 9.77849 4.75891 10.092 4.67744C10.4051 4.59607 10.7233 4.71658 10.9091 4.95761C11.0139 4.67224 11.2811 4.46144 11.6045 4.44527C11.9275 4.42863 12.2144 4.61013 12.348 4.88308C12.5077 4.62429 12.8113 4.47091 13.1312 4.51943C13.4515 4.56743 13.6973 4.80321 13.7735 5.09805C13.9821 4.87572 14.3108 4.7876 14.6145 4.89921C14.9187 5.01138 15.1117 5.29207 15.1263 5.59675C15.3752 5.42149 15.7153 5.4011 15.9903 5.57224C16.2653 5.74286 16.3973 6.05641 16.3503 6.35744C16.6295 6.2359 16.9665 6.28441 17.2013 6.50664C17.4361 6.72944 17.5028 7.06282 17.3964 7.34819C17.6943 7.28505 18.0147 7.39985 18.2004 7.66539C18.3861 7.93043 18.3846 8.2706 18.2234 8.52888C18.5276 8.52677 18.8182 8.70419 18.9471 9.00105C19.0754 9.29843 19.0049 9.63185 18.7947 9.85254C19.0937 9.91202 19.3425 10.1442 19.4083 10.4614C19.4735 10.7786 19.3373 11.0901 19.0874 11.2638C19.367 11.3823 19.5643 11.6593 19.5648 11.9828C19.5648 11.9864 19.5648 11.9896 19.5648 11.9933C19.5648 11.9954 19.5648 11.998 19.5648 12.0001C19.5648 12.3235 19.3686 12.6011 19.0889 12.7206C19.3394 12.8933 19.4766 13.2048 19.4114 13.522C19.3467 13.8392 19.0984 14.0719 18.7994 14.1324C19.0102 14.3526 19.0817 14.6854 18.9538 14.9834C18.826 15.2808 18.5354 15.4587 18.2307 15.4571C18.3924 15.7154 18.395 16.0556 18.2098 16.3211C18.0246 16.5867 17.7048 16.7025 17.4069 16.6399C17.5138 16.9248 17.4476 17.2587 17.2133 17.482C16.9785 17.7048 16.642 17.7538 16.3629 17.6333C16.4104 17.9338 16.2789 18.2479 16.0044 18.4196C15.73 18.5913 15.3898 18.5714 15.1404 18.3966C15.1263 18.7013 14.9343 18.9826 14.6307 19.0953C14.6307 19.0953 14.6307 19.0953 14.6302 19.0953C14.3265 19.2074 13.9978 19.1198 13.7886 18.8981C13.7135 19.1934 13.4683 19.4297 13.148 19.4788C12.8281 19.5273 12.524 19.375 12.3638 19.1162C12.2365 19.3786 11.9673 19.557 11.6605 19.557C11.6474 19.5572 11.6344 19.5567 11.6213 19.5561Z" fill="#F3F3F3"/>
<path d="M12.0003 17.2183C14.8818 17.2183 17.2177 14.8824 17.2177 12.0009C17.2177 9.11941 14.8818 6.78351 12.0003 6.78351C9.11882 6.78351 6.78292 9.11941 6.78292 12.0009C6.78292 14.8824 9.11882 17.2183 12.0003 17.2183Z" fill="#338AF3"/>
<path d="M13.1418 10.2289C13.3981 10.0388 13.565 9.73488 13.565 9.39119V8.86947C13.565 8.29315 13.0979 7.82599 12.5215 7.82599H11.4781C10.9018 7.82599 10.4346 8.29315 10.4346 8.86947V9.39119C10.4346 9.73488 10.6015 10.0388 10.8578 10.2289L9.91289 19.8259C9.91289 19.8259 10.4346 20.3478 11.9999 20.3478C13.5651 20.3478 14.0868 19.8259 14.0868 19.8259L13.1418 10.2289Z" fill="#BDBCC1"/>
<path d="M12.0001 7.82599L12.9066 10.6159H15.8403L13.467 12.3403L14.3734 15.1303L12.0001 13.406L9.62677 15.1303L10.5334 12.3403L8.16005 10.6159H11.0936L12.0001 7.82599Z" fill="#F0F0F0"/>
</g>
<defs>
<clipPath id="clip0_1867_58708">
<rect width="24" height="24" fill="white"/>
</clipPath>
</defs>
</svg>
