<svg width="24" height="24" viewBox="0 0 24 24" fill="none" xmlns="http://www.w3.org/2000/svg">
<g clip-path="url(#clip0_1867_58518)">
<path d="M12 24C18.6274 24 24 18.6274 24 12C24 5.37258 18.6274 0 12 0C5.37258 0 0 5.37258 0 12C0 18.6274 5.37258 24 12 24Z" fill="#F0F0F0"/>
<path d="M23.8969 10.4353C23.5659 7.90475 22.4291 5.45947 20.485 3.51533C18.5409 1.57119 16.0955 0.434425 13.5649 0.103394L13.565 10.4353H23.8969Z" fill="#0052B4"/>
<path d="M10.4347 0.104065C7.90406 0.435096 5.45873 1.57182 3.51459 3.51596C1.5705 5.46014 0.433731 7.90547 0.102699 10.4361L10.4347 10.4361L10.4347 0.104065Z" fill="#0052B4"/>
<path d="M0.103008 13.5664C0.43404 16.097 1.57081 18.5424 3.5149 20.4865C5.45904 22.4306 7.90432 23.5673 10.435 23.8984L10.435 13.5665L0.103008 13.5664Z" fill="#0052B4"/>
<path d="M13.5649 23.8983C16.0955 23.5673 18.5408 22.4306 20.485 20.4864C22.4291 18.5423 23.5658 16.097 23.8968 13.5664H13.5649V23.8983Z" fill="#0052B4"/>
<path d="M16.0964 7.61471C16.0964 7.45515 16.2261 7.32545 16.3857 7.32545H17.0056C17.9855 7.32545 18.7827 6.52829 18.7827 5.54846C18.7827 4.56863 17.9855 3.77143 17.0056 3.77143H16.4169C16.2248 3.6271 15.967 3.53809 15.6827 3.53809C15.0896 3.53809 14.6088 3.9227 14.6088 4.39716C14.6088 4.86704 15.0804 5.24823 15.6656 5.25563L15.6653 5.25906H17.0056C17.1652 5.25906 17.2949 5.38881 17.2949 5.54837C17.2949 5.70793 17.1652 5.83763 17.0056 5.83763H16.3857C15.4058 5.83763 14.6087 6.63479 14.6087 7.61462C14.6087 8.59445 15.4058 9.39165 16.3857 9.39165H18.7826V7.90393H16.3857C16.2261 7.90398 16.0964 7.77428 16.0964 7.61471Z" fill="#F0F0F0"/>
<path d="M6.70494 7.61484C6.70494 7.45527 6.83464 7.32557 6.99425 7.32557H7.61412C8.594 7.32557 9.3912 6.52841 9.3912 5.54858C9.3912 4.56876 8.59405 3.77155 7.61412 3.77155H7.02547C6.83333 3.62722 6.57556 3.53821 6.29122 3.53821C5.69811 3.53821 5.21731 3.92282 5.21731 4.39729C5.21731 4.86716 5.68892 5.24835 6.27411 5.25576L6.27383 5.25918H7.61417C7.77378 5.25918 7.90348 5.38893 7.90348 5.54849C7.90348 5.70805 7.77378 5.83776 7.61417 5.83776H6.9943C6.01442 5.83776 5.21731 6.63491 5.21731 7.61474C5.21731 8.59457 6.01437 9.39177 6.9943 9.39177H9.39116V7.90406H6.99425C6.83464 7.9041 6.70494 7.7744 6.70494 7.61484Z" fill="#F0F0F0"/>
<path d="M16.0965 18.6859C16.0965 18.5264 16.2262 18.3967 16.3858 18.3967H17.0056C17.9855 18.3967 18.7827 17.5995 18.7827 16.6197C18.7827 15.6399 17.9856 14.8427 17.0056 14.8427H16.417C16.2248 14.6983 15.9671 14.6093 15.6827 14.6093C15.0896 14.6093 14.6088 14.994 14.6088 15.4684C14.6088 15.9383 15.0804 16.3195 15.6656 16.3269L15.6653 16.3303H17.0056C17.1652 16.3303 17.2949 16.46 17.2949 16.6196C17.2949 16.7792 17.1652 16.9089 17.0056 16.9089H16.3857C15.4058 16.9089 14.6087 17.706 14.6087 18.6858C14.6087 19.6657 15.4058 20.4629 16.3857 20.4629H18.7827V18.9752H16.3858C16.2262 18.9753 16.0965 18.8455 16.0965 18.6859Z" fill="#F0F0F0"/>
<path d="M6.70487 18.6859C6.70487 18.5264 6.83457 18.3967 6.99418 18.3967H7.61406C8.59393 18.3967 9.39113 17.5995 9.39113 16.6197C9.39113 15.6399 8.59398 14.8427 7.61406 14.8427H7.0254C6.83326 14.6983 6.57549 14.6093 6.29115 14.6093C5.69799 14.6093 5.2172 14.994 5.2172 15.4684C5.2172 15.9383 5.68881 16.3195 6.27399 16.3269L6.27371 16.3303H7.61406C7.77366 16.3303 7.90337 16.46 7.90337 16.6196C7.90337 16.7792 7.77366 16.9089 7.61406 16.9089H6.99418C6.01431 16.9089 5.2172 17.706 5.2172 18.6858C5.2172 19.6657 6.01426 20.4629 6.99418 20.4629H9.39109V18.9752H6.99418C6.83457 18.9753 6.70487 18.8455 6.70487 18.6859Z" fill="#F0F0F0"/>
</g>
<defs>
<clipPath id="clip0_1867_58518">
<rect width="24" height="24" fill="white"/>
</clipPath>
</defs>
</svg>
