<svg width="24" height="24" viewBox="0 0 24 24" fill="none" xmlns="http://www.w3.org/2000/svg">
<g clip-path="url(#clip0_1867_58531)">
<path d="M12 24C18.6274 24 24 18.6274 24 12C24 5.37258 18.6274 0 12 0C5.37258 0 0 5.37258 0 12C0 18.6274 5.37258 24 12 24Z" fill="#496E2D"/>
<path d="M11.9996 13.8637C10.0016 13.8637 8.33233 12.4594 7.92279 10.5842C7.85988 10.8725 7.82576 11.1714 7.82576 11.4786C7.82576 13.7839 9.69443 15.6525 11.9996 15.6525C14.3049 15.6525 16.1735 13.7838 16.1735 11.4786C16.1735 11.1714 16.1394 10.8725 16.0765 10.5841C15.667 12.4595 13.9977 13.8637 11.9996 13.8637Z" fill="#FFDA44"/>
<path d="M11.9998 8.34781L12.3883 9.54354H13.6457L12.6285 10.2825L13.017 11.4783L11.9998 10.7392L10.9827 11.4783L11.3712 10.2825L10.3541 9.54354H11.6113L11.9998 8.34781Z" fill="#FFDA44"/>
</g>
<defs>
<clipPath id="clip0_1867_58531">
<rect width="24" height="24" fill="white"/>
</clipPath>
</defs>
</svg>
