<svg width="24" height="24" viewBox="0 0 24 24" fill="none" xmlns="http://www.w3.org/2000/svg">
<g clip-path="url(#clip0_1867_58594)">
<path d="M24 12C24 18.6274 18.6274 24 12 24C5.37262 24 0 18.6274 0 12C0 12.0029 12 0.0013125 12 0C18.6274 0 24 5.37262 24 12Z" fill="#0052B4"/>
<path d="M11.9684 11.9998H12.0006C12.0006 11.989 12.0006 11.9784 12.0006 11.9676C11.9898 11.9783 11.9791 11.989 11.9684 11.9998Z" fill="#F0F0F0"/>
<path d="M12.0004 6.26126C12.0004 4.14977 12.0004 2.76626 12.0004 0.000396729H11.9984C5.3719 0.00152173 0.000453949 5.37363 0.000453949 12.0004H6.26131V8.47488L9.78682 12.0004H11.9684C11.9791 11.9897 11.9898 11.979 12.0005 11.9683C12.0005 11.1598 12.0005 10.4385 12.0005 9.78687L8.47489 6.26126H12.0004Z" fill="#F0F0F0"/>
<path d="M6.07125 1.56547C4.19442 2.63417 2.63409 4.19446 1.56543 6.07128V12.0003H4.69589V4.69602V4.69593H12.0002C12.0002 3.7086 12.0002 2.768 12.0002 1.56547H6.07125Z" fill="#D80027"/>
<path d="M12.0005 10.5242L7.73695 6.26083H6.26133V6.26092L12.0004 11.9999H12.0005C12.0005 11.9999 12.0005 10.9824 12.0005 10.5242Z" fill="#D80027"/>
<path d="M13.565 6.26051V11.9996C13.565 14.7952 17.2172 15.6518 17.2172 15.6518C17.2172 15.6518 20.8694 14.7952 20.8694 11.9996V6.26051H13.565Z" fill="#338AF3"/>
<path d="M13.565 11.9992C13.565 14.7948 17.2172 15.6514 17.2172 15.6514C17.2172 15.6514 20.8694 14.7948 20.8694 11.9992H13.565Z" fill="#A2001D"/>
<path d="M18.7824 8.86912H17.7388V7.82558H16.6953V8.86912H15.6519V9.91255H16.6953V13.043H17.7388V9.91255H18.7824V8.86912Z" fill="black"/>
</g>
<defs>
<clipPath id="clip0_1867_58594">
<rect width="24" height="24" fill="white"/>
</clipPath>
</defs>
</svg>
