<svg width="24" height="24" viewBox="0 0 24 24" fill="none" xmlns="http://www.w3.org/2000/svg">
<g clip-path="url(#clip0_1867_58537)">
<path d="M1.45866 6.26037L11.9996 7.30386L22.5405 6.26037C20.5052 2.53025 16.5481 -0.000488281 11.9996 -0.000488281C7.45107 -0.000488281 3.49393 2.53025 1.45866 6.26037Z" fill="#D80027"/>
<path d="M1.45878 17.7384L11.9997 18.7819L22.5406 17.7384C23.4708 16.0335 23.9997 14.0782 23.9997 11.9993L11.9997 10.9558L-0.000297546 11.9993C-0.000297546 14.0782 0.528593 16.0335 1.45878 17.7384Z" fill="#FFDA44"/>
<path d="M1.45878 6.26099C0.528593 7.96588 -0.000297546 9.92122 -0.000297546 12.0001H23.9997C23.9997 9.92122 23.4708 7.96588 22.5406 6.26099H11.9997H1.45878Z" fill="#0052B4"/>
<path d="M11.9996 23.9996C16.5481 23.9996 20.5052 21.4688 22.5405 17.7387H1.45866C3.49393 21.4688 7.45107 23.9996 11.9996 23.9996Z" fill="#6DA544"/>
</g>
<defs>
<clipPath id="clip0_1867_58537">
<rect width="24" height="24" fill="white"/>
</clipPath>
</defs>
</svg>
