<svg width="24" height="24" viewBox="0 0 24 24" fill="none" xmlns="http://www.w3.org/2000/svg">
<g clip-path="url(#clip0_1867_58479)">
<path d="M-6.86646e-05 11.9998C-6.86646e-05 13.4676 0.263978 14.8737 0.746322 16.1737L11.9999 16.6954L23.2535 16.1737C23.7359 14.8737 23.9999 13.4676 23.9999 11.9998C23.9999 10.5319 23.7359 9.12589 23.2535 7.8259L11.9999 7.30414L0.746322 7.82586C0.263978 9.12589 -6.86646e-05 10.5319 -6.86646e-05 11.9998Z" fill="#D80027"/>
<path d="M11.9999 -0.000366211C6.84029 -0.000366211 2.44177 3.25613 0.746259 7.82574H23.2535C21.558 3.25613 17.1594 -0.000366211 11.9999 -0.000366211Z" fill="black"/>
<path d="M23.2534 16.1747H0.746185C2.4417 20.7442 6.84022 24.0008 11.9998 24.0008C17.1594 24.0008 21.5579 20.7442 23.2534 16.1747Z" fill="#496E2D"/>
<path d="M15.5865 5.73994L14.121 5.0506L14.9014 3.63127L13.31 3.93572L13.1083 2.328L11.9998 3.51042L10.8914 2.328L10.6897 3.93572L9.09829 3.63127L9.87872 5.0506L8.41317 5.73994H15.5865Z" fill="#D80027"/>
</g>
<defs>
<clipPath id="clip0_1867_58479">
<rect width="24" height="24" fill="white"/>
</clipPath>
</defs>
</svg>
