<svg width="24" height="24" viewBox="0 0 24 24" fill="none" xmlns="http://www.w3.org/2000/svg">
<g clip-path="url(#clip0_1867_58543)">
<path d="M12 24C18.6274 24 24 18.6274 24 12C24 5.37258 18.6274 0 12 0C5.37258 0 0 5.37258 0 12C0 18.6274 5.37258 24 12 24Z" fill="#F0F0F0"/>
<path d="M23.9999 11.9997C23.9999 7.24218 21.2312 3.13143 17.2172 1.19043V22.8089C21.2312 20.868 23.9999 16.7572 23.9999 11.9997Z" fill="#D80027"/>
<path d="M-6.86646e-05 11.9997C-6.86646e-05 16.7572 2.7686 20.868 6.78256 22.809V1.19043C2.7686 3.13143 -6.86646e-05 7.24218 -6.86646e-05 11.9997Z" fill="#6DA544"/>
<path d="M8.86957 11.9993C8.86957 13.7282 10.2711 15.1297 12 15.1297C13.7289 15.1297 15.1305 13.7282 15.1305 11.9993V10.9558H8.86957V11.9993Z" fill="#6DA544"/>
<path d="M16.1735 9.91339H13.043C13.043 9.33711 12.5758 8.8699 11.9995 8.8699C11.4233 8.8699 10.9561 9.33711 10.9561 9.91339H7.82561C7.82561 10.4897 8.32759 10.9569 8.90383 10.9569H8.86909C8.86909 11.5332 9.33625 12.0004 9.91258 12.0004C9.91258 12.5767 10.3797 13.0438 10.9561 13.0438H13.043C13.6194 13.0438 14.0865 12.5767 14.0865 12.0004C14.6628 12.0004 15.13 11.5332 15.13 10.9569H15.0952C15.6716 10.9569 16.1735 10.4897 16.1735 9.91339Z" fill="#FF9811"/>
</g>
<defs>
<clipPath id="clip0_1867_58543">
<rect width="24" height="24" fill="white"/>
</clipPath>
</defs>
</svg>
