<svg width="24" height="24" viewBox="0 0 24 24" fill="none" xmlns="http://www.w3.org/2000/svg">
<g clip-path="url(#clip0_1867_58611)">
<path d="M12 24C18.6274 24 24 18.6274 24 12C24 5.37258 18.6274 0 12 0C5.37258 0 0 5.37258 0 12C0 18.6274 5.37258 24 12 24Z" fill="#F0F0F0"/>
<path d="M6.48567 16.696L3.51464 20.4852C5.68608 22.6569 8.68575 24.0003 11.9995 24.0003C16.9603 24.0003 21.2172 20.9896 23.0447 16.696H6.48567Z" fill="#FFDA44"/>
<path d="M23.0634 7.34839C21.2461 3.03163 16.9771 0.000595093 11.9995 0.000595093C8.68575 0.000595093 5.68608 1.34399 3.51464 3.5157L6.5198 7.34839H23.0634Z" fill="#496E2D"/>
<path d="M2.60862 8.82593V15.1302H23.5866C23.8557 14.1322 23.9999 13.083 23.9999 11.9998C23.9999 10.901 23.8519 9.83693 23.5752 8.82593H2.60862Z" fill="black"/>
<path d="M3.51432 3.51426C-1.17196 8.20054 -1.17196 15.7986 3.51432 20.4849C5.45086 18.5483 7.31335 16.6859 11.9996 11.9996L3.51432 3.51426Z" fill="#A2001D"/>
<path d="M4.85698 8.86942L5.63393 11.2608H8.14859L6.11431 12.7389L6.89121 15.1303L4.85698 13.6523L2.82265 15.1303L3.59974 12.7389L1.56546 11.2608H4.07993L4.85698 8.86942Z" fill="#FFDA44"/>
<path d="M7.13107 11.9992H2.58307V14.0862H7.13107V11.9992Z" fill="#F0F0F0"/>
<path d="M7.99217 9.60732L7.25431 8.86942L4.85675 11.267L2.45919 8.86942L1.72133 9.60732L4.121 12.0027L1.72133 14.4024L2.45919 15.1303L4.85675 12.7371L7.25431 15.1303L7.99217 14.4024L5.5925 12.0027L7.99217 9.60732Z" fill="black"/>
</g>
<defs>
<clipPath id="clip0_1867_58611">
<rect width="24" height="24" fill="white"/>
</clipPath>
</defs>
</svg>
