<svg width="24" height="24" viewBox="0 0 24 24" fill="none" xmlns="http://www.w3.org/2000/svg">
<g clip-path="url(#clip0_1867_58627)">
<path d="M12 24C18.6274 24 24 18.6274 24 12C24 5.37258 18.6274 0 12 0C5.37258 0 0 5.37258 0 12C0 18.6274 5.37258 24 12 24Z" fill="#F0F0F0"/>
<path d="M3.51452 20.4849C4.01791 20.9883 4.555 21.4372 5.11839 21.8325L21.8326 5.11828C21.4374 4.55489 20.9884 4.01779 20.485 3.5144C19.9816 3.01101 19.4445 2.56214 18.8811 2.16689L2.167 18.8811C2.56221 19.4444 3.01113 19.9815 3.51452 20.4849Z" fill="#A2001D"/>
<path d="M3.51502 3.51476C-0.270796 7.30057 -0.997546 12.9861 1.33322 17.5022L17.5024 1.33306C12.9863 -0.997707 7.30074 -0.270863 3.51502 3.51476Z" fill="#0052B4"/>
<path d="M20.4858 20.4847C24.2715 16.699 24.9983 11.0134 22.6676 6.49733L6.49842 22.6665C11.0144 24.9973 16.7 24.2705 20.4858 20.4847Z" fill="#496E2D"/>
<path d="M9.91322 6.78185L8.56857 7.41434L9.28463 8.71662L7.82452 8.43734L7.63946 9.91226L6.62246 8.82743L5.60541 9.91226L5.42044 8.43734L3.96029 8.71657L4.6763 7.41429L3.33169 6.78185L4.67635 6.14932L3.96029 4.84713L5.42039 5.12641L5.60546 3.6514L6.62246 4.73627L7.6395 3.6514L7.82452 5.12641L9.28463 4.84713L8.56866 6.14937L9.91322 6.78185Z" fill="#FFDA44"/>
</g>
<defs>
<clipPath id="clip0_1867_58627">
<rect width="24" height="24" fill="white"/>
</clipPath>
</defs>
</svg>
