<svg width="24" height="24" viewBox="0 0 24 24" fill="none" xmlns="http://www.w3.org/2000/svg">
<g clip-path="url(#clip0_1867_58672)">
<path d="M1.19031 6.78207C0.427467 8.3597 -0.000408173 10.1296 -0.000408173 11.9994C-0.000408173 13.8693 0.427467 15.6392 1.19031 17.2168L11.9996 18.2603L22.8089 17.2168C23.5717 15.6392 23.9996 13.8693 23.9996 11.9994C23.9996 10.1296 23.5717 8.3597 22.8089 6.78207L11.9996 5.73859L1.19031 6.78207Z" fill="#F0F0F0"/>
<path d="M1.19091 17.2183C3.13181 21.2323 7.24223 24.001 11.9998 24.001C16.7573 24.001 20.8677 21.2323 22.8086 17.2183H1.19091Z" fill="#6DA544"/>
<path d="M1.19091 6.78238H22.8086C20.8677 2.76843 16.7572 -0.000244141 11.9998 -0.000244141C7.24228 -0.000244141 3.13181 2.76843 1.19091 6.78238Z" fill="#FF9811"/>
<path d="M12 16.1742C14.3052 16.1742 16.1739 14.3055 16.1739 12.0003C16.1739 9.69513 14.3052 7.82642 12 7.82642C9.69481 7.82642 7.82609 9.69513 7.82609 12.0003C7.82609 14.3055 9.69481 16.1742 12 16.1742Z" fill="#FF9811"/>
</g>
<defs>
<clipPath id="clip0_1867_58672">
<rect width="24" height="24" fill="white"/>
</clipPath>
</defs>
</svg>
