<svg width="24" height="24" viewBox="0 0 24 24" fill="none" xmlns="http://www.w3.org/2000/svg">
<g clip-path="url(#clip0_1867_58692)">
<path d="M17.2169 1.19047C15.6393 0.427631 13.8694 -0.000244141 11.9996 -0.000244141C10.1297 -0.000244141 8.35981 0.427631 6.78218 1.19047L5.7387 11.9998L6.78218 22.809C8.35981 23.5719 10.1297 23.9998 11.9996 23.9998C13.8694 23.9998 15.6393 23.5719 17.2169 22.809L18.2604 11.9998L17.2169 1.19047Z" fill="#F0F0F0"/>
<path d="M6.78256 1.19122C2.7686 3.13213 -6.86646e-05 7.24255 -6.86646e-05 12.0001C-6.86646e-05 16.7576 2.7686 20.868 6.78256 22.8089V1.19122Z" fill="#6DA544"/>
<path d="M17.2172 1.19122V22.8089C21.2311 20.868 23.9998 16.7576 23.9998 12.0001C23.9998 7.2426 21.2311 3.13213 17.2172 1.19122Z" fill="#6DA544"/>
<path d="M15.1305 15.6516L12 5.73859L8.86958 15.6516H11.2174V18.2603H12.7827V15.6516H15.1305Z" fill="#6DA544"/>
</g>
<defs>
<clipPath id="clip0_1867_58692">
<rect width="24" height="24" fill="white"/>
</clipPath>
</defs>
</svg>
