<svg width="24" height="24" viewBox="0 0 24 24" fill="none" xmlns="http://www.w3.org/2000/svg">
<g clip-path="url(#clip0_1867_58673)">
<path d="M12 24C18.6274 24 24 18.6274 24 12C24 5.37258 18.6274 0 12 0C5.37258 0 0 5.37258 0 12C0 18.6274 5.37258 24 12 24Z" fill="#F0F0F0"/>
<path d="M-0.000408173 12.0002C-0.000408173 17.1598 3.25609 21.5583 7.8257 23.2539V0.746643C3.25609 2.44211 -0.000408173 6.84067 -0.000408173 12.0002Z" fill="#6DA544"/>
<path d="M23.9999 12.0002C23.9999 6.84067 20.7434 2.44211 16.1738 0.746643V23.2539C20.7434 21.5583 23.9999 17.1598 23.9999 12.0002Z" fill="#6DA544"/>
</g>
<defs>
<clipPath id="clip0_1867_58673">
<rect width="24" height="24" fill="white"/>
</clipPath>
</defs>
</svg>
