<svg width="24" height="24" viewBox="0 0 24 24" fill="none" xmlns="http://www.w3.org/2000/svg">
<g clip-path="url(#clip0_1867_58662)">
<path d="M12 24C18.6274 24 24 18.6274 24 12C24 5.37258 18.6274 0 12 0C5.37258 0 0 5.37258 0 12C0 18.6274 5.37258 24 12 24Z" fill="#F0F0F0"/>
<path d="M12.0003 -0.000213623C7.24279 -0.000213623 3.13204 2.76846 1.19104 6.78241H22.8096C20.8686 2.76846 16.7578 -0.000213623 12.0003 -0.000213623Z" fill="#338AF3"/>
<path d="M12.0003 24.001C16.7578 24.001 20.8686 21.2323 22.8096 17.2184H1.19104C3.13204 21.2323 7.24279 24.001 12.0003 24.001Z" fill="#338AF3"/>
<path d="M12.0003 8.34772C9.98328 8.34772 8.34814 9.98286 8.34814 11.9999C8.34814 14.0169 9.98328 15.6521 12.0003 15.6521C14.0173 15.6521 15.6525 14.0169 15.6525 11.9999C15.6525 9.98286 14.0173 8.34772 12.0003 8.34772ZM12.0003 14.0869C10.8477 14.0869 9.91334 13.1525 9.91334 11.9999C9.91334 10.8472 10.8477 9.91292 12.0003 9.91292C13.1529 9.91292 14.0873 10.8472 14.0873 11.9999C14.0873 13.1525 13.1529 14.0869 12.0003 14.0869Z" fill="#FFDA44"/>
<path d="M13.8069 12.5222L11.9995 12.0005L10.1921 12.5222L9.58969 13.5657H14.4093L13.8069 12.5222Z" fill="#0052B4"/>
<path d="M11.9998 9.39136L10.7949 11.4783L11.9998 12L13.2047 11.4783L11.9998 9.39136Z" fill="#338AF3"/>
<path d="M10.1923 12.5211H13.8071L13.2046 11.4777H10.7948L10.1923 12.5211Z" fill="#6DA544"/>
</g>
<defs>
<clipPath id="clip0_1867_58662">
<rect width="24" height="24" fill="white"/>
</clipPath>
</defs>
</svg>
