<svg width="24" height="24" viewBox="0 0 24 24" fill="none" xmlns="http://www.w3.org/2000/svg">
<g clip-path="url(#clip0_1867_58643)">
<path d="M12 24C18.6274 24 24 18.6274 24 12C24 5.37258 18.6274 0 12 0C5.37258 0 0 5.37258 0 12C0 18.6274 5.37258 24 12 24Z" fill="#F0F0F0"/>
<path d="M12.0002 -0.000518799C6.84059 -0.000518799 2.44208 3.25598 0.746563 7.82559H23.2538C21.5583 3.25598 17.1597 -0.000518799 12.0002 -0.000518799Z" fill="#A2001D"/>
<path d="M12.0002 24.0004C17.1598 24.0004 21.5583 20.7439 23.2538 16.1743H0.746578C2.44209 20.7439 6.84061 24.0004 12.0002 24.0004Z" fill="#0052B4"/>
</g>
<defs>
<clipPath id="clip0_1867_58643">
<rect width="24" height="24" fill="white"/>
</clipPath>
</defs>
</svg>
