<svg width="24" height="24" viewBox="0 0 24 24" fill="none" xmlns="http://www.w3.org/2000/svg">
<g clip-path="url(#clip0_1867_58715)">
<path d="M12 24C18.6274 24 24 18.6274 24 12C24 5.37258 18.6274 0 12 0C5.37258 0 0 5.37258 0 12C0 18.6274 5.37258 24 12 24Z" fill="#F0F0F0"/>
<path d="M0.413353 15.131C1.10767 17.7072 2.6379 19.94 4.69562 21.5211V15.131H0.413353Z" fill="#D80027"/>
<path d="M10.9563 23.9549C11.3003 23.9845 11.6481 24.0005 11.9998 24.0005C17.5441 24.0005 22.2094 20.2402 23.5864 15.131H10.9563V23.9549Z" fill="#D80027"/>
<path d="M23.5864 8.87004C22.2094 3.76085 17.5441 0.000488281 11.9998 0.000488281C11.6481 0.000488281 11.3003 0.0165195 10.9563 0.0461445V8.87004H23.5864Z" fill="#D80027"/>
<path d="M4.69562 2.48029C2.6379 4.06138 1.10767 6.29418 0.413353 8.87038H4.69562V2.48029Z" fill="#D80027"/>
<path d="M23.8984 10.4343H9.39131H9.39126V0.284729C8.28229 0.530635 7.23093 0.929213 6.26081 1.45857V10.4342V10.4342H0.101525C0.0347278 10.9466 -5.34058e-05 11.469 -5.34058e-05 11.9995C-5.34058e-05 12.53 0.0347278 13.0524 0.101525 13.5647H6.26076H6.26081V22.5404C7.23093 23.0697 8.28229 23.4684 9.39126 23.7142V13.5648V13.5647H23.8984C23.9651 13.0524 23.9999 12.53 23.9999 11.9995C23.9999 11.469 23.9651 10.9466 23.8984 10.4343Z" fill="#0052B4"/>
</g>
<defs>
<clipPath id="clip0_1867_58715">
<rect width="24" height="24" fill="white"/>
</clipPath>
</defs>
</svg>
