<svg width="24" height="24" viewBox="0 0 24 24" fill="none" xmlns="http://www.w3.org/2000/svg">
<g clip-path="url(#clip0_1867_58642)">
<path d="M12 24C18.6274 24 24 18.6274 24 12C24 5.37258 18.6274 0 12 0C5.37258 0 0 5.37258 0 12C0 18.6274 5.37258 24 12 24Z" fill="#F0F0F0"/>
<path d="M23.9299 13.3046L23.9296 13.3042L23.9296 13.3046H23.9299Z" fill="#0052B4"/>
<path d="M23.9292 13.3041C23.9292 13.3041 23.9292 13.304 23.9292 13.3038L10.7693 0.0621948C10.1756 0.12271 9.59471 0.226492 9.02982 0.370351C3.83893 1.69199 -3.43323e-05 11.9998 -3.43323e-05 11.9998C-3.43323e-05 11.9998 16.7999 23.2421 18.7164 21.945C19.0999 21.6855 19.4676 21.4044 19.8177 21.1034L12.0185 13.3041H23.9292Z" fill="#0052B4"/>
<path d="M20.8697 11.9995L9.19913 0.328979C3.92302 1.59071 0.000144958 6.33662 0.000144958 11.9995C0.000144958 18.6269 5.37277 23.9995 12.0001 23.9995C14.514 23.9995 16.8469 23.226 18.7749 21.9047L8.86969 11.9995H20.8697Z" fill="#D80027"/>
<path d="M11.4125 17.7175L9.94699 17.0281L10.7274 15.6088L9.13601 15.9133L8.93435 14.3055L7.8259 15.488L6.71745 14.3055L6.51574 15.9133L4.92438 15.6088L5.70481 17.0281L4.23921 17.7175L5.70481 18.4068L4.92438 19.8262L6.51584 19.5217L6.7174 21.1294L7.8259 19.9469L8.93435 21.1294L9.13601 19.5217L10.7274 19.8262L9.94695 18.4069L11.4125 17.7175Z" fill="#F0F0F0"/>
<path d="M10.4342 6.65496L9.36831 6.15363L9.93592 5.12131L8.77843 5.34274L8.63176 4.1734L7.82556 5.03342L7.01935 4.1734L6.87264 5.34274L5.71515 5.12131L6.28281 6.15363L5.21682 6.65496L7.82556 7.17677L10.4342 6.65496Z" fill="#F0F0F0"/>
<path d="M10.9567 6.65533C10.9567 8.38422 9.55512 9.78578 7.82623 9.78578C6.09734 9.78578 4.69578 8.38422 4.69578 6.65533" fill="#F0F0F0"/>
</g>
<defs>
<clipPath id="clip0_1867_58642">
<rect width="24" height="24" fill="white"/>
</clipPath>
</defs>
</svg>
