<svg width="24" height="24" viewBox="0 0 24 24" fill="none" xmlns="http://www.w3.org/2000/svg">
<g clip-path="url(#clip0_1867_58634)">
<path d="M12 24C18.6274 24 24 18.6274 24 12C24 5.37258 18.6274 0 12 0C5.37258 0 0 5.37258 0 12C0 18.6274 5.37258 24 12 24Z" fill="#0052B4"/>
<path d="M12 24C18.6274 24 24 18.6274 24 12C24 5.37258 18.6274 0 12 0C5.37258 0 0 5.37258 0 12C0 18.6274 5.37258 24 12 24Z" fill="#FFDA44"/>
<path d="M12.0011 -0.000518799C5.72526 -0.000518799 0.575666 4.81734 0.0467758 10.956H23.9554C23.4265 4.81734 18.2769 -0.000518799 12.0011 -0.000518799Z" fill="#0052B4"/>
<path d="M11.9999 24.0001C18.2758 24.0001 23.4254 19.1823 23.9543 13.0436H0.0456467C0.574537 19.1823 5.72413 24.0001 11.9999 24.0001Z" fill="#0052B4"/>
<path d="M9.91324 16.1745L8.56858 16.8071L9.2846 18.1093L7.82449 17.83L7.63947 19.305L6.62243 18.2202L5.60543 19.305L5.42041 17.83L3.96026 18.1092L4.67632 16.807L3.33166 16.1745L4.67636 15.542L3.96026 14.2398L5.42036 14.5191L5.60547 13.0441L6.62243 14.1289L7.63952 13.0441L7.82449 14.5191L9.28465 14.2398L8.56863 15.5421L9.91324 16.1745Z" fill="#F0F0F0"/>
</g>
<defs>
<clipPath id="clip0_1867_58634">
<rect width="24" height="24" fill="white"/>
</clipPath>
</defs>
</svg>
