<svg width="24" height="24" viewBox="0 0 24 24" fill="none" xmlns="http://www.w3.org/2000/svg">
<g clip-path="url(#clip0_1867_58674)">
<path d="M24 12C24 18.6274 18.6274 24 12 24C5.37262 24 0 18.6274 0 12C0 12.0029 12 0.0013125 12 0C18.6274 0 24 5.37262 24 12Z" fill="#FFDA44"/>
<path d="M12.0003 5.73956V9.78689L7.82642 5.73956H12.0003Z" fill="#0052B4"/>
<path d="M6.26124 12.0003H9.78675L6.26124 7.30463L5.73952 10.9568L6.26124 12.0003Z" fill="#0052B4"/>
<path d="M11.9684 12.0007H12.0005C12.0005 11.9899 12.0005 11.9794 12.0005 11.9685C11.9898 11.9793 11.9791 11.99 11.9684 12.0007Z" fill="#F0F0F0"/>
<path d="M12 6.26086C12 4.14937 12 2.76586 12 0H11.998C5.37145 0.001125 0 5.37323 0 12H6.26086V8.47448L9.78637 12H11.9679C11.9786 11.9893 11.9893 11.9786 12 11.9679C12 11.1594 12 10.4381 12 9.78647L8.47443 6.26086H12Z" fill="#F0F0F0"/>
<path d="M11.9993 10.5247L7.73579 6.26123H6.26016V6.26132L11.9992 12.0003H11.9993C11.9993 12.0003 11.9993 10.9828 11.9993 10.5247Z" fill="#D80027"/>
<path d="M6.07061 1.565C5.608 1.82844 5.1648 2.12202 4.7433 2.4425H5.23567L3.93433 3.38816L4.4313 4.91802L3.12995 3.97255L2.99148 4.07319C2.45116 4.68678 1.97209 5.3556 1.5648 6.07082V11.9998H4.69525V4.69555V4.69546H11.9996C11.9996 3.70813 11.9996 2.76753 11.9996 1.565H6.07061Z" fill="#D80027"/>
<path d="M5.12591 2.16425C4.99649 2.25485 4.8689 2.348 4.74323 2.44357L3.9344 3.38923L3.13002 3.97357L2.99038 4.07501C2.69573 4.4097 2.4194 4.76089 2.16299 5.12712C2.45526 5.26896 2.78333 5.3487 3.13002 5.3487C4.35468 5.3487 5.3474 4.35598 5.3474 3.13132C5.34749 2.78454 5.26781 2.45656 5.12591 2.16425Z" fill="#0052B4"/>
<path d="M2.99012 4.07388L3.12976 3.97244L4.4311 4.91796L3.93409 3.3881L5.23534 2.44244H4.74287C4.10565 2.92708 3.51844 3.47384 2.99012 4.07388Z" fill="#FFDA44"/>
<path d="M8.29422 2.0874L8.55325 2.88451H9.39138L8.71333 3.37721L8.97222 4.17432L8.29422 3.68167L7.61618 4.17432L7.87502 3.37721L7.19698 2.88451H8.03515L8.29422 2.0874Z" fill="#FFDA44"/>
<path d="M3.13009 7.30524L3.38912 8.10235H4.22725L3.54925 8.5951L3.80814 9.39221L3.13009 8.8995L2.452 9.39221L2.71089 8.5951L2.03289 8.10235H2.87102L3.13009 7.30524Z" fill="#FFDA44"/>
</g>
<defs>
<clipPath id="clip0_1867_58674">
<rect width="24" height="24" fill="white"/>
</clipPath>
</defs>
</svg>
