<svg width="24" height="24" viewBox="0 0 24 24" fill="none" xmlns="http://www.w3.org/2000/svg">
<g clip-path="url(#clip0_1867_58724)">
<path d="M12 24C18.6274 24 24 18.6274 24 12C24 5.37258 18.6274 0 12 0C5.37258 0 0 5.37258 0 12C0 18.6274 5.37258 24 12 24Z" fill="#F0F0F0"/>
<path d="M8.39233e-05 12.0005C8.39233e-05 16.549 2.53086 20.5062 6.26094 22.5414V1.45956C2.53086 3.49478 8.39233e-05 7.45197 8.39233e-05 12.0005Z" fill="#D80027"/>
<path d="M23.2538 16.1751C23.7361 14.8752 24.0001 13.4691 24.0001 12.0013C24.0001 10.5334 23.7361 9.1273 23.2538 7.82736H0.746522C0.264131 9.1273 8.39233e-05 10.5334 8.39233e-05 12.0013C8.39233e-05 13.4691 0.264131 14.8752 0.746522 16.1751L12.0001 17.2186L23.2538 16.1751Z" fill="#D80027"/>
<path d="M12.0003 23.9997C17.1599 23.9997 21.5583 20.7432 23.2539 16.1736H0.746689C2.44216 20.7432 6.84072 23.9997 12.0003 23.9997Z" fill="#6DA544"/>
<path d="M0.000274658 11.9996C0.000274658 17.5439 3.76063 22.2092 8.86982 23.5862V0.412994C3.76063 1.78999 0.000274658 6.45528 0.000274658 11.9996Z" fill="#D80027"/>
<path d="M7.34156 5.28157L6.23479 4.1748L5.49698 4.91271L4.75917 4.1748L3.65241 5.28157L4.39027 6.01943L3.65231 6.75734L4.75908 7.8641L5.49694 7.1262L6.23479 7.8641L7.34156 6.75734L6.6037 6.01943L7.34156 5.28157Z" fill="#F0F0F0"/>
</g>
<defs>
<clipPath id="clip0_1867_58724">
<rect width="24" height="24" fill="white"/>
</clipPath>
</defs>
</svg>
