<svg width="24" height="24" viewBox="0 0 24 24" fill="none" xmlns="http://www.w3.org/2000/svg">
<g clip-path="url(#clip0_1867_58744)">
<path d="M12 24C18.6274 24 24 18.6274 24 12C24 5.37258 18.6274 0 12 0C5.37258 0 0 5.37258 0 12C0 18.6274 5.37258 24 12 24Z" fill="#F0F0F0"/>
<path d="M4.57764e-05 11.9998C4.57764e-05 18.6272 5.37267 23.9998 12 23.9998C12 19.4363 12 11.9998 12 11.9998C12 11.9998 4.17394 11.9998 4.57764e-05 11.9998Z" fill="#0052B4"/>
<path d="M11.9996 0.000823975C18.627 0.000823975 23.9996 5.37345 23.9996 12.0008C19.4361 12.0008 11.9996 12.0008 11.9996 12.0008C11.9996 12.0008 11.9996 4.17471 11.9996 0.000823975Z" fill="#D80027"/>
<path d="M7.14363 4.1748L7.92067 6.56627H10.4352L8.40091 8.04424L9.17791 10.4357L7.14363 8.9577L5.10935 10.4357L5.88635 8.04424L3.85207 6.56627H6.36658L7.14363 4.1748Z" fill="#0052B4"/>
<path d="M16.857 13.5647L17.6341 15.9562H20.1486L18.1143 17.4341L18.8913 19.8256L16.857 18.3476L14.8228 19.8256L15.5997 17.4341L13.5655 15.9562H16.08L16.857 13.5647Z" fill="#D80027"/>
</g>
<defs>
<clipPath id="clip0_1867_58744">
<rect width="24" height="24" fill="white"/>
</clipPath>
</defs>
</svg>
