<svg width="24" height="24" viewBox="0 0 24 24" fill="none" xmlns="http://www.w3.org/2000/svg">
<g clip-path="url(#clip0_1867_58769)">
<path d="M12 24C18.6274 24 24 18.6274 24 12C24 5.37258 18.6274 0 12 0C5.37258 0 0 5.37258 0 12C0 18.6274 5.37258 24 12 24Z" fill="#F0F0F0"/>
<path d="M24 12.0015C24 6.84196 20.7435 2.4434 16.1739 0.747932V23.2552C20.7435 21.5596 24 17.1611 24 12.0015Z" fill="#D80027"/>
<path d="M0.000228882 12.0006C0.000228882 17.1603 3.25673 21.5587 7.82634 23.2543V0.747086C3.25673 2.44255 0.000228882 6.84112 0.000228882 12.0006Z" fill="#D80027"/>
</g>
<defs>
<clipPath id="clip0_1867_58769">
<rect width="24" height="24" fill="white"/>
</clipPath>
</defs>
</svg>
