<svg width="24" height="24" viewBox="0 0 24 24" fill="none" xmlns="http://www.w3.org/2000/svg">
<g clip-path="url(#clip0_1867_58095)">
<path d="M12 24C18.6274 24 24 18.6274 24 12C24 5.37258 18.6274 0 12 0C5.37258 0 0 5.37258 0 12C0 18.6274 5.37258 24 12 24Z" fill="#F0F0F0"/>
<path d="M1.45911 6.26165H22.5409C20.5057 2.53153 16.5485 0.000793457 12 0.000793457C7.45151 0.000793457 3.49437 2.53153 1.45911 6.26165Z" fill="#D80027"/>
<path d="M11.9997 23.9999C16.5482 23.9999 20.5053 21.4691 22.5406 17.739H1.45877C3.49404 21.4691 7.45118 23.9999 11.9997 23.9999Z" fill="#D80027"/>
<path d="M16.174 11.9996C16.174 14.3049 14.3053 15.6518 12.0001 15.6518C9.69494 15.6518 7.82622 14.3049 7.82622 11.9996C7.82622 9.69442 9.69494 7.82574 12.0001 7.82574C14.3053 7.82574 16.174 9.69442 16.174 11.9996Z" fill="#FFDA44"/>
<path d="M16.174 11.9998C16.174 14.305 14.3053 16.1737 12.0001 16.1737C9.69494 16.1737 7.82622 14.305 7.82622 11.9998" fill="#0052B4"/>
<path d="M10.4351 10.956H9.39162V13.043H10.4351V10.956Z" fill="#D80027"/>
<path d="M14.6089 10.956H13.5654V13.043H14.6089V10.956Z" fill="#D80027"/>
<path d="M12.522 9.39093H11.4785V13.0431H12.522V9.39093Z" fill="#D80027"/>
</g>
<defs>
<clipPath id="clip0_1867_58095">
<rect width="24" height="24" fill="white"/>
</clipPath>
</defs>
</svg>
