<svg width="24" height="24" viewBox="0 0 24 24" fill="none" xmlns="http://www.w3.org/2000/svg">
<g clip-path="url(#clip0_1867_58751)">
<path d="M20.4853 20.4857C15.799 25.172 8.20108 25.172 3.51471 20.4857C-1.17158 15.7994 -1.17158 8.2014 3.51475 3.51508C8.20103 -1.1712 15.0611 -0.43334 19.7474 4.25299C24.4337 8.93926 25.1716 15.7994 20.4853 20.4857Z" fill="black"/>
<path d="M3.51464 3.51462C8.20092 -1.17166 15.7989 -1.17156 20.4852 3.51467C25.1715 8.20095 25.1715 15.7989 20.4852 20.4852" fill="#A2001D"/>
<path d="M9.17146 16.1739L9.36571 16.7718H9.99435L9.48576 17.1412L9.68006 17.7391L9.17146 17.3696L8.66287 17.7391L8.85712 17.1412L8.34857 16.7718H8.97717L9.17146 16.1739Z" fill="#F0F0F0"/>
<path d="M7.56506 10.435L7.88892 11.4315H8.93658L8.08893 12.0473L8.4127 13.0437L7.56506 12.4279L6.71746 13.0437L7.04128 12.0473L6.19359 11.4315H7.24134L7.56506 10.435Z" fill="#F0F0F0"/>
<path d="M7.56506 17.7388L7.88883 18.7352H8.93658L8.08884 19.351L8.4127 20.3475L7.56506 19.7316L6.71746 20.3475L7.04118 19.351L6.19359 18.7352H7.2412L7.56506 17.7388Z" fill="#F0F0F0"/>
<path d="M10.6289 13.0439L10.9528 14.0404H12.0005L11.1528 14.6562L11.4766 15.6526L10.6289 15.0367L9.78134 15.6526L10.1052 14.6562L9.25751 14.0404H10.3052L10.6289 13.0439Z" fill="#F0F0F0"/>
<path d="M4.50221 13.0439L4.82607 14.0404H5.87368L5.02608 14.6562L5.3498 15.6526L4.50221 15.0367L3.65457 15.6526L3.97843 14.6562L3.13074 14.0404H4.17844L4.50221 13.0439Z" fill="#F0F0F0"/>
<path d="M20.0881 8.88631C19.5518 8.35002 18.855 8.03319 18.1061 7.97877L20.3477 6.23535C19.455 5.34261 18.2584 4.93944 17.0909 5.02471C16.9511 4.52239 16.6846 4.04792 16.2896 3.65291L15.4042 5.42375C15.3461 5.31791 15.2725 5.2183 15.1828 5.12863C14.6734 4.61924 13.8475 4.61924 13.3382 5.12863C12.8289 5.63802 12.8288 6.46386 13.3382 6.97325C13.4279 7.06292 13.5275 7.13647 13.6334 7.1946L11.8625 8.08002C12.2576 8.47517 12.7324 8.74185 13.235 8.88153C13.1495 10.0491 13.5522 11.2454 14.445 12.1382L16.4034 9.62019C16.5508 9.47511 16.7454 9.395 16.9524 9.395C17.1614 9.395 17.3579 9.47638 17.5057 9.62427C17.6536 9.77206 17.735 9.96861 17.735 10.1776C17.735 10.3867 17.6536 10.5832 17.5057 10.731L18.2436 11.4689C18.5885 11.124 18.7785 10.6655 18.7785 10.1777C18.7785 9.77858 18.6511 9.39917 18.4161 9.08549C18.7586 9.17694 19.0823 9.3561 19.3504 9.62427C20.1641 10.438 20.1641 11.762 19.3504 12.5757L20.0883 13.3136C20.6795 12.7223 21.0052 11.9362 21.0052 11.1C21.005 10.2637 20.6793 9.4776 20.0881 8.88631Z" fill="#FFDA44"/>
</g>
<defs>
<clipPath id="clip0_1867_58751">
<rect width="24" height="24" fill="white"/>
</clipPath>
</defs>
</svg>
