<svg width="24" height="24" viewBox="0 0 24 24" fill="none" xmlns="http://www.w3.org/2000/svg">
<g clip-path="url(#clip0_1867_58733)">
<path d="M12 24C18.6274 24 24 18.6274 24 12C24 5.37258 18.6274 0 12 0C5.37258 0 0 5.37258 0 12C0 18.6274 5.37258 24 12 24Z" fill="#F0F0F0"/>
<path d="M0.000198364 12.0002C0.000198364 16.5487 2.53093 20.5058 6.26106 22.5411V1.45926C2.53093 3.49452 0.000198364 7.45166 0.000198364 12.0002Z" fill="#F0F0F0"/>
<path d="M11.9996 0.000823975C9.92073 0.000823975 7.96539 0.529715 6.2605 1.4599V22.5417C7.96539 23.4719 9.92073 24.0008 11.9996 24.0008C18.627 24.0008 23.9996 18.6282 23.9996 12.0008C23.9996 5.37345 18.627 0.000823975 11.9996 0.000823975Z" fill="#496E2D"/>
<path d="M17.1309 13.9861C15.6127 15.083 13.4928 14.7415 12.3959 13.2234C11.2989 11.7053 11.6404 9.58533 13.1585 8.48846C13.6319 8.14646 14.1637 7.94428 14.7048 7.87402C13.6638 7.71835 12.5635 7.95291 11.643 8.61802C9.77453 9.96811 9.35421 12.5772 10.7043 14.4458C12.0543 16.3142 14.6635 16.7345 16.532 15.3843C17.4526 14.7192 18.0207 13.7483 18.1997 12.711C17.9632 13.2025 17.6043 13.644 17.1309 13.9861Z" fill="#F0F0F0"/>
<path d="M17.0661 7.82724L17.9213 8.74885L19.0621 8.22047L18.4497 9.31847L19.3049 10.2402L18.0713 9.99713L17.459 11.0952L17.309 9.84694L16.0754 9.60389L17.2162 9.07552L17.0661 7.82724Z" fill="#F0F0F0"/>
</g>
<defs>
<clipPath id="clip0_1867_58733">
<rect width="24" height="24" fill="white"/>
</clipPath>
</defs>
</svg>
