<svg width="24" height="24" viewBox="0 0 24 24" fill="none" xmlns="http://www.w3.org/2000/svg">
<g clip-path="url(#clip0_1867_58776)">
<path d="M24 12C24 18.6274 18.6274 24 12 24C5.37262 24 0 18.6274 0 12C0 12.0029 12 0.0013125 12 0C18.6274 0 24 5.37262 24 12Z" fill="#0052B4"/>
<path d="M11.9684 12.0006H12.0006C12.0006 11.9898 12.0006 11.9793 12.0006 11.9685C11.9899 11.9792 11.9792 11.9899 11.9684 12.0006Z" fill="#F0F0F0"/>
<path d="M12.0005 6.26102C12.0005 4.14954 12.0005 2.76602 12.0005 0.000160217H11.9984C5.37192 0.00128522 0.000465393 5.37339 0.000465393 12.0002H6.26132V8.47464L9.78683 12.0002H11.9684C11.9791 11.9895 11.9898 11.9788 12.0005 11.9681C12.0005 11.1596 12.0005 10.4382 12.0005 9.78663L8.4749 6.26102H12.0005Z" fill="#F0F0F0"/>
<path d="M6.07124 1.56503C4.19441 2.63374 2.63409 4.19402 1.56543 6.07085V11.9998H4.69588V4.69558V4.69549H12.0002C12.0002 3.70816 12.0002 2.76756 12.0002 1.56503H6.07124Z" fill="#D80027"/>
<path d="M12.0005 10.5247L7.73695 6.26131H6.26133V6.2614L12.0004 12.0004H12.0005C12.0005 12.0004 12.0005 10.9829 12.0005 10.5247Z" fill="#D80027"/>
<path d="M18.7831 7.30387L17.2179 7.82564L15.6527 7.30387L15.131 5.99953L15.6527 4.69518H18.7831L18.2614 5.99953L18.7831 7.30387Z" fill="#ACABB1"/>
<path d="M13.565 7.3039V13.043C13.565 15.8386 17.2172 16.6952 17.2172 16.6952C17.2172 16.6952 20.8694 15.8386 20.8694 13.043V7.3039H13.565Z" fill="#338AF3"/>
<path d="M13.8948 14.4023C14.7925 16.1258 17.2177 16.6948 17.2177 16.6948C17.2177 16.6948 19.6429 16.1258 20.5407 14.4023L17.2177 8.86879L13.8948 14.4023Z" fill="#6DA544"/>
<path d="M20.8694 12.985L17.2172 7.3039L13.565 12.9851V13.043C13.565 13.5604 13.6903 14.0112 13.8942 14.4027L17.2172 9.23351L20.5402 14.4026C20.744 14.0112 20.8694 13.5604 20.8694 13.0429V12.985Z" fill="#FFDA44"/>
</g>
<defs>
<clipPath id="clip0_1867_58776">
<rect width="24" height="24" fill="white"/>
</clipPath>
</defs>
</svg>
