<svg width="24" height="24" viewBox="0 0 24 24" fill="none" xmlns="http://www.w3.org/2000/svg">
<g clip-path="url(#clip0_1867_58797)">
<path d="M12 24C18.6274 24 24 18.6274 24 12C24 5.37258 18.6274 0 12 0C5.37258 0 0 5.37258 0 12C0 18.6274 5.37258 24 12 24Z" fill="#F0F0F0"/>
<path d="M11.999 -0.000556946C8.07311 -0.000556946 4.58772 1.8849 2.39847 4.79944H21.5995C19.4102 1.8849 15.9249 -0.000556946 11.999 -0.000556946Z" fill="#D80027"/>
<path d="M11.999 23.9994C15.9249 23.9994 19.4102 22.1139 21.5995 19.1994H2.39847C4.58772 22.1139 8.07311 23.9994 11.999 23.9994Z" fill="#D80027"/>
<path d="M-0.000549316 11.9994C-0.000549316 12.8214 0.0823257 13.624 0.239779 14.3994H23.7592C23.9167 13.624 23.9995 12.8214 23.9995 11.9994C23.9995 11.1775 23.9166 10.3749 23.7592 9.59941H0.239779C0.0823257 10.3749 -0.000549316 11.1775 -0.000549316 11.9994Z" fill="#D80027"/>
<path d="M3.51431 3.51538C-1.17197 8.20166 -1.17197 15.7997 3.51431 20.486C5.45086 18.5495 7.31334 16.687 11.9996 12.0007L3.51431 3.51538Z" fill="#0052B4"/>
<path d="M4.85698 8.86879L5.63394 11.2602H8.14859L6.11431 12.7382L6.89122 15.1297L4.85698 13.6517L2.82265 15.1297L3.59975 12.7382L1.56547 11.2602H4.07994L4.85698 8.86879Z" fill="#F0F0F0"/>
</g>
<defs>
<clipPath id="clip0_1867_58797">
<rect width="24" height="24" fill="white"/>
</clipPath>
</defs>
</svg>
