<svg width="24" height="24" viewBox="0 0 24 24" fill="none" xmlns="http://www.w3.org/2000/svg">
<g clip-path="url(#clip0_1867_58738)">
<path d="M12 24C18.6274 24 24 18.6274 24 12C24 5.37258 18.6274 0 12 0C5.37258 0 0 5.37258 0 12C0 18.6274 5.37258 24 12 24Z" fill="#F0F0F0"/>
<path d="M7.3043 7.82693H23.2535C21.558 3.25732 17.1595 0.000823975 12 0.000823975C8.68617 0.000823975 5.6865 1.34421 3.51506 3.51593L7.3043 7.82693Z" fill="black"/>
<path d="M7.3043 16.1736H23.2535C21.558 20.7432 17.1595 23.9997 12 23.9997C8.68617 23.9997 5.6865 22.6563 3.51506 20.4846L7.3043 16.1736Z" fill="#6DA544"/>
<path d="M3.51464 3.51486C-1.17164 8.20114 -1.17164 15.7992 3.51464 20.4855C5.45119 18.5489 7.31368 16.6865 12 12.0002L3.51464 3.51486Z" fill="#D80027"/>
</g>
<defs>
<clipPath id="clip0_1867_58738">
<rect width="24" height="24" fill="white"/>
</clipPath>
</defs>
</svg>
