<svg width="24" height="24" viewBox="0 0 24 24" fill="none" xmlns="http://www.w3.org/2000/svg">
<g clip-path="url(#clip0_1867_58762)">
<path d="M12 24C18.6274 24 24 18.6274 24 12C24 5.37258 18.6274 0 12 0C5.37258 0 0 5.37258 0 12C0 18.6274 5.37258 24 12 24Z" fill="#F0F0F0"/>
<path d="M12.0003 -4.57764e-05C7.24279 -4.57764e-05 3.13204 2.76863 1.19104 6.78258H22.8096C20.8686 2.76863 16.7578 -4.57764e-05 12.0003 -4.57764e-05Z" fill="#D80027"/>
<path d="M12.0003 24.0008C16.7578 24.0008 20.8686 21.2321 22.8096 17.2181H1.19104C3.13204 21.2321 7.24279 24.0008 12.0003 24.0008Z" fill="#0052B4"/>
<path d="M14.9511 8.52663L13.8444 9.63339C14.3164 10.1055 14.6085 10.7576 14.6085 11.478C14.6085 12.9188 13.4405 14.0867 11.9998 14.0867C10.5591 14.0867 9.39109 12.9187 9.39109 11.478C9.39109 10.7576 9.68312 10.1055 10.1552 9.63339L9.04843 8.52663C8.29304 9.28188 7.82588 10.3254 7.82588 11.478C7.82588 13.7832 9.6946 15.6519 11.9998 15.6519C14.305 15.6519 16.1737 13.7832 16.1737 11.478C16.1736 10.3254 15.7065 9.28188 14.9511 8.52663Z" fill="#6DA544"/>
<path d="M11.9999 9.91263L12.3885 11.1084H13.6457L12.6286 11.8473L13.0171 13.0431L11.9999 12.3041L10.9827 13.0431L11.3713 11.8473L10.3541 11.1084H11.6114L11.9999 9.91263Z" fill="#FFDA44"/>
</g>
<defs>
<clipPath id="clip0_1867_58762">
<rect width="24" height="24" fill="white"/>
</clipPath>
</defs>
</svg>
