<svg width="24" height="24" viewBox="0 0 24 24" fill="none" xmlns="http://www.w3.org/2000/svg">
<g clip-path="url(#clip0_1867_58830)">
<path d="M16.1741 0.745367C14.8741 0.26307 13.4681 -0.000976556 12.0002 -0.000976556C10.5324 -0.00102343 9.12634 0.26307 7.82636 0.745367L6.78288 11.999L7.82636 23.2526C9.1263 23.735 10.5324 23.999 12.0002 23.999C13.468 23.999 14.8742 23.735 16.1741 23.2526L17.2176 11.999L16.1741 0.745367Z" fill="#FFDA44"/>
<path d="M23.9997 11.9996C23.9997 6.84005 20.7432 2.44144 16.1736 0.745972V23.2533C20.7432 21.5576 23.9997 17.1592 23.9997 11.9996Z" fill="#D80027"/>
<path d="M0.000160217 11.9995C0.000160217 17.1592 3.25666 21.5576 7.82618 23.2532L7.82622 0.745972C3.25666 2.44144 0.000160217 6.83991 0.000160217 11.9995Z" fill="#0052B4"/>
</g>
<defs>
<clipPath id="clip0_1867_58830">
<rect width="24" height="24" fill="white"/>
</clipPath>
</defs>
</svg>
