<svg width="24" height="24" viewBox="0 0 24 24" fill="none" xmlns="http://www.w3.org/2000/svg">
<g clip-path="url(#clip0_1867_58919)">
<path d="M12 24C18.6274 24 24 18.6274 24 12C24 5.37258 18.6274 0 12 0C5.37258 0 0 5.37258 0 12C0 18.6274 5.37258 24 12 24Z" fill="#F0F0F0"/>
<path d="M12 0C5.37262 0 0 5.37262 0 12C0 13.4678 0.264047 14.874 0.746391 16.1739H23.2537C23.736 14.874 24 13.4678 24 12C24 5.37262 18.6274 0 12 0Z" fill="#0052B4"/>
<path d="M12.0003 0.00012207C6.84075 0.00012207 2.44224 3.25662 0.746719 7.82623H23.254C21.5584 3.25662 17.1599 0.00012207 12.0003 0.00012207Z" fill="#D80027"/>
<path d="M3.10339 6.78314V12.7694C3.10339 16.1746 7.55188 17.2179 7.55188 17.2179C7.55188 17.2179 12.0003 16.1746 12.0003 12.7694V6.78314H3.10339Z" fill="#D80027"/>
<path d="M4.9422 7.82638H10.1596V5.73941L9.11614 6.26113L7.55093 4.69592L5.98568 6.26113L4.9422 5.73941V7.82638Z" fill="#FFDA44"/>
<path d="M10.956 13.6026L7.56473 10.2112L4.17342 13.6026L5.28018 14.7093L7.56473 12.4248L9.84928 14.7093L10.956 13.6026Z" fill="#FFDA44"/>
<path d="M10.956 10.4341H9.3737C9.46267 10.2805 9.51442 10.1027 9.51442 9.91244C9.51442 9.33607 9.04721 8.86896 8.47093 8.86896C8.07273 8.86896 7.72693 9.09199 7.55101 9.41988C7.37509 9.09204 7.02929 8.86896 6.63109 8.86896C6.05481 8.86896 5.5876 9.33607 5.5876 9.91244C5.5876 10.1027 5.63935 10.2806 5.72832 10.4341H4.17339C4.17339 11.0104 4.67537 11.4776 5.2516 11.4776H5.21687C5.21687 12.0539 5.68403 12.521 6.26035 12.521C6.26035 13.0313 6.62682 13.4553 7.11081 13.546L6.28862 15.4023C6.68265 15.5625 7.11324 15.6515 7.56474 15.6515C8.01624 15.6515 8.44684 15.5625 8.84087 15.4023L8.01868 13.546C8.50267 13.4553 8.86913 13.0314 8.86913 12.521C9.44546 12.521 9.91262 12.0539 9.91262 11.4776H9.87788C10.4541 11.4776 10.956 11.0103 10.956 10.4341Z" fill="#F0F0F0"/>
</g>
<defs>
<clipPath id="clip0_1867_58919">
<rect width="24" height="24" fill="white"/>
</clipPath>
</defs>
</svg>
