<svg width="24" height="24" viewBox="0 0 24 24" fill="none" xmlns="http://www.w3.org/2000/svg">
<g clip-path="url(#clip0_1867_58902)">
<path d="M12 24C18.6274 24 24 18.6274 24 12C24 5.37258 18.6274 0 12 0C5.37258 0 0 5.37258 0 12C0 18.6274 5.37258 24 12 24Z" fill="#6DA544"/>
<path d="M6.78288 14.3477C6.78288 15.2121 7.48366 15.9129 8.34809 15.9129H13.0437C13.0437 16.6332 13.6277 17.2172 14.3481 17.2172H15.9133C16.6337 17.2172 17.2176 16.6332 17.2176 15.9129V14.3477H6.78288Z" fill="#F0F0F0"/>
<path d="M17.3474 6.78308V10.4352C17.3474 11.0106 16.8793 11.4787 16.3039 11.4787V13.0439C17.7424 13.0439 18.9126 11.8737 18.9126 10.4352V6.78308H17.3474Z" fill="#F0F0F0"/>
<path d="M6.13035 10.435C6.13035 11.0104 5.66226 11.4785 5.08687 11.4785V13.0437C6.52532 13.0437 7.69556 11.8734 7.69556 10.435V6.78284H6.13035V10.435Z" fill="#F0F0F0"/>
<path d="M16.5655 6.78308H15.0003V10.4353H16.5655V6.78308Z" fill="#F0F0F0"/>
<path d="M12.6521 8.87005C12.6521 9.01391 12.535 9.13091 12.3912 9.13091C12.2474 9.13091 12.1303 9.01386 12.1303 8.87005V6.78308H10.5651V8.87005C10.5651 9.01391 10.4481 9.13091 10.3043 9.13091C10.1605 9.13091 10.0434 9.01386 10.0434 8.87005V6.78308H8.47816V8.87005C8.47816 9.87697 9.29735 10.6962 10.3043 10.6962C10.6921 10.6962 11.0517 10.5743 11.3478 10.3673C11.6438 10.5742 12.0035 10.6962 12.3913 10.6962C12.4693 10.6962 12.5461 10.6907 12.6216 10.6811C12.5107 11.138 12.0992 11.4787 11.6086 11.4787V13.0439C13.0471 13.0439 14.2173 11.8737 14.2173 10.4353V8.87005V6.78308H12.6521V8.87005H12.6521Z" fill="#F0F0F0"/>
<path d="M10.826 11.4781H8.47816V13.0433H10.826V11.4781Z" fill="#F0F0F0"/>
</g>
<defs>
<clipPath id="clip0_1867_58902">
<rect width="24" height="24" fill="white"/>
</clipPath>
</defs>
</svg>
