<svg width="24" height="24" viewBox="0 0 24 24" fill="none" xmlns="http://www.w3.org/2000/svg">
<g clip-path="url(#clip0_1867_58995)">
<path d="M20.4861 20.4851C24.9866 15.9846 25.1643 8.79934 21.021 4.08565L12.0004 11.9994L4.08664 21.0201C8.80033 25.1633 15.9855 24.9856 20.4861 20.4851Z" fill="#496E2D"/>
<path d="M3.51485 3.51438C8.01536 -0.98613 15.2006 -1.16383 19.9143 2.97939L12.0004 12.0001L2.97991 19.9138C-1.16336 15.2001 -0.98561 8.01489 3.51485 3.51438Z" fill="#0052B4"/>
<path d="M19.9139 2.98017L2.97949 19.9146C3.15068 20.1093 3.32843 20.3004 3.51448 20.4864C3.70048 20.6724 3.89158 20.8501 4.0864 21.0214L21.0207 4.08698C20.8495 3.89217 20.6717 3.70111 20.4856 3.51506C20.2997 3.32915 20.1086 3.15136 19.9139 2.98017Z" fill="#FFDA44"/>
<path d="M5.05675 4.17441L5.31583 4.97161H6.154L5.47591 5.46422L5.73489 6.26142L5.05675 5.76872L4.37861 6.26142L4.63769 5.46422L3.95955 4.97161H4.79777L5.05675 4.17441Z" fill="#F0F0F0"/>
<path d="M9.33753 4.1736L9.59661 4.9708H10.4347L9.75664 5.46341L10.0157 6.26061L9.33753 5.76791L8.65939 6.26061L8.91847 5.46341L8.24033 4.9708H9.0785L9.33753 4.1736Z" fill="#F0F0F0"/>
<path d="M5.05635 8.34778L5.31543 9.14498H6.1536L5.47551 9.63763L5.73449 10.4348L5.05635 9.94213L4.37821 10.4348L4.63729 9.63763L3.95915 9.14498H4.79737L5.05635 8.34778Z" fill="#F0F0F0"/>
<path d="M9.33753 8.34778L9.59661 9.14498H10.4347L9.75664 9.63763L10.0157 10.4348L9.33753 9.94213L8.65939 10.4348L8.91847 9.63763L8.24033 9.14498H9.0785L9.33753 8.34778Z" fill="#F0F0F0"/>
<path d="M7.19704 6.26167L7.45612 7.05887H8.29424L7.61615 7.55153L7.87518 8.34873L7.19704 7.85603L6.5189 8.34873L6.77793 7.55153L6.09979 7.05887H6.93801L7.19704 6.26167Z" fill="#F0F0F0"/>
</g>
<defs>
<clipPath id="clip0_1867_58995">
<rect width="24" height="24" fill="white"/>
</clipPath>
</defs>
</svg>
