<svg width="24" height="24" viewBox="0 0 24 24" fill="none" xmlns="http://www.w3.org/2000/svg">
<g clip-path="url(#clip0_1867_58930)">
<path d="M12 24C18.6274 24 24 18.6274 24 12C24 5.37258 18.6274 0 12 0C5.37258 0 0 5.37258 0 12C0 18.6274 5.37258 24 12 24Z" fill="#F0F0F0"/>
<path d="M20.1002 3.14641C17.9655 1.19209 15.122 -0.000640869 11.9997 -0.000640869C11.4886 -0.000640869 10.9849 0.0315623 10.4906 0.0935779L4.69539 6.78198L0.379471 15.0055C0.658283 16.0865 1.08456 17.1081 1.63455 18.0485L11.9997 11.9994L20.1002 3.14641Z" fill="#FFDA44"/>
<path d="M21.9905 18.648L5.20134 21.888C7.13395 23.2193 9.47573 23.9993 11.9999 23.9993C16.1681 23.9993 19.8393 21.8739 21.9905 18.648Z" fill="#6DA544"/>
<path d="M20.1023 3.14822L1.64183 18.0603C2.12469 18.8838 2.7028 19.6447 3.36125 20.3276L24.0002 11.9996C24.0002 8.49526 22.4978 5.34207 20.1023 3.14822Z" fill="#D80027"/>
<path d="M-0.000488281 12C-0.000488281 13.0381 0.131418 14.0454 0.379246 15.0061L10.4904 0.0942078C4.57536 0.836426 -0.000488281 5.88374 -0.000488281 12Z" fill="#0052B4"/>
</g>
<defs>
<clipPath id="clip0_1867_58930">
<rect width="24" height="24" fill="white"/>
</clipPath>
</defs>
</svg>
