<svg width="24" height="24" viewBox="0 0 24 24" fill="none" xmlns="http://www.w3.org/2000/svg">
<g clip-path="url(#clip0_1867_58942)">
<path d="M12 24C18.6274 24 24 18.6274 24 12C24 5.37258 18.6274 0 12 0C5.37258 0 0 5.37258 0 12C0 18.6274 5.37258 24 12 24Z" fill="#F0F0F0"/>
<path d="M0 12C0 5.37262 5.37262 0 12 0C18.6274 0 24 5.37262 24 12" fill="#D80027"/>
<path d="M7.30396 6.26097C7.30396 4.51262 8.53269 3.05209 10.1735 2.69373C9.92132 2.6387 9.65971 2.60884 9.39088 2.60884C7.3738 2.60884 5.73871 4.24393 5.73871 6.26101C5.73871 8.27809 7.3738 9.91318 9.39088 9.91318C9.65961 9.91318 9.92127 9.88333 10.1735 9.82825C8.53269 9.46989 7.30396 8.00936 7.30396 6.26097Z" fill="#F0F0F0"/>
<path d="M11.9997 2.86998L12.2587 3.66709H13.0969L12.4187 4.15979L12.6777 4.9569L11.9997 4.46429L11.3216 4.9569L11.5806 4.15979L10.9025 3.66709H11.7406L11.9997 2.86998Z" fill="#F0F0F0"/>
<path d="M9.96648 4.43466L10.2255 5.23182H11.0636L10.3855 5.72447L10.6446 6.52158L9.96648 6.02897L9.28829 6.52158L9.54737 5.72447L8.86923 5.23182H9.7074L9.96648 4.43466Z" fill="#F0F0F0"/>
<path d="M14.033 4.43466L14.2921 5.23182H15.1302L14.4521 5.72447L14.7111 6.52158L14.033 6.02897L13.3549 6.52158L13.6139 5.72447L12.9358 5.23182H13.774L14.033 4.43466Z" fill="#F0F0F0"/>
<path d="M13.2506 6.78336L13.5096 7.58051H14.3477L13.6696 8.07317L13.9286 8.87028L13.2506 8.37767L12.5725 8.87028L12.8315 8.07317L12.1534 7.58051H12.9915L13.2506 6.78336Z" fill="#F0F0F0"/>
<path d="M10.7489 6.78336L11.0079 7.58051H11.8461L11.1679 8.07317L11.427 8.87028L10.7489 8.37767L10.0707 8.87028L10.3298 8.07317L9.65167 7.58051H10.4898L10.7489 6.78336Z" fill="#F0F0F0"/>
</g>
<defs>
<clipPath id="clip0_1867_58942">
<rect width="24" height="24" fill="white"/>
</clipPath>
</defs>
</svg>
