<svg width="24" height="24" viewBox="0 0 24 24" fill="none" xmlns="http://www.w3.org/2000/svg">
<g clip-path="url(#clip0_1867_58989)">
<path d="M12 24C18.6274 24 24 18.6274 24 12C24 5.37258 18.6274 0 12 0C5.37258 0 0 5.37258 0 12C0 18.6274 5.37258 24 12 24Z" fill="#F0F0F0"/>
<path d="M23.2538 7.82643H10.435V4.69598H4.17412V7.82643H0.74662C0.264276 9.12637 0.000228882 10.5325 0.000228882 12.0003C0.000228882 13.4682 0.264276 14.8742 0.74662 16.1742L12.0002 17.2177L23.2538 16.1742C23.7362 14.8742 24.0002 13.4682 24.0002 12.0003C24.0002 10.5325 23.7362 9.12637 23.2538 7.82643Z" fill="#0052B4"/>
<path d="M12.0002 23.9996C17.1598 23.9996 21.5583 20.7431 23.2538 16.1735H0.746582C2.4421 20.7431 6.84061 23.9996 12.0002 23.9996Z" fill="#D80027"/>
<path d="M4.17403 7.82641V8.86985C4.17403 11.2661 7.30448 12.0004 7.30448 12.0004C7.30448 12.0004 10.4349 11.2661 10.4349 8.86985V7.82641L9.39145 8.8699L7.30448 7.3047L5.21751 8.8699L4.17403 7.82641Z" fill="#F0F0F0"/>
</g>
<defs>
<clipPath id="clip0_1867_58989">
<rect width="24" height="24" fill="white"/>
</clipPath>
</defs>
</svg>
