<svg width="24" height="24" viewBox="0 0 24 24" fill="none" xmlns="http://www.w3.org/2000/svg">
<g clip-path="url(#clip0_1867_58980)">
<path d="M12 24C18.6274 24 24 18.6274 24 12C24 5.37258 18.6274 0 12 0C5.37258 0 0 5.37258 0 12C0 18.6274 5.37258 24 12 24Z" fill="#F0F0F0"/>
<path d="M12.0001 23.9996C18.6275 23.9996 24.0001 18.627 24.0001 11.9996C24.0001 10.5318 23.7361 9.12567 23.2537 7.82574H0.746497C0.264154 9.12567 0.000106812 10.5318 0.000106812 11.9996C0.000106812 18.627 5.37273 23.9996 12.0001 23.9996Z" fill="#0052B4"/>
<path d="M12.0001 23.9996C17.1596 23.9996 21.5582 20.7431 23.2537 16.1735H0.74646C2.44198 20.7431 6.84049 23.9996 12.0001 23.9996Z" fill="#D80027"/>
<path d="M3.10266 6.7819V12.7681C3.10266 16.1733 7.55115 17.2167 7.55115 17.2167C7.55115 17.2167 11.9996 16.1733 11.9996 12.7681V6.7819H3.10266Z" fill="#F0F0F0"/>
<path d="M4.1465 6.7819V12.7681C4.1465 13.1679 4.23528 13.5454 4.41116 13.8994C6.1565 13.8994 8.76519 13.8994 10.6918 13.8994C10.8677 13.5454 10.9565 13.1679 10.9565 12.7681V6.7819H4.1465Z" fill="#D80027"/>
<path d="M9.6386 10.9561H8.07344V9.91266H9.11693V8.86917H8.07344V7.82574H7.02996V8.86917H5.98652V9.91266H7.02996V10.9561H5.46471V11.9996H7.02996V13.0431H8.07344V11.9996H9.6386V10.9561Z" fill="#F0F0F0"/>
<path d="M5.83429 15.3573C6.50671 15.7799 7.19756 16.0252 7.55123 16.1343C7.9049 16.0253 8.59575 15.7799 9.26817 15.3573C9.94626 14.9311 10.4216 14.4437 10.6915 13.9007C10.3938 13.69 10.0306 13.5658 9.6382 13.5658C9.49532 13.5658 9.35653 13.5827 9.22307 13.6138C8.94028 12.9713 8.29832 12.5223 7.55128 12.5223C6.80423 12.5223 6.16223 12.9713 5.87948 13.6138C5.74603 13.5827 5.60718 13.5658 5.46435 13.5658C5.07196 13.5658 4.70873 13.69 4.41103 13.9007C4.68079 14.4437 5.15615 14.9311 5.83429 15.3573Z" fill="#0052B4"/>
</g>
<defs>
<clipPath id="clip0_1867_58980">
<rect width="24" height="24" fill="white"/>
</clipPath>
</defs>
</svg>
