<svg width="24" height="24" viewBox="0 0 24 24" fill="none" xmlns="http://www.w3.org/2000/svg">
<g clip-path="url(#clip0_1867_58884)">
<path d="M24 11.9997C24 18.6271 18.6274 23.9997 12 23.9997C5.37261 23.9997 -1.52588e-05 18.6271 -1.52588e-05 11.9997C0.521703 11.9997 12 10.4345 12 10.4345L24 11.9997Z" fill="#338AF3"/>
<path d="M0 12C0 5.37262 5.37262 0 12 0C18.6274 0 24 5.37262 24 12" fill="#F0F0F0"/>
<path d="M16.7632 8.28088L12 13.0442L7.23671 8.28088C6.62072 9.19527 6.26086 10.2959 6.26086 11.4789V13.0441C6.26086 15.5574 7.88485 17.6983 10.1385 18.4732C9.83766 19.0627 9.88838 19.7984 10.3291 20.3485C10.9145 19.8793 11.5206 19.3936 12.0347 18.9817C12.5488 19.3937 13.1549 19.8794 13.7402 20.3485C14.1862 19.792 14.2332 19.0453 13.9206 18.4523C16.1434 17.6606 17.739 15.5354 17.739 13.0441V11.479C17.7391 10.2959 17.3792 9.19532 16.7632 8.28088Z" fill="#6DA544"/>
<path d="M11.9996 17.2176C9.69812 17.2176 7.82574 15.3451 7.82574 13.0437V11.4785C7.82574 9.17694 9.69817 7.30457 11.9996 7.30457C14.3011 7.30457 16.1735 9.17699 16.1735 11.4785V13.0437C16.1735 15.3451 14.3012 17.2176 11.9996 17.2176Z" fill="#FFDA44"/>
<path d="M14.6089 13.0433V11.4781C14.6089 10.0397 13.4386 8.86945 12.0002 8.86945C10.5618 8.86945 9.39151 10.0397 9.39151 11.4781V13.0433L12.0002 13.565L14.6089 13.0433Z" fill="#338AF3"/>
<path d="M9.39151 13.0432C9.39151 14.4817 10.5618 15.6519 12.0002 15.6519C13.4386 15.6519 14.6089 14.4816 14.6089 13.0432H9.39151Z" fill="#6DA544"/>
<path d="M15.1304 7.30397C15.1304 6.43955 14.4297 5.73876 13.5652 5.73876C13.1642 5.73876 12.7987 5.8897 12.5218 6.13762V5.217H13.0435V4.17351H12.5218V3.65179H11.4783V4.17351H10.9566V5.217H11.4783V6.13762C11.2013 5.8897 10.8358 5.73876 10.4348 5.73876C9.57036 5.73876 8.86958 6.43955 8.86958 7.30397C8.86958 7.76742 9.07119 8.18367 9.3913 8.47031V9.39094H14.6087V8.47031C14.9288 8.18367 15.1304 7.76742 15.1304 7.30397Z" fill="#FFDA44"/>
</g>
<defs>
<clipPath id="clip0_1867_58884">
<rect width="24" height="24" fill="white"/>
</clipPath>
</defs>
</svg>
