<svg width="24" height="24" viewBox="0 0 24 24" fill="none" xmlns="http://www.w3.org/2000/svg">
<g clip-path="url(#clip0_1867_58912)">
<path d="M17.2174 1.19084C15.6397 0.427997 13.8698 0.00012207 12 0.00012207C10.1301 0.00012207 8.36024 0.427997 6.78262 1.19084L5.73914 12.0001L6.78262 22.8094C8.36024 23.5722 10.1301 24.0001 12 24.0001C13.8698 24.0001 15.6397 23.5722 17.2174 22.8094L18.2608 12.0001L17.2174 1.19084Z" fill="#FFDA44"/>
<path d="M12.0001 7.82599L13.0361 11.0144H16.389L13.6766 12.9852L14.7126 16.1738L12.0001 14.2031L9.28771 16.1738L10.3239 12.9852L7.61151 11.0144H10.9642L12.0001 7.82599Z" fill="#496E2D"/>
<path d="M6.78294 1.19077C2.76904 3.13172 0.000320435 7.24214 0.000320435 11.9996C0.000320435 16.7571 2.76904 20.8675 6.78294 22.8085V1.19077Z" fill="#496E2D"/>
<path d="M17.2178 1.19144V22.8092C21.2317 20.8682 24.0004 16.7578 24.0004 12.0003C24.0004 7.24281 21.2317 3.13239 17.2178 1.19144Z" fill="#D80027"/>
</g>
<defs>
<clipPath id="clip0_1867_58912">
<rect width="24" height="24" fill="white"/>
</clipPath>
</defs>
</svg>
