<svg width="24" height="24" viewBox="0 0 24 24" fill="none" xmlns="http://www.w3.org/2000/svg">
<g clip-path="url(#clip0_1867_59094)">
<path d="M12 24C18.6274 24 24 18.6274 24 12C24 5.37258 18.6274 0 12 0C5.37258 0 0 5.37258 0 12C0 18.6274 5.37258 24 12 24Z" fill="#F0F0F0"/>
<path d="M23.2532 7.82684H0.745932C0.263635 9.12687 -0.000411987 10.5329 -0.000411987 12.0007C-0.000411987 13.4686 0.263635 14.8747 0.745932 16.1746H23.2532C23.7356 14.8747 23.9996 13.4686 23.9996 12.0007C23.9996 10.5329 23.7356 9.12687 23.2532 7.82684Z" fill="#A2001D"/>
<path d="M12.0346 24.0012C16.1447 24.0012 19.7717 21.9344 21.9344 18.7838H2.13484C4.29756 21.9344 7.92447 24.0012 12.0346 24.0012Z" fill="#6DA544"/>
<path d="M12.0343 0.000305176C16.1443 0.000305176 19.7714 2.06712 21.9341 5.21768H2.13449C4.29721 2.06712 7.92412 0.000305176 12.0343 0.000305176Z" fill="#6DA544"/>
<path d="M11.9995 7.82684L13.0355 11.0153H16.3882L13.6758 12.9861L14.7119 16.1746L11.9995 14.204L9.28708 16.1746L10.3232 12.9861L7.61078 11.0153H10.9635L11.9995 7.82684Z" fill="#FFDA44"/>
</g>
<defs>
<clipPath id="clip0_1867_59094">
<rect width="24" height="24" fill="white"/>
</clipPath>
</defs>
</svg>
