<svg width="24" height="24" viewBox="0 0 24 24" fill="none" xmlns="http://www.w3.org/2000/svg">
<g clip-path="url(#clip0_1867_59041)">
<path d="M12 24C18.6274 24 24 18.6274 24 12C24 5.37258 18.6274 0 12 0C5.37258 0 0 5.37258 0 12C0 18.6274 5.37258 24 12 24Z" fill="#F0F0F0"/>
<path d="M23.0638 7.34697C21.2465 3.03021 16.9775 -0.000823975 11.9999 -0.000823975C8.68611 -0.000823975 5.68644 1.34257 3.515 3.51429L6.52016 7.34697H23.0638Z" fill="black"/>
<path d="M6.55423 16.6076L3.515 20.4837C5.68644 22.6554 8.68611 23.9988 11.9999 23.9988C16.9942 23.9988 21.2754 20.9475 23.0823 16.6076H6.55423Z" fill="#496E2D"/>
<path d="M2.60887 8.82608V15.1304H23.5868C23.856 14.1324 24.0002 13.0831 24.0002 12C24.0002 10.9011 23.8521 9.83708 23.5754 8.82608H2.60887Z" fill="#A2001D"/>
<path d="M3.51458 3.51462C-1.17171 8.2009 -1.17171 15.7989 3.51458 20.4852C5.45112 18.5487 7.31361 16.6862 11.9999 11.9999L3.51458 3.51462Z" fill="#0052B4"/>
<path d="M3.9085 9.01648L5.37311 11.0603L7.76973 10.2988L6.27859 12.3235L7.7432 14.3674L5.35689 13.5748L3.8657 15.5995L3.8821 13.085L1.4957 12.2923L3.89214 11.5309L3.9085 9.01648Z" fill="#FFDA44"/>
</g>
<defs>
<clipPath id="clip0_1867_59041">
<rect width="24" height="24" fill="white"/>
</clipPath>
</defs>
</svg>
