<svg width="24" height="24" viewBox="0 0 24 24" fill="none" xmlns="http://www.w3.org/2000/svg">
<g clip-path="url(#clip0_1867_58893)">
<path d="M12 24C18.6274 24 24 18.6274 24 12C24 5.37258 18.6274 0 12 0C5.37258 0 0 5.37258 0 12C0 18.6274 5.37258 24 12 24Z" fill="#FFDA44"/>
<path d="M7.30501 7.82623H23.2542C21.5588 3.25662 17.1602 0.00012207 12.0007 0.00012207C8.68689 0.00012207 5.68722 1.34351 3.51578 3.51523L7.30501 7.82623Z" fill="#6DA544"/>
<path d="M7.30416 16.1746H23.2534C21.5579 20.7442 17.1593 24.0007 11.9998 24.0007C8.68603 24.0007 5.68636 22.6573 3.51492 20.4856L7.30416 16.1746Z" fill="#6DA544"/>
<path d="M3.51471 3.51379C-1.17157 8.20008 -1.17157 15.7981 3.51471 20.4844C5.45126 18.5479 7.31375 16.6854 12 11.9991L3.51471 3.51379Z" fill="#D80027"/>
<path d="M15.2379 9.91278L15.7559 11.5071H17.4322L16.076 12.4924L16.5941 14.0867L15.2379 13.1014L13.8817 14.0867L14.3997 12.4924L13.0435 11.5071H14.7199L15.2379 9.91278Z" fill="black"/>
<path d="M20.4557 9.91278L20.9737 11.5071H22.6501L21.2939 12.4924L21.8119 14.0867L20.4557 13.1014L19.0995 14.0867L19.6175 12.4924L18.2613 11.5071H19.9377L20.4557 9.91278Z" fill="black"/>
</g>
<defs>
<clipPath id="clip0_1867_58893">
<rect width="24" height="24" fill="white"/>
</clipPath>
</defs>
</svg>
