<svg width="24" height="24" viewBox="0 0 24 24" fill="none" xmlns="http://www.w3.org/2000/svg">
<g clip-path="url(#clip0_1867_58865)">
<path d="M12 24C18.6274 24 24 18.6274 24 12C24 5.37258 18.6274 0 12 0C5.37258 0 0 5.37258 0 12C0 18.6274 5.37258 24 12 24Z" fill="#F0F0F0"/>
<path d="M12 -0.000976562C7.24242 -0.000976562 3.13167 2.7677 1.19067 6.78165H22.8092C20.8682 2.7677 16.7574 -0.000976562 12 -0.000976562Z" fill="#0052B4"/>
<path d="M12 23.9989C16.7575 23.9989 20.8682 21.2302 22.8092 17.2162H1.19069C3.13169 21.2302 7.24244 23.9989 12 23.9989Z" fill="#0052B4"/>
<path d="M9.58997 12.5225L11.9998 8.34857L14.4097 12.5225H9.58997Z" fill="#FFDA44"/>
<path d="M15.1303 13.8996L11.9998 15.4649L8.86935 13.8996V11.8127H15.1303V13.8996Z" fill="#6DA544"/>
<path d="M14.9516 8.52728L13.8449 9.63405C14.317 10.1061 14.609 10.7583 14.609 11.4787C14.609 12.9194 13.441 14.0874 12.0003 14.0874C10.5596 14.0874 9.39161 12.9194 9.39161 11.4787C9.39161 10.7583 9.68364 10.1061 10.1557 9.63405L9.04895 8.52728C8.29356 9.28253 7.8264 10.326 7.8264 11.4787C7.8264 13.7839 9.69512 15.6526 12.0003 15.6526C14.3055 15.6526 16.1742 13.7839 16.1742 11.4787C16.1741 10.326 15.707 9.28253 14.9516 8.52728Z" fill="#FFDA44"/>
</g>
<defs>
<clipPath id="clip0_1867_58865">
<rect width="24" height="24" fill="white"/>
</clipPath>
</defs>
</svg>
