<svg width="24" height="24" viewBox="0 0 24 24" fill="none" xmlns="http://www.w3.org/2000/svg">
<g clip-path="url(#clip0_1867_58969)">
<path d="M10.9564 13.0427C10.9564 13.0427 3.52157 3.51223 3.51454 3.51392C5.68607 1.34234 8.68612 -0.000816345 11.9999 -0.000816345C18.6272 -0.000816345 23.9999 5.37181 23.9999 11.9992L10.9564 13.0427Z" fill="#D80027"/>
<path d="M10.9564 11.9995C10.9564 11.9995 3.52157 20.4865 3.51454 20.4848C5.68607 22.6564 8.68612 23.9995 11.9999 23.9995C18.6272 23.9995 23.9999 18.6269 23.9999 11.9995H10.9564Z" fill="#0052B4"/>
<path d="M3.51471 3.51461C-1.17157 8.20089 -1.17157 15.7989 3.51471 20.4852C5.45126 18.5487 7.31375 16.6862 12 11.9999L3.51471 3.51461Z" fill="#F0F0F0"/>
<path d="M1.31578 11.9996C1.30922 12.0858 1.30476 12.1726 1.30476 12.2604C1.30476 14.1333 2.82314 15.6517 4.69608 15.6517C6.56901 15.6517 8.08739 14.1333 8.08739 12.2604C8.08739 12.1726 8.08293 12.0857 8.07637 11.9996H1.31578Z" fill="#FFDA44"/>
<path d="M4.69577 10.4338C5.27207 10.4338 5.73925 9.96662 5.73925 9.39032C5.73925 8.81402 5.27207 8.34684 4.69577 8.34684C4.11947 8.34684 3.65228 8.81402 3.65228 9.39032C3.65228 9.96662 4.11947 10.4338 4.69577 10.4338Z" fill="#FFDA44"/>
<path d="M2.34752 9.1302V12.5215C2.34752 14.3187 4.69535 14.8693 4.69535 14.8693C4.69535 14.8693 7.04318 14.3187 7.04318 12.5215V9.1302H2.34752Z" fill="#D80027"/>
<path d="M4.69687 13.7776C4.26131 13.6209 3.39136 13.2203 3.39136 12.5219V10.174H6.00009V12.5219C6.00009 13.2226 5.13023 13.6222 4.69687 13.7776Z" fill="#338AF3"/>
<path d="M5.21772 11.4777V10.9559L4.696 10.6951L4.17424 10.9559V11.4777L3.91338 11.7386V12.7821H5.47863V11.7386L5.21772 11.4777Z" fill="#F3F3F3"/>
</g>
<defs>
<clipPath id="clip0_1867_58969">
<rect width="24" height="24" fill="white"/>
</clipPath>
</defs>
</svg>
