<svg width="24" height="24" viewBox="0 0 24 24" fill="none" xmlns="http://www.w3.org/2000/svg">
<g clip-path="url(#clip0_1867_59130)">
<path d="M12 24C18.6274 24 24 18.6274 24 12C24 5.37258 18.6274 0 12 0C5.37258 0 0 5.37258 0 12C0 18.6274 5.37258 24 12 24Z" fill="#F0F0F0"/>
<path d="M11.9997 -0.000732422C6.84017 -0.000732422 2.44166 3.25577 0.74614 7.82538H23.2534C21.5578 3.25577 17.1593 -0.000732422 11.9997 -0.000732422Z" fill="#D80027"/>
<path d="M11.9999 24.0005C17.1595 24.0005 21.558 20.744 23.2535 16.1744H0.746292C2.44181 20.744 6.84032 24.0005 11.9999 24.0005Z" fill="black"/>
<path d="M7.17018 9.13013L7.81767 11.1229H9.91312L8.21788 12.3547L8.86542 14.3475L7.17018 13.1159L5.47495 14.3475L6.12248 12.3547L4.42725 11.1229H6.5227L7.17018 9.13013Z" fill="#6DA544"/>
<path d="M16.83 9.13013L17.4775 11.1229H19.573L17.8777 12.3547L18.5253 14.3475L16.83 13.1159L15.1348 14.3475L15.7823 12.3547L14.0871 11.1229H16.1825L16.83 9.13013Z" fill="#6DA544"/>
</g>
<defs>
<clipPath id="clip0_1867_59130">
<rect width="24" height="24" fill="white"/>
</clipPath>
</defs>
</svg>
