<svg width="24" height="24" viewBox="0 0 24 24" fill="none" xmlns="http://www.w3.org/2000/svg">
<g clip-path="url(#clip0_1867_59102)">
<path d="M22.809 17.2165C23.5718 15.639 23.9997 13.869 23.9997 11.9992C23.9997 10.1293 23.5718 8.35936 22.809 6.78178L11.9997 6.26001L1.19043 6.78173C0.427585 8.35936 -0.000289917 10.1293 -0.000289917 11.9992C-0.000289917 13.869 0.427585 15.639 1.19043 17.2165L11.9997 17.7383L22.809 17.2165Z" fill="#FFDA44"/>
<path d="M11.9999 0.000305176C7.24238 0.000305176 3.13163 2.76898 1.19063 6.78293H22.8091C20.8682 2.76898 16.7574 0.000305176 11.9999 0.000305176Z" fill="black"/>
<path d="M11.9999 23.9994C7.24238 23.9994 3.13163 21.2307 1.19063 17.2167H22.8091C20.8682 21.2307 16.7574 23.9994 11.9999 23.9994Z" fill="#0052B4"/>
<path d="M23.433 8.34784H0.566382C0.198788 9.49951 -0.000289917 10.7265 -0.000289917 12C-0.000289917 13.2736 0.198788 14.5005 0.566382 15.6522H23.433C23.8006 14.5005 23.9997 13.2736 23.9997 12C23.9997 10.7265 23.8006 9.49951 23.433 8.34784Z" fill="#A2001D"/>
<path d="M19.826 11.4791H4.17384V12.5226H19.826V11.4791Z" fill="#FFDA44"/>
<path d="M17.739 9.39117H6.26074V10.4347H17.739V9.39117Z" fill="#FFDA44"/>
<path d="M17.8134 11.9995C17.8134 11.9995 15.1302 15.13 11.9998 15.13C8.86936 15.13 8.86931 11.9995 8.86931 11.9995C8.86931 11.9995 8.86931 8.86908 11.9998 8.86908C15.1302 8.86908 17.8134 11.9995 17.8134 11.9995Z" fill="#F0F0F0"/>
<path d="M11.9996 15.13C8.8691 15.13 6.18588 11.9995 6.18588 11.9995C6.18588 11.9995 8.8691 8.86908 11.9996 8.86908" fill="black"/>
<path d="M10.9567 10.957H9.91325V13.0439H10.9567V10.957Z" fill="#F0F0F0"/>
<path d="M14.0867 10.957H13.0432V13.0439H14.0867V10.957Z" fill="black"/>
<path d="M4.17393 13.0445C4.75023 13.0445 5.21742 12.5773 5.21742 12.001C5.21742 11.4247 4.75023 10.9575 4.17393 10.9575C3.59763 10.9575 3.13045 11.4247 3.13045 12.001C3.13045 12.5773 3.59763 13.0445 4.17393 13.0445Z" fill="#0052B4"/>
<path d="M19.8266 13.0441C20.4029 13.0441 20.8701 12.5769 20.8701 12.0006C20.8701 11.4243 20.4029 10.9572 19.8266 10.9572C19.2503 10.9572 18.7831 11.4243 18.7831 12.0006C18.7831 12.5769 19.2503 13.0441 19.8266 13.0441Z" fill="#0052B4"/>
</g>
<defs>
<clipPath id="clip0_1867_59102">
<rect width="24" height="24" fill="white"/>
</clipPath>
</defs>
</svg>
