<svg width="24" height="24" viewBox="0 0 24 24" fill="none" xmlns="http://www.w3.org/2000/svg">
<g clip-path="url(#clip0_1867_59239)">
<path d="M24 12C24 18.6274 18.6274 24 12 24C5.37262 24 0 18.6274 0 12C0 12.0029 12 0.0013125 12 0C18.6274 0 24 5.37262 24 12Z" fill="#0052B4"/>
<path d="M11.9684 11.9996H12.0005C12.0005 11.9888 12.0005 11.9783 12.0005 11.9674C11.9898 11.9782 11.9791 11.9889 11.9684 11.9996Z" fill="#F0F0F0"/>
<path d="M12.0005 6.26116C12.0005 4.14968 12.0005 2.76616 12.0005 0.000305176H11.9985C5.37199 0.00143018 0.000534058 5.37354 0.000534058 12.0003H6.26139V8.47479L9.78691 12.0003H11.9685C11.9792 11.9896 11.9898 11.9789 12.0006 11.9682C12.0006 11.1597 12.0006 10.4384 12.0006 9.78677L8.47497 6.26116H12.0005Z" fill="#F0F0F0"/>
<path d="M6.07114 1.56538C4.19431 2.63409 2.63398 4.19437 1.56532 6.0712V12.0002H4.69578V4.69593V4.69584H12.0001C12.0001 3.70851 12.0001 2.76792 12.0001 1.56538H6.07114Z" fill="#D80027"/>
<path d="M12.0004 10.5241L7.73693 6.26065H6.26131V6.26074L12.0003 11.9997H12.0004C12.0004 11.9997 12.0004 10.9822 12.0004 10.5241Z" fill="#D80027"/>
<path d="M13.565 6.26042V11.9995C13.565 14.7951 17.2171 15.6517 17.2171 15.6517C17.2171 15.6517 20.8693 14.7951 20.8693 11.9995V6.26042H13.565Z" fill="#FFDA44"/>
<path d="M16.6958 8.34775C16.6958 8.92407 16.2286 10.4347 15.6523 10.4347C15.076 10.4347 14.6088 8.92407 14.6088 8.34775C14.6088 7.77142 15.6523 7.30426 15.6523 7.30426C15.6523 7.30426 16.6958 7.77142 16.6958 8.34775Z" fill="#FF9811"/>
<path d="M19.4642 9.48423C19.6326 9.07337 19.7636 8.47281 19.7636 8.17384C19.7636 7.69356 19.1375 7.30426 19.1375 7.30426C19.1375 7.30426 18.5113 7.6936 18.5113 8.17384C18.5113 8.47281 18.6423 9.07337 18.8107 9.48423L18.4492 10.3003C18.6617 10.3867 18.8939 10.4347 19.1374 10.4347C19.3809 10.4347 19.6131 10.3867 19.8256 10.3003L19.4642 9.48423Z" fill="#A2001D"/>
<path d="M16.4351 12C16.4351 12 15.9134 13.0435 15.9134 14.0869C15.9134 14.0869 17.4786 14.0869 18.5221 14.0869C18.522 13.0435 18.0003 12 18.0003 12L17.2177 11.4783L16.4351 12Z" fill="#6DA544"/>
<path d="M18.0005 12.0005V11.7396C18.0005 11.3075 17.6502 10.957 17.2179 10.957C16.7857 10.957 16.4353 11.3074 16.4353 11.7396V12.0005H18.0005Z" fill="#D80027"/>
</g>
<defs>
<clipPath id="clip0_1867_59239">
<rect width="24" height="24" fill="white"/>
</clipPath>
</defs>
</svg>
