<svg width="24" height="24" viewBox="0 0 24 24" fill="none" xmlns="http://www.w3.org/2000/svg">
<g clip-path="url(#clip0_1867_57795)">
<path d="M12.0004 -0.000549316C10.5325 -0.000549316 9.12643 0.263498 7.8265 0.745841L7.30473 11.9995L7.82645 23.2531C9.12643 23.7355 10.5325 23.9995 12.0004 23.9995C13.4682 23.9995 14.8743 23.7355 16.1743 23.2531L16.696 11.9995L16.1743 0.745841C14.8743 0.263498 13.4682 -0.000549316 12.0004 -0.000549316Z" fill="#FFDA44"/>
<path d="M24.0004 12.0004C24.0004 6.84081 20.7439 2.4423 16.1743 0.74678V23.254C20.7439 21.5585 24.0004 17.16 24.0004 12.0004Z" fill="#D80027"/>
<path d="M7.82611 23.254V0.74678C3.2565 2.4423 0 6.84081 0 12.0004C0 17.16 3.2565 21.5585 7.82611 23.254Z" fill="#0052B4"/>
</g>
<defs>
<clipPath id="clip0_1867_57795">
<rect width="24" height="24" fill="white"/>
</clipPath>
</defs>
</svg>
