<svg width="24" height="24" viewBox="0 0 24 24" fill="none" xmlns="http://www.w3.org/2000/svg">
<g clip-path="url(#clip0_1867_59145)">
<path d="M1.19083 6.78177C0.427982 8.35939 0.000106812 10.1293 0.000106812 11.9991C0.000106812 13.869 0.427982 15.6389 1.19083 17.2165L12.0001 18.26L22.8094 17.2165C23.5722 15.6389 24.0001 13.869 24.0001 11.9991C24.0001 10.1293 23.5722 8.35939 22.8094 6.78177L12.0001 5.73828L1.19083 6.78177Z" fill="#F0F0F0"/>
<path d="M1.19142 17.2176C3.13237 21.2315 7.2428 24.0002 12.0003 24.0002C16.7578 24.0002 20.8682 21.2315 22.8091 17.2176H1.19142Z" fill="#6DA544"/>
<path d="M1.19142 6.78204H22.8091C20.8682 2.76814 16.7578 -0.000579834 12.0003 -0.000579834C7.2428 -0.000579834 3.13237 2.76814 1.19142 6.78204Z" fill="#D80027"/>
<path d="M9.91331 15.1315H14.0873V13.3575L13.2525 13.7749L12.0003 12.5227L10.7481 13.7749L9.91331 13.3575V15.1315Z" fill="#FFDA44"/>
<path d="M7.5249 13.0438L7.7192 13.6416H8.34779L7.8392 14.0112L8.03349 14.609L7.5249 14.2395L7.01631 14.609L7.2106 14.0112L6.70201 13.6416H7.3306L7.5249 13.0438Z" fill="#FFDA44"/>
<path d="M8.12729 10.9577L8.32158 11.5555H8.95018L8.44158 11.925L8.63583 12.5229L8.12729 12.1534L7.61869 12.5229L7.81299 11.925L7.3044 11.5555H7.93299L8.12729 10.9577Z" fill="#FFDA44"/>
<path d="M9.84871 9.39279L10.043 9.99064H10.6715L10.163 10.3602L10.3573 10.958L9.84871 10.5885L9.34016 10.958L9.53441 10.3602L9.02582 9.99064H9.65446L9.84871 9.39279Z" fill="#FFDA44"/>
<path d="M16.475 13.0438L16.2807 13.6416H15.6521L16.1607 14.0112L15.9664 14.609L16.475 14.2395L16.9835 14.609L16.7893 14.0112L17.2979 13.6416H16.6693L16.475 13.0438Z" fill="#FFDA44"/>
<path d="M15.8727 10.9577L15.6784 11.5555H15.0498L15.5584 11.925L15.3641 12.5229L15.8727 12.1534L16.3813 12.5229L16.187 11.925L16.6956 11.5555H16.067L15.8727 10.9577Z" fill="#FFDA44"/>
<path d="M14.1512 9.39279L13.9569 9.99064H13.3284L13.8369 10.3602L13.6426 10.958L14.1512 10.5885L14.6598 10.958L14.4655 10.3602L14.9741 9.99064H14.3455L14.1512 9.39279Z" fill="#FFDA44"/>
<path d="M12.0004 8.60938L12.1947 9.20722H12.8233L12.3147 9.57673L12.509 10.1746L12.0004 9.80511L11.4918 10.1746L11.6861 9.57673L11.1775 9.20722H11.8061L12.0004 8.60938Z" fill="#FFDA44"/>
</g>
<defs>
<clipPath id="clip0_1867_59145">
<rect width="24" height="24" fill="white"/>
</clipPath>
</defs>
</svg>
