<svg width="24" height="24" viewBox="0 0 24 24" fill="none" xmlns="http://www.w3.org/2000/svg">
<g clip-path="url(#clip0_1867_59181)">
<path d="M12 24C18.6274 24 24 18.6274 24 12C24 5.37258 18.6274 0 12 0C5.37258 0 0 5.37258 0 12C0 18.6274 5.37258 24 12 24Z" fill="#FFDA44"/>
<path d="M19.3043 5.73914C19.1967 6.25641 19.1478 6.80733 19.1478 7.35652C19.1478 10.5222 21.035 13.2621 23.7394 14.4955C23.9097 13.6904 24 12.8558 24 12C24 5.37262 18.6274 0 12 0C5.37262 0 0 5.37262 0 12C0 18.6274 5.37262 24 12 24C16.1101 24 19.7371 21.9332 21.8998 18.7826H6.78263V17.2174H22.8093C22.9733 16.8782 23.1215 16.53 23.2537 16.1739H6.78263L19.3043 5.73914Z" fill="#0052B4"/>
<path d="M8.8156 6.26117L9.07464 7.05833H9.91276L9.23471 7.55103L9.49375 8.34814L8.8156 7.85553L8.13756 8.34814L8.39654 7.55103L7.7184 7.05833H8.55657L8.8156 6.26117Z" fill="#F0F0F0"/>
<path d="M5.41133 12L5.73514 12.9966H6.7828L5.93516 13.6123L6.25897 14.6087L5.41133 13.9929L4.56373 14.6087L4.8875 13.6123L4.0399 12.9966H5.08756L5.41133 12Z" fill="#F0F0F0"/>
<path d="M5.41133 3.65245L5.73514 4.64897H6.7828L5.93516 5.26467L6.25897 6.26114L5.41133 5.64529L4.56373 6.26114L4.8875 5.26467L4.0399 4.64897H5.08756L5.41133 3.65245Z" fill="#F0F0F0"/>
<path d="M2.80241 8.34749L3.12622 9.344H4.17383L3.32623 9.95971L3.65005 10.9562L2.80241 10.3403L1.95481 10.9562L2.27858 9.95971L1.43098 9.344H2.47859L2.80241 8.34749Z" fill="#F0F0F0"/>
</g>
<defs>
<clipPath id="clip0_1867_59181">
<rect width="24" height="24" fill="white"/>
</clipPath>
</defs>
</svg>
