<svg width="24" height="24" viewBox="0 0 24 24" fill="none" xmlns="http://www.w3.org/2000/svg">
<g clip-path="url(#clip0_1867_58003)">
<path d="M12 24C18.6274 24 24 18.6274 24 12C24 5.37258 18.6274 0 12 0C5.37258 0 0 5.37258 0 12C0 18.6274 5.37258 24 12 24Z" fill="#FFDA44"/>
<path d="M11.9997 -0.000320435C9.06173 -0.000320435 6.37083 1.0561 4.2848 2.80909L17.2171 11.9997L4.2848 21.1903C6.37083 22.9433 9.06173 23.9997 11.9997 23.9997C18.6271 23.9997 23.9997 18.6271 23.9997 11.9997C23.9997 5.3723 18.6271 -0.000320435 11.9997 -0.000320435Z" fill="#D80027"/>
<path d="M3.51471 3.5155C-1.17157 8.20178 -1.17157 15.7998 3.51471 20.4861C5.45126 18.5496 7.31375 16.6871 12 12.0008L3.51471 3.5155Z" fill="black"/>
<path d="M3.32691 9.25145L5.15316 10.9798L7.36134 9.77682L6.28205 12.0479L8.10834 13.7763L5.61488 13.4516L4.53544 15.7226L4.07386 13.2508L1.58039 12.926L3.78848 11.7231L3.32691 9.25145Z" fill="#F0F0F0"/>
</g>
<defs>
<clipPath id="clip0_1867_58003">
<rect width="24" height="24" fill="white"/>
</clipPath>
</defs>
</svg>
