<svg width="24" height="24" viewBox="0 0 24 24" fill="none" xmlns="http://www.w3.org/2000/svg">
<g clip-path="url(#clip0_1867_59210)">
<path d="M11.9997 -0.00063324C11.1037 -0.00063324 10.2309 0.0984136 9.39104 0.284601L8.86932 11.9993L9.39104 23.7141C10.231 23.9003 11.1038 23.9994 11.9997 23.9994C18.6271 23.9994 23.9997 18.6267 23.9997 11.9993C23.9996 5.37194 18.6271 -0.00063324 11.9997 -0.00063324Z" fill="#496E2D"/>
<path d="M3.13012 3.91704C1.18555 6.04966 -0.000289917 8.88607 -0.000289917 11.9996C-0.000289917 15.1131 1.1856 17.9495 3.13016 20.0823L3.65188 11.9996L3.13012 3.91704Z" fill="#496E2D"/>
<path d="M17.5515 9.0516C18.1418 7.40601 17.4786 5.61627 16.0551 4.7249C16.3111 4.75823 16.5675 4.81851 16.8204 4.90921C18.719 5.5904 19.7059 7.68159 19.0247 9.58012C18.3435 11.4788 16.2523 12.4656 14.3537 11.7844C14.1008 11.6937 13.8645 11.5772 13.6458 11.4402C15.3113 11.6571 16.9611 10.6972 17.5515 9.0516Z" fill="#F0F0F0"/>
<path d="M14.277 4.27428L13.7639 4.93718L12.9751 4.6541L13.4469 5.34682L12.934 6.00963L13.7386 5.77498L14.2105 6.4676L14.2358 5.62985L15.0405 5.39515L14.2516 5.11217L14.277 4.27428Z" fill="#F0F0F0"/>
<path d="M15.6623 6.4353L15.1493 7.09816L14.3604 6.81508L14.8323 7.5078L14.3193 8.17062L15.1239 7.93587L15.5958 8.62863L15.6212 7.79083L16.4258 7.55608L15.6369 7.27305L15.6623 6.4353Z" fill="#F0F0F0"/>
<path d="M11.8341 5.06038L11.3211 5.72319L10.5322 5.44021L11.0041 6.13288L10.4911 6.79574L11.2957 6.56104L11.7676 7.25371L11.793 6.41596L12.5976 6.18125L11.8087 5.89818L11.8341 5.06038Z" fill="#F0F0F0"/>
<path d="M11.778 7.53455L11.265 8.19741L10.4761 7.91437L10.9481 8.60709L10.435 9.26991L11.2397 9.03525L11.7116 9.72787L11.7369 8.89012L12.5416 8.65542L11.7526 8.37234L11.778 7.53455Z" fill="#F0F0F0"/>
<path d="M14.1321 8.37999L13.619 9.0428L12.8302 8.75977L13.3021 9.45249L12.789 10.1153L13.5937 9.8806L14.0656 10.5733L14.091 9.73547L14.8956 9.50082L14.1067 9.21779L14.1321 8.37999Z" fill="#F0F0F0"/>
<path d="M3.13019 3.91747V20.0826C4.76519 21.8758 6.9369 23.1707 9.39104 23.7147V0.285309C6.93686 0.82934 4.76523 2.12426 3.13019 3.91747Z" fill="#D80027"/>
<path d="M5.51949 6.31758L4.47131 5.53673V4.4325L5.51949 3.6517H7.00191L8.05008 4.4325V5.53673L7.00191 6.31758H5.51949Z" fill="#F0F0F0"/>
<path d="M6.26072 3.6517H5.51948L4.47131 4.4325V4.97236H6.26072V3.6517Z" fill="#FF9811"/>
<path d="M6.26076 6.31669H7.00195L8.05012 5.53585V4.97255H6.26076V6.31669Z" fill="#FF9811"/>
<path d="M5.51949 20.3484L4.47131 19.5676V18.4634L5.51949 17.6826H7.00191L8.05008 18.4634V19.5676L7.00191 20.3484H5.51949Z" fill="#F0F0F0"/>
<path d="M6.26072 17.6826H5.51948L4.47131 18.4634V19.0033H6.26072V17.6826Z" fill="#FF9811"/>
<path d="M6.26076 20.3493H7.00195L8.05012 19.5684V19.0052H6.26076V20.3493Z" fill="#FF9811"/>
<path d="M5.51936 13.3323L4.47119 12.5515V11.4473L5.51936 10.6665H7.00178L8.04995 11.4473V12.5515L7.00178 13.3323H5.51936Z" fill="#496E2D"/>
<path d="M8.08665 15.0514H7.63009V14.5949H6.82782L6.26054 14.0276L5.69331 14.5949H4.89104V15.0514H4.43452V15.9644H4.89104V16.4209H5.69326L6.26059 16.9883L6.82782 16.4209H7.63009V15.9644H8.08665V15.0514Z" fill="#496E2D"/>
<path d="M8.08693 8.03607H7.63036V7.5795H6.8281L6.26082 7.01222L5.69358 7.5795H4.89132V8.03607H4.4348V8.9491H4.89132V9.40561H5.69353L6.26086 9.97299L6.8281 9.40561H7.63036V8.9491H8.08693V8.03607Z" fill="#496E2D"/>
<path d="M6.78228 11.4792H5.7388V12.5226H6.78228V11.4792Z" fill="#D80027"/>
<path d="M6.26062 9.01484C6.54876 9.01484 6.78234 8.78126 6.78234 8.49312C6.78234 8.20499 6.54876 7.97141 6.26062 7.97141C5.97249 7.97141 5.73891 8.20499 5.73891 8.49312C5.73891 8.78126 5.97249 9.01484 6.26062 9.01484Z" fill="#D80027"/>
<path d="M6.26052 16.0308C6.54865 16.0308 6.78223 15.7972 6.78223 15.5091C6.78223 15.2209 6.54865 14.9874 6.26052 14.9874C5.97238 14.9874 5.7388 15.2209 5.7388 15.5091C5.7388 15.7972 5.97238 16.0308 6.26052 16.0308Z" fill="#D80027"/>
</g>
<defs>
<clipPath id="clip0_1867_59210">
<rect width="24" height="24" fill="white"/>
</clipPath>
</defs>
</svg>
