<svg width="24" height="24" viewBox="0 0 24 24" fill="none" xmlns="http://www.w3.org/2000/svg">
<g clip-path="url(#clip0_1867_59203)">
<path d="M12 24C18.6274 24 24 18.6274 24 12C24 5.37258 18.6274 0 12 0C5.37258 0 0 5.37258 0 12C0 18.6274 5.37258 24 12 24Z" fill="#D80027"/>
<path d="M11.9998 17.7387C15.1695 17.7387 17.739 15.1692 17.739 11.9996C17.739 8.82992 15.1695 6.26042 11.9998 6.26042C8.8302 6.26042 6.2607 8.82992 6.2607 11.9996C6.2607 15.1692 8.8302 17.7387 11.9998 17.7387Z" fill="#F0F0F0"/>
<path d="M12.7065 9.80504L13.691 11.1618L15.2856 10.6448L14.2995 12.0004L15.2839 13.3572L13.6899 12.8382L12.7038 14.1938L12.7048 12.5175L11.1108 11.9985L12.7054 11.4815L12.7065 9.80504Z" fill="#D80027"/>
<path d="M13.304 15.3905C11.4311 15.3905 9.9127 13.8722 9.9127 11.9992C9.9127 10.1263 11.4311 8.60792 13.304 8.60792C13.888 8.60792 14.4375 8.75558 14.9172 9.01555C14.1646 8.27956 13.1355 7.8253 11.9997 7.8253C9.69454 7.8253 7.82578 9.69402 7.82578 11.9992C7.82578 14.3044 9.69454 16.1731 11.9997 16.1731C13.1355 16.1731 14.1647 15.7188 14.9172 14.9828C14.4375 15.2429 13.888 15.3905 13.304 15.3905Z" fill="#D80027"/>
</g>
<defs>
<clipPath id="clip0_1867_59203">
<rect width="24" height="24" fill="white"/>
</clipPath>
</defs>
</svg>
