<svg width="24" height="24" viewBox="0 0 24 24" fill="none" xmlns="http://www.w3.org/2000/svg">
<g clip-path="url(#clip0_1867_59190)">
<path d="M12 24C18.6274 24 24 18.6274 24 12C24 5.37258 18.6274 0 12 0C5.37258 0 0 5.37258 0 12C0 18.6274 5.37258 24 12 24Z" fill="#F0F0F0"/>
<path d="M7.82609 6.26141V4.69621H6.26084V6.26141H4.69563V7.82666H6.26084V9.39187H7.82609V7.82666H9.39129V6.26141H7.82609Z" fill="#D80027"/>
<path d="M12 0V12C5.37262 12 2.73867 12 0 12C0 18.6274 5.37262 24 12 24C18.6274 24 24 18.6274 24 12C24 5.37262 18.6274 0 12 0Z" fill="#D80027"/>
</g>
<defs>
<clipPath id="clip0_1867_59190">
<rect width="24" height="24" fill="white"/>
</clipPath>
</defs>
</svg>
