<svg width="24" height="24" viewBox="0 0 24 24" fill="none" xmlns="http://www.w3.org/2000/svg">
<g clip-path="url(#clip0_1867_59196)">
<path d="M6.4977 1.33196C5.42342 1.88645 4.415 2.61324 3.51444 3.51381C2.61383 4.41442 1.88703 5.42284 1.3326 6.49712L9.04855 14.951L17.5024 22.6669C18.5767 22.1124 19.5852 21.3856 20.4857 20.4851C21.3863 19.5845 22.1131 18.5761 22.6676 17.5018L14.9516 9.04792L6.4977 1.33196Z" fill="#F0F0F0"/>
<path d="M20.4855 20.486C20.9889 19.9826 21.4378 19.4454 21.8331 18.882L5.11816 2.16707C4.55477 2.56228 4.01763 3.01124 3.51424 3.51463C3.01084 4.01803 2.56188 4.55517 2.16663 5.1186L18.8815 21.8335C19.4449 21.4383 19.9821 20.9894 20.4855 20.486Z" fill="black"/>
<path d="M3.51411 20.4865C7.30006 24.2725 12.9859 24.9992 17.5021 22.6683L1.33231 6.49852C-0.998546 11.0147 -0.271655 16.7006 3.51411 20.4865Z" fill="#D80027"/>
<path d="M20.4851 3.51459C16.6991 -0.271316 11.0133 -0.998066 6.49712 1.3327L22.6669 17.5026C24.9978 12.9864 24.271 7.3005 20.4851 3.51459Z" fill="#D80027"/>
</g>
<defs>
<clipPath id="clip0_1867_59196">
<rect width="24" height="24" fill="white"/>
</clipPath>
</defs>
</svg>
