<svg width="24" height="24" viewBox="0 0 24 24" fill="none" xmlns="http://www.w3.org/2000/svg">
<g clip-path="url(#clip0_1867_59254)">
<path d="M24 12C24 18.6274 18.6274 24 12 24C5.37263 24 0 18.6274 0 12C0 12.0029 12 0.0013125 12 0C18.6274 0 24 5.37262 24 12Z" fill="#338AF3"/>
<path d="M5.73935 12.0011H9.78663L6.26107 7.82722L5.73935 9.39243V12.0011Z" fill="#0052B4"/>
<path d="M12.0002 9.78668L7.82625 5.73935H12.0001L12.0002 9.78668Z" fill="#0052B4"/>
<path d="M11.9683 11.9996H12.0004C12.0004 11.9888 12.0004 11.9783 12.0004 11.9674C11.9897 11.9782 11.979 11.9889 11.9683 11.9996Z" fill="#F0F0F0"/>
<path d="M12.0004 6.26116C12.0004 4.14968 12.0004 2.76612 12.0004 0.000305176H11.9984C5.37185 0.00143018 0.000350952 5.37354 0.000350952 12.0003H6.26126V8.47479L9.78677 12.0003H11.9683C11.979 11.9896 11.9897 11.9789 12.0004 11.9682C12.0004 11.1597 12.0004 10.4384 12.0004 9.78677L8.47479 6.26116H12.0004Z" fill="#F0F0F0"/>
<path d="M6.07124 1.56538C4.19441 2.63409 2.63413 4.19437 1.56543 6.0712V12.0002H4.69588V4.69593V4.69584H12.0002C12.0002 3.70851 12.0002 2.76792 12.0002 1.56538H6.07124Z" fill="#D80027"/>
<path d="M12.0005 10.5241L7.73695 6.26065H6.26132V6.26074L12.0004 11.9997H12.0005C12.0005 11.9997 12.0005 10.9822 12.0005 10.5241Z" fill="#D80027"/>
<path d="M13.0972 19.8252L13.3562 20.6224H14.1944L13.5164 21.115L13.7754 21.9121L13.0972 21.4195L12.4192 21.9121L12.6782 21.115L12.0001 20.6224H12.8382L13.0972 19.8252Z" fill="#FFDA44"/>
<path d="M19.7727 14.6093L20.0317 15.4065H20.8698L20.1918 15.8992L20.4509 16.6963L19.7727 16.2037L19.0946 16.6963L19.3537 15.8992L18.6755 15.4065H19.5136L19.7727 14.6093Z" fill="#FFDA44"/>
<path d="M21.445 6.78255L21.704 7.5797H22.5422L21.8642 8.07236L22.1232 8.86947L21.445 8.37686L20.767 8.86947L21.026 8.07236L20.3479 7.5797H21.186L21.445 6.78255Z" fill="#FFDA44"/>
<path d="M21.8596 12.5214L22.1186 13.3186H22.9568L22.2787 13.8113L22.5377 14.6084L21.8596 14.1158L21.1815 14.6084L21.4406 13.8113L20.7624 13.3186H21.6006L21.8596 12.5214Z" fill="#FFDA44"/>
<path d="M14.299 17.9513L15.046 18.3319L15.6386 17.7393L15.5076 18.567L16.2543 18.9475L15.4264 19.0787L15.2953 19.9066L14.9149 19.1597L14.087 19.2909L14.6796 18.6983L14.299 17.9513Z" fill="#FFDA44"/>
<path d="M14.299 14.8214L15.046 15.2019L15.6386 14.6093L15.5076 15.4371L16.2543 15.8176L15.4264 15.9487L15.2953 16.7766L14.9149 16.0298L14.087 16.1609L14.6796 15.5683L14.299 14.8214Z" fill="#FFDA44"/>
<path d="M16.9079 16.8271L17.6549 17.2077L18.2475 16.6151L18.1165 17.4428L18.8632 17.8234L18.0353 17.9545L17.9042 18.7824L17.5238 18.0355L16.6959 18.1667L17.2885 17.5741L16.9079 16.8271Z" fill="#FFDA44"/>
<path d="M16.9079 10.1248L17.6549 10.5053L18.2475 9.9127L18.1165 10.7405L18.8632 11.121L18.0353 11.2522L17.9042 12.08L17.5238 11.3332L16.6959 11.4644L17.2885 10.8717L16.9079 10.1248Z" fill="#FFDA44"/>
<path d="M19.4365 10.0444L20.1834 10.425L20.7761 9.83232L20.645 10.6601L21.3918 11.0406L20.5639 11.1718L20.4328 11.9996L20.0523 11.2528L19.2244 11.384L19.8171 10.7913L19.4365 10.0444Z" fill="#FFDA44"/>
</g>
<defs>
<clipPath id="clip0_1867_59254">
<rect width="24" height="24" fill="white"/>
</clipPath>
</defs>
</svg>
