<svg width="24" height="24" viewBox="0 0 24 24" fill="none" xmlns="http://www.w3.org/2000/svg">
<g clip-path="url(#clip0_1867_59138)">
<path d="M24 12C24 18.6274 18.6274 24 12 24C5.37262 24 0 18.6274 0 12C4.12172 7.87828 7.61737 4.38263 12 0C18.6274 0 24 5.37262 24 12Z" fill="#D80027"/>
<path d="M12 12C12 5.37262 12 4.59131 12 0C5.37262 0 0 5.37262 0 12H12Z" fill="#0052B4"/>
<path d="M10.435 7.02305L8.96947 7.71249L9.74984 9.13181L8.15848 8.82731L7.95678 10.435L6.84837 9.25261L5.73987 10.435L5.53826 8.82731L3.94686 9.13172L4.72723 7.71239L3.26173 7.02305L4.72728 6.33375L3.94686 4.91438L5.53822 5.21883L5.73992 3.61121L6.84837 4.79358L7.95683 3.61121L8.15848 5.21883L9.74989 4.91438L8.96947 6.3338L10.435 7.02305Z" fill="#F0F0F0"/>
<path d="M6.84859 9.25671C8.08224 9.25671 9.08232 8.25664 9.08232 7.02298C9.08232 5.78932 8.08224 4.78925 6.84859 4.78925C5.61493 4.78925 4.61485 5.78932 4.61485 7.02298C4.61485 8.25664 5.61493 9.25671 6.84859 9.25671Z" fill="#0052B4"/>
<path d="M6.84793 8.21399C6.19164 8.21399 5.65773 7.68004 5.65773 7.02374C5.65773 6.36745 6.19168 5.8335 6.84793 5.8335C7.50423 5.8335 8.03819 6.36745 8.03819 7.02374C8.03814 7.68004 7.50414 8.21399 6.84793 8.21399Z" fill="#F0F0F0"/>
</g>
<defs>
<clipPath id="clip0_1867_59138">
<rect width="24" height="24" fill="white"/>
</clipPath>
</defs>
</svg>
