<svg width="24" height="24" viewBox="0 0 24 24" fill="none" xmlns="http://www.w3.org/2000/svg">
<g clip-path="url(#clip0_1867_59277)">
<path d="M20.943 20.0002C22.8435 17.8771 23.9996 15.0739 23.9996 12.0002C23.9996 8.92651 22.8434 6.12324 20.943 4.00018L11.9996 3.13065L3.05621 4.00018C1.15576 6.12324 -0.000411987 8.92651 -0.000411987 12.0002C-0.000411987 15.0739 1.15571 17.8771 3.05617 20.0002L11.9996 20.8697L20.943 20.0002Z" fill="#FFDA44"/>
<path d="M3.05669 4.0005H20.9435C18.7462 1.5458 15.5538 0.000518799 12.0001 0.000518799C8.44633 0.000518799 5.25391 1.5458 3.05669 4.0005Z" fill="black"/>
<path d="M-0.000411987 12.0007L11.9996 13.0442L23.9996 12.0007C23.9996 10.598 23.7581 9.25186 23.3158 8.00067H0.683401C0.241041 9.25186 -0.000411987 10.598 -0.000411987 12.0007Z" fill="#D80027"/>
<path d="M0.683401 15.9993H23.3159C23.7581 14.7481 23.9996 13.402 23.9996 11.9993H-0.000411987C-0.000411987 13.402 0.241041 14.7481 0.683401 15.9993Z" fill="black"/>
<path d="M20.9434 19.9995H3.05659C5.25381 22.4542 8.44624 23.9995 12 23.9995C15.5538 23.9995 18.7462 22.4542 20.9434 19.9995Z" fill="#D80027"/>
<path d="M16.0042 12.0007C16.0042 14.2124 14.2115 16.0051 11.9998 16.0051C9.78811 16.0051 7.99547 14.2124 7.99547 12.0007C7.99547 9.78901 9.78811 7.99637 11.9998 7.99637C14.2115 7.99637 16.0042 9.78901 16.0042 12.0007Z" fill="#F0F0F0"/>
<path d="M13.4665 12.2036L11.9996 11.568C11.9996 11.568 12.3428 10.4288 12.3611 10.3508C12.3745 10.2939 12.3816 10.2345 12.3816 10.1734C12.3816 9.9573 12.294 9.76164 12.1523 9.62008L12.5212 9.25117C12.2852 9.01516 11.9591 8.86914 11.5989 8.86914C11.2387 8.86914 10.9126 9.01511 10.6766 9.25117L11.0455 9.62008C10.9038 9.76169 10.8163 9.95734 10.8163 10.1734C10.8163 10.2525 10.8282 10.3286 10.85 10.4006L10.2946 10.956H11.3041C11.3041 10.956 10.8867 11.5829 10.6589 12.0977C10.431 12.6125 10.662 13.2409 11.1886 13.475L11.4931 13.6104L11.9996 14.0864V14.6081L11.4779 15.1299H12.5214V14.0864L12.9975 13.6103H13.9822C13.987 13.6005 13.9919 13.5909 13.9964 13.5809C14.2304 13.0543 13.9932 12.4376 13.4665 12.2036Z" fill="black"/>
</g>
<defs>
<clipPath id="clip0_1867_59277">
<rect width="24" height="24" fill="white"/>
</clipPath>
</defs>
</svg>
