<svg width="24" height="24" viewBox="0 0 24 24" fill="none" xmlns="http://www.w3.org/2000/svg">
<g clip-path="url(#clip0_1867_59298)">
<path d="M12 24C18.6274 24 24 18.6274 24 12C24 5.37258 18.6274 0 12 0C5.37258 0 0 5.37258 0 12C0 18.6274 5.37258 24 12 24Z" fill="#F0F0F0"/>
<path d="M11.9997 8.86873H23.5863C23.2854 7.75245 22.8281 6.70053 22.2384 5.73828H11.9997V8.86873Z" fill="#338AF3"/>
<path d="M4.53006 21.3898H19.4697C20.5649 20.5176 21.5041 19.4581 22.2386 18.2594H1.7612C2.49578 19.4581 3.43497 20.5176 4.53006 21.3898Z" fill="#338AF3"/>
<path d="M12.0001 -0.000854492C12.0001 1.04263 12.0001 2.60783 12.0001 2.60783H19.47C17.4201 0.975271 14.8243 -0.000854492 12.0001 -0.000854492Z" fill="#338AF3"/>
<path d="M11.9997 8.86873H23.5863C23.2854 7.75245 22.8281 6.70053 22.2384 5.73828H11.9997V8.86873Z" fill="#338AF3"/>
<path d="M0.000106812 12.0001C0.000106812 13.0833 0.144482 14.1324 0.413497 15.1306H23.5868C23.8557 14.1324 24.0001 13.0833 24.0001 12.0001H0.000106812Z" fill="#338AF3"/>
<path d="M10.4352 7.02323L8.96964 7.71262L9.75006 9.132L8.15865 8.82759L7.95699 10.4352L6.84859 9.25279L5.74009 10.4352L5.53848 8.82759L3.94707 9.1319L4.72745 7.71258L3.26195 7.02323L4.72749 6.33394L3.94707 4.91456L5.53843 5.21897L5.74013 3.61139L6.84859 4.79376L7.95704 3.61139L8.15865 5.21897L9.7501 4.91456L8.96968 6.33398L10.4352 7.02323Z" fill="#FFDA44"/>
</g>
<defs>
<clipPath id="clip0_1867_59298">
<rect width="24" height="24" fill="white"/>
</clipPath>
</defs>
</svg>
