<svg width="24" height="24" viewBox="0 0 24 24" fill="none" xmlns="http://www.w3.org/2000/svg">
<g clip-path="url(#clip0_1867_59079)">
<path d="M17.7391 1.45938C16.0342 0.529196 14.0788 0.000305176 11.9999 0.000305176C9.92102 0.000305176 7.96567 0.529196 6.26078 1.45938L5.2173 12.0003L6.26078 22.5412C7.96567 23.4714 9.92102 24.0003 11.9999 24.0003C14.0788 24.0003 16.0342 23.4714 17.7391 22.5412L18.7825 12.0003L17.7391 1.45938Z" fill="#FFDA44"/>
<path d="M6.2612 22.5408V1.45905C2.53107 3.49436 0.000335693 7.4515 0.000335693 12C0.000335693 16.5485 2.53107 20.5057 6.2612 22.5408Z" fill="#338AF3"/>
<path d="M24.0005 12.0001C24.0005 7.45162 21.4697 3.49448 17.7396 1.45917V22.541C21.4697 20.5058 24.0005 16.5487 24.0005 12.0001Z" fill="#6DA544"/>
<path d="M9.39193 15.1297L7.30492 11.9993L9.39189 8.86884L11.4789 11.9993L9.39193 15.1297Z" fill="#6DA544"/>
<path d="M14.6097 15.1297L12.5228 11.9993L14.6097 8.86884L16.6967 11.9993L14.6097 15.1297Z" fill="#6DA544"/>
<path d="M12.0008 19.3037L9.91383 16.1733L12.0008 13.0428L14.0878 16.1733L12.0008 19.3037Z" fill="#6DA544"/>
</g>
<defs>
<clipPath id="clip0_1867_59079">
<rect width="24" height="24" fill="white"/>
</clipPath>
</defs>
</svg>
