<svg width="24" height="24" viewBox="0 0 24 24" fill="none" xmlns="http://www.w3.org/2000/svg">
<g clip-path="url(#clip0_1867_57541)">
<path d="M22.8088 17.2167C23.5717 15.6391 23.9995 13.8692 23.9995 11.9993C23.9995 10.1294 23.5717 8.35958 22.8088 6.78195L11.9995 5.73846L1.19025 6.78195C0.427355 8.35958 -0.000473022 10.1294 -0.000473022 11.9993C-0.000473022 13.8692 0.427355 15.6391 1.19025 17.2167L11.9995 18.2602L22.8088 17.2167Z" fill="#0052B4"/>
<path d="M11.9997 24.0004C16.7572 24.0004 20.868 21.2317 22.809 17.2178H1.19044C3.13144 21.2317 7.24219 24.0004 11.9997 24.0004Z" fill="#D80027"/>
<path d="M20.7818 14.3561L20.1481 14.8514L20.4231 15.607L19.7562 15.1574L19.1224 15.6525L19.344 14.8793L18.6772 14.4295L19.4811 14.4015L19.7029 13.6283L19.978 14.3841L20.7818 14.3561Z" fill="#F0F0F0"/>
<path d="M19.1589 11.5444L18.7328 12.2266L19.2499 12.8426L18.4694 12.6482L18.0431 13.3302L17.9869 12.5279L17.2065 12.3332L17.9523 12.0318L17.8963 11.2294L18.4132 11.8457L19.1589 11.5444Z" fill="#F0F0F0"/>
<path d="M16.6724 9.45837L16.5053 10.2452L17.2018 10.6474L16.4019 10.7317L16.2347 11.5183L15.9075 10.7835L15.1075 10.8675L15.7053 10.3293L15.3782 9.59455L16.0747 9.99664L16.6724 9.45837Z" fill="#F0F0F0"/>
<path d="M13.6221 8.34802L13.7342 9.14457L14.5263 9.28416L13.8034 9.63695L13.9153 10.4334L13.3566 9.85482L12.6335 10.2074L13.0112 9.49712L12.4524 8.91859L13.2446 9.05823L13.6221 8.34802Z" fill="#F0F0F0"/>
<path d="M10.3766 8.34802L10.7542 9.05822L11.5462 8.91849L10.9876 9.49726L11.3651 10.2075L10.6422 9.85482L10.0833 10.4333L10.1954 9.63694L9.47247 9.28435L10.2646 9.14457L10.3766 8.34802Z" fill="#F0F0F0"/>
<path d="M7.3262 9.45837L7.92405 9.99664L8.62047 9.59455L8.29342 10.3295L8.89113 10.8677L8.0912 10.7835L7.76392 11.5183L7.59691 10.7315L6.79694 10.6475L7.4935 10.2453L7.3262 9.45837Z" fill="#F0F0F0"/>
<path d="M4.83967 11.5445L5.58559 11.8458L6.10243 11.2297L6.04651 12.0322L6.79219 12.3336L6.01177 12.5281L5.95557 13.3303L5.52948 12.6484L4.74896 12.8428L5.26599 12.2267L4.83967 11.5445Z" fill="#F0F0F0"/>
<path d="M3.21675 14.3562L4.02075 14.3842L4.29572 13.6285L4.51767 14.4017L5.32144 14.4298L4.65459 14.8796L4.87622 15.6528L4.24247 15.1576L3.57558 15.6073L3.85069 14.8514L3.21675 14.3562Z" fill="#F0F0F0"/>
<path d="M22.809 6.7822C20.868 2.76824 16.7572 -0.000427246 11.9997 -0.000427246C7.24219 -0.000427246 3.13144 2.76824 1.19044 6.7822H22.809Z" fill="#FFDA44"/>
</g>
<defs>
<clipPath id="clip0_1867_57541">
<rect width="24" height="24" fill="white"/>
</clipPath>
</defs>
</svg>
