<svg width="24" height="24" viewBox="0 0 24 24" fill="none" xmlns="http://www.w3.org/2000/svg">
<g clip-path="url(#clip0_1867_57678)">
<path d="M24 12C24 18.6274 18.6274 24 12 24C5.37262 24 0 18.6274 0 12C0 12.0029 12 0.0013125 12 0C18.6274 0 24 5.37262 24 12Z" fill="#0052B4"/>
<path d="M11.9682 12.0007H12.0004C12.0004 11.9899 12.0004 11.9794 12.0004 11.9685C11.9896 11.9793 11.9789 11.99 11.9682 12.0007Z" fill="#F0F0F0"/>
<path d="M11.9998 6.26171C11.9998 4.15023 11.9998 2.76671 11.9998 0.000854492H11.9978C5.37127 0.00197949 -0.000183105 5.37409 -0.000183105 12.0009H6.26067V8.47534L9.78619 12.0009H11.9677C11.9784 11.9902 11.9891 11.9795 11.9999 11.9687C11.9999 11.1603 11.9999 10.4389 11.9999 9.78732L8.47425 6.26171H11.9998Z" fill="#F0F0F0"/>
<path d="M6.0706 1.56418C4.19377 2.63288 2.63345 4.19316 1.56479 6.06999V11.999H4.69524V4.69473V4.69463H11.9996C11.9996 3.7073 11.9996 2.76671 11.9996 1.56418H6.0706Z" fill="#D80027"/>
<path d="M17.2179 11.9996L13.9745 15.2431C14.5824 16.4154 15.8062 17.217 17.2179 17.217C18.6297 17.217 19.8535 16.4154 20.4614 15.2431L17.2179 11.9996Z" fill="#FFDA44"/>
<path d="M11.9997 10.5244L7.73623 6.26096H6.2606V6.26105L11.9996 12.0001H11.9997C11.9997 12.0001 11.9997 10.9825 11.9997 10.5244Z" fill="#D80027"/>
<path d="M13.5652 6.26096V12.0001V12.0001C13.5653 14.7957 17.2174 15.6523 17.2174 15.6523C17.2174 15.6523 20.8695 14.7957 20.8696 12.0001V12.0001V6.26096H13.5652Z" fill="#6DA544"/>
<path d="M18 8.86987H16.4348V13.0438H18V8.86987Z" fill="#F0F0F0"/>
<path d="M17.2173 9.65171C17.6495 9.65171 17.9999 9.30132 17.9999 8.86908C17.9999 8.43685 17.6495 8.08646 17.2173 8.08646C16.7851 8.08646 16.4347 8.43685 16.4347 8.86908C16.4347 9.30132 16.7851 9.65171 17.2173 9.65171Z" fill="#A2001D"/>
<path d="M15.6529 7.30481H14.6094V8.34829H15.6529V7.30481Z" fill="#FFDA44"/>
<path d="M15.6522 9.65201H14.6088V10.6955H15.6522V9.65201Z" fill="#FFDA44"/>
<path d="M15.6522 12.0005H14.6088V13.044H15.6522V12.0005Z" fill="#FFDA44"/>
<path d="M19.8262 7.30545H18.7828V8.34893H19.8262V7.30545Z" fill="#FFDA44"/>
<path d="M19.8262 9.65201H18.7828V10.6955H19.8262V9.65201Z" fill="#FFDA44"/>
<path d="M19.8262 12.0005H18.7828V13.044H19.8262V12.0005Z" fill="#FFDA44"/>
</g>
<defs>
<clipPath id="clip0_1867_57678">
<rect width="24" height="24" fill="white"/>
</clipPath>
</defs>
</svg>
