<svg width="24" height="24" viewBox="0 0 24 24" fill="none" xmlns="http://www.w3.org/2000/svg">
<g clip-path="url(#clip0_1867_57559)">
<path d="M12 24C18.6274 24 24 18.6274 24 12C24 5.37258 18.6274 0 12 0C5.37258 0 0 5.37258 0 12C0 18.6274 5.37258 24 12 24Z" fill="#FCFCFC"/>
<path d="M14.0378 8.38355C14.0378 7.25799 13.1253 6.34552 11.9997 6.34552C10.8741 6.34552 9.96165 7.25799 9.96165 8.38355H5.478C5.478 9.49172 6.44335 10.3902 7.55152 10.3902H7.48477C7.48477 11.4984 8.38308 12.3969 9.49144 12.3969C9.49144 13.3782 10.1962 14.1935 11.1269 14.3678L11.1217 14.3795H12.8778L12.8726 14.3678C13.8034 14.1934 14.5081 13.3781 14.5081 12.3969C15.6164 12.3969 16.5147 11.4984 16.5147 10.3902H16.4479C17.5561 10.3902 18.5214 9.49172 18.5214 8.38355H14.0378Z" fill="#FFDA44"/>
<path d="M11.1042 14.1724L9.84052 17.0254C10.5073 17.2964 11.236 17.4471 12.0001 17.4471C12.7643 17.4471 13.493 17.2965 14.1597 17.0254L12.8961 14.1724H11.1042Z" fill="#FFDA44"/>
<path d="M9.39128 9.38556V12.8961C9.39128 14.8928 12 15.5048 12 15.5048C12 15.5048 14.6086 14.8928 14.6086 12.8961V9.38556H9.39128Z" fill="#F0F0F0"/>
<path d="M2.90988 12.0846L4.32077 16.0307L5.71699 12.0846H6.78256L4.74696 17.302H3.89454L1.84437 12.0846H2.90988Z" fill="#338AF3"/>
<path d="M19.3041 17.302V12.0846H20.3182V17.302H19.3041Z" fill="#338AF3"/>
<path d="M10.4343 10.5196V14.7737C10.793 15.0376 11.1789 15.2192 11.4778 15.3354V10.5196H10.4343Z" fill="#D80027"/>
<path d="M13.5643 10.5196V14.7737C13.2057 15.0376 12.8198 15.2192 12.5208 15.3354V10.5196H13.5643Z" fill="#D80027"/>
<path d="M14.6086 9.38556H9.39128V11.041H14.6086V9.38556Z" fill="#0052B4"/>
</g>
<defs>
<clipPath id="clip0_1867_57559">
<rect width="24" height="24" fill="white"/>
</clipPath>
</defs>
</svg>
