<svg width="24" height="24" viewBox="0 0 24 24" fill="none" xmlns="http://www.w3.org/2000/svg">
<g clip-path="url(#clip0_1867_57514)">
<path d="M24.0003 12.0004C24.0003 11.4699 23.9655 10.9475 23.8987 10.4352H10.435C7.98339 7.98371 3.51485 3.51545 3.51504 3.51508C-1.17123 8.20135 -1.17123 15.7993 3.51504 20.4857L10.4351 13.5656H23.8987C23.9654 13.0532 24.0003 12.5309 24.0003 12.0004Z" fill="black"/>
<path d="M23.9967 12.2726C23.9962 12.2958 23.9957 12.319 23.995 12.3422C23.9956 12.3189 23.9961 12.2958 23.9967 12.2726Z" fill="#F0F0F0"/>
<path d="M23.9851 12.6003C23.9841 12.6232 23.9825 12.6461 23.9812 12.669C23.9825 12.6461 23.984 12.6232 23.9851 12.6003Z" fill="#F0F0F0"/>
<path d="M23.9681 12.8633C23.9657 12.897 23.9634 12.9308 23.9607 12.9644C23.9634 12.9308 23.9657 12.897 23.9681 12.8633Z" fill="#F0F0F0"/>
<path d="M23.9285 10.6922C23.9329 10.7324 23.9373 10.7725 23.9413 10.8128C23.9373 10.7725 23.9329 10.7324 23.9285 10.6922Z" fill="#F0F0F0"/>
<path d="M23.9805 11.3299C23.9818 11.3528 23.9833 11.3756 23.9844 11.3986C23.9833 11.3756 23.9818 11.3527 23.9805 11.3299Z" fill="#F0F0F0"/>
<path d="M23.9945 11.6568C23.9952 11.68 23.9956 11.7033 23.9962 11.7264C23.9957 11.7032 23.9951 11.68 23.9945 11.6568Z" fill="#F0F0F0"/>
<path d="M23.961 11.0356C23.9637 11.0692 23.9661 11.103 23.9685 11.1367C23.966 11.103 23.9637 11.0692 23.961 11.0356Z" fill="#F0F0F0"/>
<path d="M23.8987 10.4344C23.9041 10.4755 23.9088 10.5168 23.9138 10.558C23.2015 4.61044 18.1397 -0.000366211 12.0003 -0.000366211C8.68649 -0.000366211 5.68645 1.34283 3.51488 3.5145L10.4347 10.4344H23.8987V10.4344Z" fill="#D80027"/>
<path d="M23.8987 13.5652H10.4347L3.51488 20.4851C5.68645 22.6567 8.68649 24 12.0003 24C18.1397 24 23.2016 19.3892 23.9138 13.4415C23.9088 13.4827 23.904 13.5241 23.8987 13.5652Z" fill="#6DA544"/>
<path d="M23.9412 13.1877C23.9372 13.228 23.9328 13.2681 23.9284 13.3083C23.9328 13.2681 23.9373 13.2281 23.9412 13.1877Z" fill="#F0F0F0"/>
<path d="M23.9685 11.137C23.9731 11.2012 23.9772 11.2655 23.9807 11.33C23.9772 11.2655 23.9731 11.2012 23.9685 11.137Z" fill="black"/>
<path d="M23.9132 10.5583C23.9186 10.6029 23.9237 10.6475 23.9285 10.6922C23.9236 10.6475 23.9185 10.6029 23.9132 10.5583Z" fill="black"/>
<path d="M23.9412 10.8124C23.9485 10.8869 23.9551 10.9616 23.9611 11.0367C23.9552 10.9616 23.9486 10.8869 23.9412 10.8124Z" fill="black"/>
<path d="M24.0005 11.9999C24.0005 12.0913 23.9991 12.1823 23.9971 12.273C23.9991 12.1822 24.0005 12.0912 24.0005 11.9999Z" fill="black"/>
<path d="M23.9808 12.6689C23.9772 12.7334 23.9731 12.7977 23.9686 12.8619C23.9731 12.7977 23.9772 12.7334 23.9808 12.6689Z" fill="black"/>
<path d="M23.9611 12.9641C23.9551 13.039 23.9485 13.1137 23.9412 13.1882C23.9486 13.1137 23.9552 13.039 23.9611 12.9641Z" fill="black"/>
<path d="M23.9285 13.3081C23.9237 13.3528 23.9186 13.3974 23.9132 13.4419C23.9185 13.3974 23.9236 13.3528 23.9285 13.3081Z" fill="black"/>
<path d="M23.9971 11.7275C23.9991 11.8183 24.0005 11.9093 24.0005 12.0006C24.0005 11.9093 23.9991 11.8183 23.9971 11.7275Z" fill="black"/>
<path d="M23.9856 11.3982C23.9898 11.4841 23.993 11.5704 23.9954 11.6569C23.993 11.5704 23.9898 11.4841 23.9856 11.3982Z" fill="black"/>
<path d="M23.9953 12.3419C23.9929 12.4283 23.9897 12.5146 23.9855 12.6006C23.9898 12.5146 23.993 12.4283 23.9953 12.3419Z" fill="black"/>
<path d="M23.989 11.4733H9.99423L2.80563 4.28577C2.57327 4.53083 2.32141 4.87302 2.16565 5.11672L9.04028 11.995L2.15988 18.8755C2.2961 19.1178 2.59287 19.4765 2.80122 19.7099L9.99437 12.5168H23.9907C23.9981 12.3437 24.0005 12.1699 24.0005 11.995C24.0004 11.7608 23.9939 11.588 23.989 11.4733Z" fill="#FFDA44"/>
<path d="M2.9153 14.5574V13.5522C3.91833 13.5522 4.73428 12.7362 4.73428 11.7333C4.73428 11.0236 4.15692 10.4463 3.44733 10.4463C2.96391 10.4463 2.57058 10.8396 2.57058 11.3231C2.57058 11.6322 2.82206 11.8838 3.13125 11.8838C3.306 11.8838 3.44817 11.7415 3.44817 11.5668H4.45326C4.45326 12.2958 3.8602 12.8889 3.1313 12.8889C2.26791 12.8889 1.56558 12.1864 1.56558 11.3232C1.56558 10.2855 2.4098 9.44135 3.44738 9.44135C4.71122 9.44135 5.73947 10.4696 5.73947 11.7334C5.73942 13.2904 4.47253 14.5574 2.9153 14.5574Z" fill="#FFDA44"/>
</g>
<defs>
<clipPath id="clip0_1867_57514">
<rect width="24" height="24" fill="white"/>
</clipPath>
</defs>
</svg>
