<svg width="24" height="24" viewBox="0 0 24 24" fill="none" xmlns="http://www.w3.org/2000/svg">
<g clip-path="url(#clip0_1867_58874)">
<path d="M24 12C24 18.6274 18.6274 24 12 24C5.37262 24 0 18.6274 0 12C4.12172 7.87828 7.61737 4.38263 12 0C18.6274 0 24 5.37262 24 12Z" fill="#D80027"/>
<path d="M12 12C12 5.37262 12 4.59131 12 0C5.37262 0 0 5.37262 0 12H12Z" fill="#0052B4"/>
<path d="M9.61151 7.82617L9.80581 8.42406H10.4344L9.92581 8.79348L10.1201 9.39137L9.61151 9.02186L9.10292 9.39137L9.29721 8.79348L8.78862 8.42406H9.41721L9.61151 7.82617Z" fill="#F0F0F0"/>
<path d="M6.45448 3.13116L6.77824 4.12768H7.826L6.97831 4.74338L7.30217 5.73985L6.45448 5.12396L5.60684 5.73985L5.93065 4.74338L5.08301 4.12768H6.13067L6.45448 3.13116Z" fill="#F0F0F0"/>
<path d="M9.5854 4.17499L9.90917 5.17155H10.9569L10.1092 5.78725L10.433 6.78372L9.5854 6.16783L8.73776 6.78372L9.06157 5.78725L8.21393 5.17155H9.26159L9.5854 4.17499Z" fill="#F0F0F0"/>
<path d="M7.1106 8.349L7.43442 9.34551H8.48207L7.63443 9.96122L7.95824 10.9577L7.1106 10.3418L6.26296 10.9577L6.58678 9.96122L5.73914 9.34551H6.78684L7.1106 8.349Z" fill="#F0F0F0"/>
<path d="M4.36762 5.73987L4.69144 6.73638H5.73914L4.89145 7.35209L5.21526 8.34856L4.36762 7.73271L3.52003 8.34856L3.84379 7.35209L2.9962 6.73638H4.04386L4.36762 5.73987Z" fill="#F0F0F0"/>
</g>
<defs>
<clipPath id="clip0_1867_58874">
<rect width="24" height="24" fill="white"/>
</clipPath>
</defs>
</svg>
