<svg width="24" height="24" viewBox="0 0 24 24" fill="none" xmlns="http://www.w3.org/2000/svg">
<g clip-path="url(#clip0_1867_57582)">
<path d="M12 24C18.6274 24 24 18.6274 24 12C24 5.37258 18.6274 0 12 0C5.37258 0 0 5.37258 0 12C0 18.6274 5.37258 24 12 24Z" fill="#F0F0F0"/>
<path d="M12 23.9992C17.1595 23.9992 21.5581 20.7426 23.2536 16.173H0.746353C2.44187 20.7426 6.84038 23.9992 12 23.9992Z" fill="black"/>
<path d="M12 0.000671387C6.84038 0.000671387 2.44187 3.25717 0.746353 7.82678H23.2536C21.5581 3.25717 17.1595 0.000671387 12 0.000671387Z" fill="#D80027"/>
</g>
<defs>
<clipPath id="clip0_1867_57582">
<rect width="24" height="24" fill="white"/>
</clipPath>
</defs>
</svg>
