<svg width="24" height="24" viewBox="0 0 24 24" fill="none" xmlns="http://www.w3.org/2000/svg">
<g clip-path="url(#clip0_1867_59010)">
<path d="M12 24C18.6274 24 24 18.6274 24 12C24 5.37258 18.6274 0 12 0C5.37258 0 0 5.37258 0 12C0 18.6274 5.37258 24 12 24Z" fill="#F0F0F0"/>
<path d="M3.51425 20.4852C-1.17203 15.7989 -1.17203 8.20095 3.51425 3.51462C3.51393 3.51513 10.4344 11.9999 10.4344 11.9999L3.51425 20.4852Z" fill="black"/>
<path d="M10.435 12.0002L1.59171 6.02423C1.31754 6.50081 1.07576 6.99825 0.868011 7.51312L5.345 12.0002L0.868152 16.4876C1.07571 17.0021 1.31726 17.4992 1.59125 17.9754L10.435 12.0002Z" fill="#FFDA44"/>
<path d="M23.8986 10.4347H10.4346L3.51476 3.5148C2.76908 4.26049 2.12122 5.10382 1.59172 6.02402L7.55604 11.9999L1.59125 17.9751C2.12075 18.8955 2.76889 19.7391 3.51476 20.485L10.4346 13.5651H23.8986C23.9653 13.0528 24.0002 12.5304 24.0002 11.9999C24.0002 11.4694 23.9653 10.9471 23.8986 10.4347Z" fill="#6DA544"/>
<path d="M4.6937 21.5181C6.71724 23.0735 9.25023 23.9988 11.9997 23.9988C17.5441 23.9988 22.2093 20.2385 23.5863 15.1293H11.0825L4.6937 21.5181Z" fill="#0052B4"/>
<path d="M23.5863 8.86874C22.2093 3.75955 17.5441 -0.000808716 11.9997 -0.000808716C9.25023 -0.000808716 6.71724 0.924551 4.6937 2.47996L11.0825 8.86874H23.5863Z" fill="#D80027"/>
</g>
<defs>
<clipPath id="clip0_1867_59010">
<rect width="24" height="24" fill="white"/>
</clipPath>
</defs>
</svg>
