<svg width="24" height="24" viewBox="0 0 24 24" fill="none" xmlns="http://www.w3.org/2000/svg">
<g clip-path="url(#clip0_1867_57594)">
<path d="M12 24C18.6274 24 24 18.6274 24 12C24 5.37258 18.6274 0 12 0C5.37258 0 0 5.37258 0 12C0 18.6274 5.37258 24 12 24Z" fill="#F0F0F0"/>
<path d="M22.8522 6.87252C22.2425 5.58467 21.4104 4.42297 20.4054 3.43649L12.0007 2.60919L3.59606 3.43654C3.56924 3.46283 3.54309 3.48974 3.51656 3.51632L6.87281 6.87256L12.0007 7.02917L22.8522 6.87252Z" fill="#FFDA44"/>
<path d="M3.51596 20.4854C3.56012 20.5295 3.60418 20.5737 3.64899 20.6172L12.0003 21.3924L20.3515 20.6172C21.3668 19.6329 22.2091 18.4711 22.8273 17.1812L7.30459 16.6967C5.96898 18.0324 4.42848 19.5728 3.51596 20.4854Z" fill="#FFDA44"/>
<path d="M23.8805 10.3082L9.91289 9.91315L11.9999 12.0001C11.3817 12.6183 10.4589 13.541 9.91289 14.0871L23.8732 13.7442C23.9562 13.1748 23.9999 12.5926 23.9999 12.0001C23.9999 11.4257 23.9586 10.8611 23.8805 10.3082Z" fill="black"/>
<path d="M12 0.000671387C8.72684 0.000671387 5.76031 1.31177 3.59534 3.4367H20.4047C18.2397 1.31177 15.2732 0.000671387 12 0.000671387Z" fill="#6DA544"/>
<path d="M10.3076 10.3086H23.8802C23.709 9.09551 23.3567 7.94079 22.851 6.87256H6.87158L10.3076 10.3086Z" fill="#D80027"/>
<path d="M6.81944 17.1815H22.8267C23.3383 16.1141 23.6962 14.9592 23.873 13.7455H10.2555C8.92483 15.0761 7.79711 16.2038 6.81944 17.1815Z" fill="#D80027"/>
<path d="M12 24.0005C15.2463 24.0005 18.191 22.7109 20.3512 20.6166H3.64879C5.80898 22.7109 8.75366 24.0005 12 24.0005Z" fill="#6DA544"/>
<path d="M4.28516 2.80994C4.0184 3.03409 3.76101 3.26908 3.51477 3.51522L12.0001 12.0005L3.51477 20.4858C3.76096 20.732 4.0184 20.967 4.28516 21.1911L13.4758 12.0005L4.28516 2.80994Z" fill="black"/>
<path d="M4.82458 8.86908L5.60153 11.2605H8.11614L6.08186 12.7385L6.85886 15.13L4.82458 13.652L2.79025 15.13L3.56735 12.7385L1.53311 11.2605H4.04758L4.82458 8.86908Z" fill="#D80027"/>
<path d="M6.9621 12.1947L4.9372 11.4773C4.9372 11.4773 4.78757 10.0737 4.77852 10.0261C4.70981 9.66412 4.39167 9.39032 4.00963 9.39032C3.57745 9.39032 3.22701 9.74071 3.22701 10.1729C3.22701 10.2446 3.23746 10.3137 3.25551 10.3797L2.68776 10.9512C2.68776 10.9512 3.3621 10.9512 3.69726 10.9512C3.69726 11.999 2.91538 11.999 2.91538 13.0425L3.34912 14.086H5.95781L6.39262 13.0425H6.39243C6.43598 12.9424 6.46242 12.8391 6.47334 12.7359C6.84815 12.5843 6.9621 12.1947 6.9621 12.1947Z" fill="#FFDA44"/>
</g>
<defs>
<clipPath id="clip0_1867_57594">
<rect width="24" height="24" fill="white"/>
</clipPath>
</defs>
</svg>
